<svg width="512" height="512" viewBox="0 0 512 512" fill="none" xmlns="http://www.w3.org/2000/svg">
<rect width="512" height="512" fill="white"/>
<path d="M101.272 397.342H73.8797L66.6532 413.992L51.9559 414.041L88.284 339.285H104.593L117.141 413.992L103.616 414.041L101.272 397.342ZM99.9539 387.771L95.2664 354.471L94.7782 348.709L92.4832 354.617L78.0789 387.771H99.9539ZM146.731 358.328L139.065 413.992H125.589L133.206 358.328H146.731ZM135.208 341.189C135.208 339.66 135.582 338.243 136.331 336.941C137.112 335.607 138.154 334.549 139.456 333.768C140.791 332.954 142.255 332.547 143.85 332.547C145.283 332.547 146.552 332.856 147.659 333.475C148.798 334.061 149.661 334.858 150.247 335.867C150.865 336.876 151.175 337.983 151.175 339.188C151.175 340.783 150.8 342.247 150.052 343.582C149.303 344.917 148.229 345.975 146.829 346.756C145.462 347.537 143.899 347.928 142.141 347.928C140.904 347.928 139.749 347.635 138.675 347.049C137.633 346.43 136.787 345.617 136.136 344.607C135.517 343.566 135.208 342.426 135.208 341.189ZM179.055 339.285L170.462 403.201L196.536 402.811L194.973 413.992H155.52L165.579 339.285H179.055ZM235.257 357.547C240.302 357.547 244.095 358.67 246.634 360.916C249.173 363.162 250.442 366.206 250.442 370.047C250.442 376.98 247.382 382.368 241.263 386.209C235.143 390.05 227.786 392.736 219.192 394.266C218.997 401.492 221.878 405.105 227.835 405.105C230.504 405.105 233.304 404.357 236.233 402.859C239.195 401.329 241.735 399.458 243.85 397.244L247.415 404.129C246.341 405.659 244.729 407.254 242.581 408.914C240.432 410.542 237.845 411.925 234.817 413.064C231.79 414.204 228.567 414.773 225.149 414.773C220.625 414.773 216.848 413.781 213.821 411.795C210.794 409.777 208.564 407.124 207.132 403.836C205.699 400.516 204.983 396.902 204.983 392.996C204.983 386.388 206.285 380.382 208.889 374.979C211.526 369.575 215.139 365.327 219.729 362.234C224.352 359.109 229.528 357.547 235.257 357.547ZM237.259 371.316C237.259 369.396 236.835 368.029 235.989 367.215C235.143 366.368 233.906 365.945 232.278 365.945C229.772 365.945 227.558 367.068 225.638 369.314C223.75 371.528 222.252 374.246 221.145 377.469C220.039 380.659 219.388 383.67 219.192 386.502C221.601 386.372 224.222 385.639 227.054 384.305C229.918 382.938 232.327 381.115 234.28 378.836C236.266 376.557 237.259 374.051 237.259 371.316ZM258.304 358.328H272.171L275.345 393.631L275.93 403.494L280.618 397.293C283.092 393.354 285.11 389.546 286.673 385.867C288.235 382.189 289.488 377.957 290.432 373.172C290.791 371.316 291.149 368.794 291.507 365.604C291.865 362.413 292.028 359.988 291.995 358.328H304.544C304.576 358.589 304.625 359.191 304.69 360.135C304.788 361.079 304.837 362.218 304.837 363.553L304.788 365.457C304.593 370.665 303.421 375.906 301.272 381.18C299.124 386.453 296.341 391.466 292.923 396.219C289.537 400.971 285.794 405.333 281.692 409.305L277.298 414.334L266.214 414.92L263.479 396.561L258.304 358.328ZM361.233 357.547L353.47 413.992H341.458L342.141 403.348C340.286 406.538 337.926 409.24 335.061 411.453C332.229 413.667 329.023 414.773 325.442 414.773C320.039 414.773 316.051 412.869 313.479 409.061C310.94 405.252 309.671 400.158 309.671 393.777C309.671 387.885 310.891 382.173 313.333 376.639C315.774 371.072 319.453 366.499 324.368 362.918C329.316 359.337 335.322 357.547 342.386 357.547C344.143 357.547 346.08 357.742 348.196 358.133C350.312 358.491 352.233 358.93 353.958 359.451L361.233 357.547ZM329.348 405.203C332.018 405.203 334.589 403.673 337.063 400.613C339.57 397.553 341.669 394.103 343.362 390.262L346.682 366.824C345.087 366.368 343.199 366.141 341.018 366.141C337.242 366.141 334.052 367.475 331.448 370.145C328.844 372.814 326.891 376.199 325.589 380.301C324.319 384.37 323.684 388.488 323.684 392.654C323.684 396.886 324.156 400.044 325.1 402.127C326.077 404.178 327.493 405.203 329.348 405.203ZM376.37 367.41H371.487L373.391 358.328H378.518L382.425 344.754H392.971L391.165 358.328H402.981L401.858 367.41H389.944L386.38 394.168C386.249 395.112 386.168 395.747 386.136 396.072C385.81 398.416 385.647 400.027 385.647 400.906C385.647 402.176 385.859 403.201 386.282 403.982C386.705 404.731 387.519 405.105 388.723 405.105C389.83 405.105 391.409 404.617 393.46 403.641C395.511 402.664 397.089 401.688 398.196 400.711L400.1 407.498C398.961 408.605 397.431 409.728 395.511 410.867C393.59 412.007 391.425 412.967 389.016 413.748C386.64 414.497 384.28 414.871 381.936 414.871C378.811 414.871 376.321 414.074 374.466 412.479C372.643 410.883 371.731 408.475 371.731 405.252C371.731 404.764 371.796 403.771 371.927 402.273C372.057 400.743 372.268 399.002 372.561 397.049L376.37 367.41ZM437.698 357.547C442.744 357.547 446.536 358.67 449.075 360.916C451.614 363.162 452.884 366.206 452.884 370.047C452.884 376.98 449.824 382.368 443.704 386.209C437.584 390.05 430.227 392.736 421.634 394.266C421.438 401.492 424.319 405.105 430.276 405.105C432.945 405.105 435.745 404.357 438.675 402.859C441.637 401.329 444.176 399.458 446.292 397.244L449.856 404.129C448.782 405.659 447.171 407.254 445.022 408.914C442.874 410.542 440.286 411.925 437.259 413.064C434.231 414.204 431.009 414.773 427.591 414.773C423.066 414.773 419.29 413.781 416.263 411.795C413.235 409.777 411.005 407.124 409.573 403.836C408.141 400.516 407.425 396.902 407.425 392.996C407.425 386.388 408.727 380.382 411.331 374.979C413.968 369.575 417.581 365.327 422.171 362.234C426.793 359.109 431.969 357.547 437.698 357.547ZM439.7 371.316C439.7 369.396 439.277 368.029 438.43 367.215C437.584 366.368 436.347 365.945 434.72 365.945C432.213 365.945 429.999 367.068 428.079 369.314C426.191 371.528 424.694 374.246 423.587 377.469C422.48 380.659 421.829 383.67 421.634 386.502C424.042 386.372 426.663 385.639 429.495 384.305C432.36 382.938 434.768 381.115 436.721 378.836C438.707 376.557 439.7 374.051 439.7 371.316Z" fill="#1A3D67"/>
<ellipse cx="341.855" cy="92.9552" rx="22.7575" ry="23.9552" fill="#FF8585"/>
<path d="M148.797 234.495L162.191 200.754C161.652 204.347 163.412 210.226 172.017 217.212C176.342 220.724 184 226.281 187.498 231.353C196.167 243.922 190.44 256.452 187.344 260.642C184.764 264.308 174.168 272.62 159.633 265.918C145.098 259.217 145.701 242.875 148.797 234.495Z" fill="#FFC700"/>
<path d="M189.1 258.246L220.882 179.193C217.703 185.518 207.563 191.65 192.135 186.38C171.976 179.494 166.567 189.255 163.389 197.16C160.21 205.065 162.084 213.976 179.565 226.625C193.549 236.743 191.748 250.867 189.1 258.246Z" fill="#FFA800"/>
<path d="M295.142 241.477L248.43 146.854C254.827 156.111 276.02 154.223 287.216 154.223C310.284 154.223 328.016 181.208 308.008 200.509C292.014 215.938 293.01 233.762 295.142 241.477Z" fill="#45DDA6"/>
<path d="M192.796 121.603C193.046 120.73 193.352 119.957 193.681 119.307L192.796 121.603C191.077 127.609 192.001 138.382 206.134 146.968C226.37 159.262 225.201 169.129 220.144 180.777C215.475 191.534 200.098 189.435 190.937 186.381C187.347 185.184 170.601 179.204 164.601 194.729L192.796 121.603Z" fill="#FF7C33"/>
<path d="M233.956 112.536L240.045 124.913L222.079 175.601C226.95 160.754 215.689 154.298 208.078 149.658C192.247 140.997 190.827 128.006 192.857 121.82L200.467 103.257C217.212 92.4337 224.823 98.6222 233.956 112.536Z" fill="#E95555"/>
<path d="M347.244 234.896C351.935 238.654 358.19 236.462 364.445 228.634C366.009 195.756 356.195 182.136 335.866 169.611C319.604 159.592 319.098 150.353 319.098 145.656V183.231C325.352 197.322 337.471 227.068 347.244 234.896Z" fill="#B135DC"/>
<path d="M246.655 69.3463C219.782 65.6507 203.902 92.4439 199.321 106.302C202.986 102.605 208.992 100.657 211.536 100.146C223.752 96.4501 232.913 110.925 235.967 118.624L246.655 143.261C242.99 134.638 255.816 121.703 258.87 118.624C271.187 100.142 273.528 73.0419 246.655 69.3463Z" fill="#FFC700"/>
<path d="M312.709 167.707L312.472 167.215C312.55 167.374 312.629 167.538 312.709 167.707L338.542 221.477C341.098 226.129 347.437 235.431 352.344 235.431C357.251 235.431 362.568 230.263 364.612 227.679C364.612 238.531 360.012 261.477 341.609 266.438C318.606 272.639 300.204 257.136 294.069 238.531C292.536 230.263 289.468 218.377 304.804 202.873C319.02 188.502 315.724 174.169 312.709 167.707Z" fill="#62B0FF"/>
<path d="M341.07 128.889C325.951 128.886 319.098 138.898 319.098 145.698C319.098 160.982 328.515 164.038 345.779 177.791C359.59 188.794 364.613 208.864 364.613 217.523V145.698C364.613 138.055 356.765 128.891 341.07 128.889Z" fill="#E156BA"/>
<path d="M282.18 105.397C274.668 86.851 263.074 76.1999 256.814 72.5938C273.583 84.5714 265.199 109.724 258.707 116.215C239.93 133.216 246.034 142.064 248.43 146.855C251.56 153.037 258.727 156.654 280.615 154.853C299.393 153.307 308.782 162.58 311.911 167.217C305.13 154.338 289.691 123.943 282.18 105.397Z" fill="#8FDF69"/>
</svg>
