<svg version="1.2" baseProfile="tiny-ps" xmlns="http://www.w3.org/2000/svg" viewBox="0 0 260 260" width="260" height="260">
	<title>ailevate-logo-light-svg</title>
	<style>
		tspan { white-space:pre }
		.shp0 { fill: #ff8585 } 
		.shp1 { fill: #ffc700 } 
		.shp2 { fill: #ffa800 } 
		.shp3 { fill: #45dda6 } 
		.shp4 { fill: #ff7c33 } 
		.shp5 { fill: #e95555 } 
		.shp6 { fill: #b135dc } 
		.shp7 { fill: #62b0ff } 
		.shp8 { fill: #e156ba } 
		.shp9 { fill: #8fdf69 } 
	</style>
	<path id="Layer" class="shp0" d="M213.86 76.91C201.27 76.91 191.1 66.2 191.1 52.96C191.1 39.71 201.27 29 213.86 29C226.44 29 236.61 39.71 236.61 52.96C236.61 66.2 226.44 76.91 213.86 76.91Z" />
	<path id="Layer" class="shp1" d="M20.8 194.5L34.19 160.75C33.65 164.35 35.41 170.23 44.02 177.21C48.34 180.72 56 186.28 59.5 191.35C68.17 203.92 62.44 216.45 59.34 220.64C56.76 224.31 46.17 232.62 31.63 225.92C17.1 219.22 17.7 202.88 20.8 194.5Z" />
	<path id="Layer" class="shp2" d="M61.1 218.25L92.88 139.19C89.7 145.52 79.56 151.65 64.13 146.38C43.98 139.49 38.57 149.25 35.39 157.16C32.21 165.06 34.08 173.98 51.56 186.63C65.55 196.74 63.75 210.87 61.1 218.25Z" />
	<path id="Layer" class="shp3" d="M167.14 201.48L120.43 106.85C126.83 116.11 148.02 114.22 159.22 114.22C182.28 114.22 200.02 141.21 180.01 160.51C164.01 175.94 165.01 193.76 167.14 201.48Z" />
	<path id="Layer" class="shp4" d="M64.8 81.6C65.05 80.73 65.35 79.96 65.68 79.31L64.8 81.6C63.08 87.61 64 98.38 78.13 106.97C98.37 119.26 97.2 129.13 92.14 140.78C87.47 151.53 72.1 149.44 62.94 146.38C59.35 145.18 42.6 139.2 36.6 154.73L64.8 81.6Z" />
	<path id="Layer" class="shp5" d="M105.96 72.54L112.04 84.91L94.08 135.6C98.95 120.75 87.69 114.3 80.08 109.66C64.25 101 62.83 88.01 64.86 81.82L72.47 63.26C89.21 52.43 96.82 58.62 105.96 72.54Z" />
	<path id="Layer" class="shp6" d="M219.24 194.9C223.94 198.65 230.19 196.46 236.44 188.63C238.01 155.76 228.19 142.14 207.87 129.61C191.6 119.59 191.1 110.35 191.1 105.66L191.1 143.23C197.35 157.32 209.47 187.07 219.24 194.9Z" />
	<path id="Layer" class="shp1" d="M118.66 29.35C91.78 25.65 75.9 52.44 71.32 66.3C74.99 62.61 80.99 60.66 83.54 60.15C95.75 56.45 104.91 70.93 107.97 78.62L118.66 103.26C114.99 94.64 127.82 81.7 130.87 78.62C143.19 60.14 145.53 33.04 118.66 29.35Z" />
	<path id="Layer" class="shp7" d="M184.71 127.71L184.47 127.22C184.55 127.37 184.63 127.54 184.71 127.71L210.54 181.48C213.1 186.13 219.44 195.43 224.34 195.43C229.25 195.43 234.57 190.26 236.61 187.68C236.61 198.53 232.01 221.48 213.61 226.44C190.61 232.64 172.2 217.14 166.07 198.53C164.54 190.26 161.47 178.38 176.8 162.87C191.02 148.5 187.72 134.17 184.71 127.71Z" />
	<path id="Layer" class="shp8" d="M213.07 88.89C197.95 88.89 191.1 98.9 191.1 105.7C191.1 120.98 200.51 124.04 217.78 137.79C231.59 148.79 236.61 168.86 236.61 177.52L236.61 105.7C236.61 98.06 228.76 88.89 213.07 88.89Z" />
	<path id="Layer" class="shp9" d="M154.18 65.4C146.67 46.85 135.07 36.2 128.81 32.59C145.58 44.57 137.2 69.72 130.71 76.22C111.93 93.22 118.03 102.06 120.43 106.86C123.56 113.04 130.73 116.65 152.62 114.85C171.39 113.31 180.78 122.58 183.91 127.22C177.13 114.34 161.69 83.94 154.18 65.4Z" />
</svg>