<svg version="1.2" baseProfile="tiny-ps" xmlns="http://www.w3.org/2000/svg" viewBox="0 0 512 512" width="512" height="512">
	<title>ailevate-logo-light-svg</title>
	<style>
		tspan { white-space:pre }
		.shp0 { fill: #ffffff } 
		.shp1 { fill: #ff8585 } 
		.shp2 { fill: #ffc700 } 
		.shp3 { fill: #ffa800 } 
		.shp4 { fill: #45dda6 } 
		.shp5 { fill: #ff7c33 } 
		.shp6 { fill: #e95555 } 
		.shp7 { fill: #b135dc } 
		.shp8 { fill: #62b0ff } 
		.shp9 { fill: #e156ba } 
		.shp10 { fill: #8fdf69 } 
	</style>
	<path id="Layer" fill-rule="evenodd" class="shp0" d="M101.27 397.34L73.88 397.34L66.65 413.99L51.96 414.04L88.28 339.29L104.59 339.29L117.14 413.99L103.62 414.04L101.27 397.34ZM99.95 387.77L95.27 354.47L94.78 348.71L92.48 354.62L78.08 387.77L99.95 387.77ZM146.73 358.33L139.06 413.99L125.59 413.99L133.21 358.33L146.73 358.33ZM135.21 341.19C135.21 339.66 135.58 338.24 136.33 336.94C137.11 335.61 138.15 334.55 139.46 333.77C140.79 332.95 142.25 332.55 143.85 332.55C145.28 332.55 146.55 332.86 147.66 333.48C148.8 334.06 149.66 334.86 150.25 335.87C150.87 336.88 151.18 337.98 151.18 339.19C151.18 340.78 150.8 342.25 150.05 343.58C149.3 344.92 148.23 345.98 146.83 346.76C145.46 347.54 143.9 347.93 142.14 347.93C140.9 347.93 139.75 347.63 138.68 347.05C137.63 346.43 136.79 345.62 136.14 344.61C135.52 343.57 135.21 342.43 135.21 341.19ZM179.06 339.29L170.46 403.2L196.54 402.81L194.97 413.99L155.52 413.99L165.58 339.29L179.06 339.29ZM235.26 357.55C240.3 357.55 244.09 358.67 246.63 360.92C249.17 363.16 250.44 366.21 250.44 370.05C250.44 376.98 247.38 382.37 241.26 386.21C235.14 390.05 227.79 392.74 219.19 394.27C219 401.49 221.88 405.11 227.84 405.11C230.5 405.11 233.3 404.36 236.23 402.86C239.19 401.33 241.74 399.46 243.85 397.24L247.41 404.13C246.34 405.66 244.73 407.25 242.58 408.91C240.43 410.54 237.84 411.93 234.82 413.06C231.79 414.2 228.57 414.77 225.15 414.77C220.63 414.77 216.85 413.78 213.82 411.8C210.79 409.78 208.56 407.12 207.13 403.84C205.7 400.52 204.98 396.9 204.98 393C204.98 386.39 206.28 380.38 208.89 374.98C211.53 369.57 215.14 365.33 219.73 362.23C224.35 359.11 229.53 357.55 235.26 357.55ZM237.26 371.32C237.26 369.4 236.84 368.03 235.99 367.21C235.14 366.37 233.91 365.94 232.28 365.94C229.77 365.94 227.56 367.07 225.64 369.31C223.75 371.53 222.25 374.25 221.15 377.47C220.04 380.66 219.39 383.67 219.19 386.5C221.6 386.37 224.22 385.64 227.05 384.31C229.92 382.94 232.33 381.12 234.28 378.84C236.27 376.56 237.26 374.05 237.26 371.32ZM258.3 358.33L272.17 358.33L275.35 393.63L275.93 403.49L280.62 397.29C283.09 393.35 285.11 389.55 286.67 385.87C288.24 382.19 289.49 377.96 290.43 373.17C290.79 371.32 291.15 368.79 291.51 365.6C291.87 362.41 292.03 359.99 292 358.33L304.54 358.33C304.58 358.59 304.63 359.19 304.69 360.13C304.79 361.08 304.84 362.22 304.84 363.55L304.79 365.46C304.59 370.67 303.42 375.91 301.27 381.18C299.12 386.45 296.34 391.47 292.92 396.22C289.54 400.97 285.79 405.33 281.69 409.31L277.3 414.33L266.21 414.92L263.48 396.56L258.3 358.33ZM361.23 357.55L353.47 413.99L341.46 413.99L342.14 403.35C340.29 406.54 337.93 409.24 335.06 411.45C332.23 413.67 329.02 414.77 325.44 414.77C320.04 414.77 316.05 412.87 313.48 409.06C310.94 405.25 309.67 400.16 309.67 393.78C309.67 387.88 310.89 382.17 313.33 376.64C315.77 371.07 319.45 366.5 324.37 362.92C329.32 359.34 335.32 357.55 342.39 357.55C344.14 357.55 346.08 357.74 348.2 358.13C350.31 358.49 352.23 358.93 353.96 359.45L361.23 357.55ZM329.35 405.2C332.02 405.2 334.59 403.67 337.06 400.61C339.57 397.55 341.67 394.1 343.36 390.26L346.68 366.82C345.09 366.37 343.2 366.14 341.02 366.14C337.24 366.14 334.05 367.48 331.45 370.14C328.84 372.81 326.89 376.2 325.59 380.3C324.32 384.37 323.68 388.49 323.68 392.65C323.68 396.89 324.16 400.04 325.1 402.13C326.08 404.18 327.49 405.2 329.35 405.2ZM376.37 367.41L371.49 367.41L373.39 358.33L378.52 358.33L382.43 344.75L392.97 344.75L391.17 358.33L402.98 358.33L401.86 367.41L389.94 367.41L386.38 394.17C386.25 395.11 386.17 395.75 386.14 396.07C385.81 398.42 385.65 400.03 385.65 400.91C385.65 402.18 385.86 403.2 386.28 403.98C386.7 404.73 387.52 405.11 388.72 405.11C389.83 405.11 391.41 404.62 393.46 403.64C395.51 402.66 397.09 401.69 398.2 400.71L400.1 407.5C398.96 408.61 397.43 409.73 395.51 410.87C393.59 412.01 391.43 412.97 389.02 413.75C386.64 414.5 384.28 414.87 381.94 414.87C378.81 414.87 376.32 414.07 374.47 412.48C372.64 410.88 371.73 408.48 371.73 405.25C371.73 404.76 371.8 403.77 371.93 402.27C372.06 400.74 372.27 399 372.56 397.05L376.37 367.41ZM437.7 357.55C442.74 357.55 446.54 358.67 449.07 360.92C451.61 363.16 452.88 366.21 452.88 370.05C452.88 376.98 449.82 382.37 443.7 386.21C437.58 390.05 430.23 392.74 421.63 394.27C421.44 401.49 424.32 405.11 430.28 405.11C432.94 405.11 435.75 404.36 438.68 402.86C441.64 401.33 444.18 399.46 446.29 397.24L449.86 404.13C448.78 405.66 447.17 407.25 445.02 408.91C442.87 410.54 440.29 411.93 437.26 413.06C434.23 414.2 431.01 414.77 427.59 414.77C423.07 414.77 419.29 413.78 416.26 411.8C413.24 409.78 411 407.12 409.57 403.84C408.14 400.52 407.43 396.9 407.43 393C407.43 386.39 408.73 380.38 411.33 374.98C413.97 369.57 417.58 365.33 422.17 362.23C426.79 359.11 431.97 357.55 437.7 357.55ZM439.7 371.32C439.7 369.4 439.28 368.03 438.43 367.21C437.58 366.37 436.35 365.94 434.72 365.94C432.21 365.94 430 367.07 428.08 369.31C426.19 371.53 424.69 374.25 423.59 377.47C422.48 380.66 421.83 383.67 421.63 386.5C424.04 386.37 426.66 385.64 429.5 384.31C432.36 382.94 434.77 381.12 436.72 378.84C438.71 376.56 439.7 374.05 439.7 371.32Z" />
	<path id="Layer" class="shp1" d="M341.86 116.91C329.27 116.91 319.1 106.2 319.1 92.96C319.1 79.71 329.27 69 341.86 69C354.44 69 364.61 79.71 364.61 92.96C364.61 106.2 354.44 116.91 341.86 116.91Z" />
	<path id="Layer" class="shp2" d="M148.8 234.5L162.19 200.75C161.65 204.35 163.41 210.23 172.02 217.21C176.34 220.72 184 226.28 187.5 231.35C196.17 243.92 190.44 256.45 187.34 260.64C184.76 264.31 174.17 272.62 159.63 265.92C145.1 259.22 145.7 242.88 148.8 234.5Z" />
	<path id="Layer" class="shp3" d="M189.1 258.25L220.88 179.19C217.7 185.52 207.56 191.65 192.13 186.38C171.98 179.49 166.57 189.25 163.39 197.16C160.21 205.06 162.08 213.98 179.56 226.63C193.55 236.74 191.75 250.87 189.1 258.25Z" />
	<path id="Layer" class="shp4" d="M295.14 241.48L248.43 146.85C254.83 156.11 276.02 154.22 287.22 154.22C310.28 154.22 328.02 181.21 308.01 200.51C292.01 215.94 293.01 233.76 295.14 241.48Z" />
	<path id="Layer" class="shp5" d="M192.8 121.6C193.05 120.73 193.35 119.96 193.68 119.31L192.8 121.6C191.08 127.61 192 138.38 206.13 146.97C226.37 159.26 225.2 169.13 220.14 180.78C215.47 191.53 200.1 189.44 190.94 186.38C187.35 185.18 170.6 179.2 164.6 194.73L192.8 121.6Z" />
	<path id="Layer" class="shp6" d="M233.96 112.54L240.04 124.91L222.08 175.6C226.95 160.75 215.69 154.3 208.08 149.66C192.25 141 190.83 128.01 192.86 121.82L200.47 103.26C217.21 92.43 224.82 98.62 233.96 112.54Z" />
	<path id="Layer" class="shp7" d="M347.24 234.9C351.94 238.65 358.19 236.46 364.44 228.63C366.01 195.76 356.19 182.14 335.87 169.61C319.6 159.59 319.1 150.35 319.1 145.66L319.1 183.23C325.35 197.32 337.47 227.07 347.24 234.9Z" />
	<path id="Layer" class="shp2" d="M246.66 69.35C219.78 65.65 203.9 92.44 199.32 106.3C202.99 102.61 208.99 100.66 211.54 100.15C223.75 96.45 232.91 110.92 235.97 118.62L246.66 143.26C242.99 134.64 255.82 121.7 258.87 118.62C271.19 100.14 273.53 73.04 246.66 69.35Z" />
	<path id="Layer" class="shp8" d="M312.71 167.71L312.47 167.22C312.55 167.37 312.63 167.54 312.71 167.71L338.54 221.48C341.1 226.13 347.44 235.43 352.34 235.43C357.25 235.43 362.57 230.26 364.61 227.68C364.61 238.53 360.01 261.48 341.61 266.44C318.61 272.64 300.2 257.14 294.07 238.53C292.54 230.26 289.47 218.38 304.8 202.87C319.02 188.5 315.72 174.17 312.71 167.71Z" />
	<path id="Layer" class="shp9" d="M341.07 128.89C325.95 128.89 319.1 138.9 319.1 145.7C319.1 160.98 328.51 164.04 345.78 177.79C359.59 188.79 364.61 208.86 364.61 217.52L364.61 145.7C364.61 138.06 356.76 128.89 341.07 128.89Z" />
	<path id="Layer" class="shp10" d="M282.18 105.4C274.67 86.85 263.07 76.2 256.81 72.59C273.58 84.57 265.2 109.72 258.71 116.22C239.93 133.22 246.03 142.06 248.43 146.85C251.56 153.04 258.73 156.65 280.62 154.85C299.39 153.31 308.78 162.58 311.91 167.22C305.13 154.34 289.69 123.94 282.18 105.4Z" />
</svg>