<svg width="38" height="38" viewBox="0 0 38 38" fill="none" xmlns="http://www.w3.org/2000/svg">
<rect width="38" height="38" rx="6" fill="#1A3D67"/>
<g clip-path="url(#clip0)">
<path d="M24.9311 24.027L19.9043 19.0001L24.9311 13.9733L21.515 10.5571L16.4892 15.5829L16.0885 15.9798L13.0684 19.0001L13.2628 19.1928L13.4679 19.3999L16.4881 22.42L16.49 22.4181L21.515 27.4431L24.9311 24.027ZM21.515 12.1482L23.3402 13.9733L18.3133 19.0001L23.3402 24.027L21.515 25.8521L16.4864 20.8234L16.4845 20.8253L14.6629 19.0038L14.6647 19.002L14.661 18.9985L16.4845 17.1751L16.8859 16.7774L21.515 12.1482Z" fill="white"/>
</g>
<defs>
<clipPath id="clip0">
<rect width="18" height="18" fill="white" transform="matrix(-4.37114e-08 1 1 4.37114e-08 10 10)"/>
</clipPath>
</defs>
</svg>
