<svg width="38" height="38" viewBox="0 0 38 38" fill="none" xmlns="http://www.w3.org/2000/svg">
<path d="M33 0H5C2.23858 0 0 2.23858 0 5V33C0 35.7614 2.23858 38 5 38H33C35.7614 38 38 35.7614 38 33V5C38 2.23858 35.7614 0 33 0Z" fill="#1BC5BD"/>
<path d="M11.9512 25.6585C11.5653 25.6585 11.1881 25.5441 10.8672 25.3297C10.5463 25.1153 10.2962 24.8106 10.1485 24.454C10.0008 24.0975 9.96221 23.7052 10.0375 23.3267C10.1128 22.9482 10.2986 22.6005 10.5715 22.3276C10.8444 22.0547 11.1921 21.8689 11.5706 21.7936C11.9491 21.7183 12.3414 21.757 12.6979 21.9046C13.0545 22.0523 13.3592 22.3024 13.5736 22.6233C13.788 22.9442 13.9024 23.3214 13.9024 23.7073C13.9019 24.2246 13.6961 24.7206 13.3303 25.0864C12.9645 25.4522 12.4685 25.658 11.9512 25.6585ZM11.9512 22.7317C11.7583 22.7317 11.5696 22.7889 11.4092 22.8961C11.2488 23.0033 11.1237 23.1557 11.0499 23.334C10.976 23.5122 10.9567 23.7084 10.9944 23.8977C11.032 24.0869 11.1249 24.2607 11.2614 24.3972C11.3978 24.5336 11.5716 24.6265 11.7609 24.6642C11.9501 24.7018 12.1463 24.6825 12.3246 24.6087C12.5028 24.5348 12.6552 24.4098 12.7624 24.2493C12.8696 24.0889 12.9268 23.9003 12.9268 23.7073C12.9265 23.4487 12.8237 23.2007 12.6408 23.0178C12.4579 22.8349 12.2099 22.732 11.9512 22.7317Z" fill="white"/>
<path d="M17.0732 25.6585C16.6873 25.6585 16.31 25.5441 15.9891 25.3297C15.6683 25.1153 15.4182 24.8106 15.2705 24.454C15.1228 24.0975 15.0842 23.7052 15.1594 23.3267C15.2347 22.9482 15.4206 22.6005 15.6934 22.3276C15.9663 22.0547 16.314 21.8689 16.6925 21.7936C17.071 21.7183 17.4633 21.757 17.8199 21.9046C18.1764 22.0523 18.4811 22.3024 18.6955 22.6233C18.91 22.9442 19.0244 23.3214 19.0244 23.7073C19.0238 24.2246 18.818 24.7206 18.4522 25.0864C18.0864 25.4522 17.5905 25.658 17.0732 25.6585ZM17.0732 22.7317C16.8802 22.7317 16.6916 22.7889 16.5311 22.8961C16.3707 23.0033 16.2457 23.1557 16.1718 23.334C16.098 23.5122 16.0787 23.7084 16.1163 23.8977C16.1539 24.0869 16.2469 24.2607 16.3833 24.3972C16.5198 24.5336 16.6936 24.6265 16.8828 24.6642C17.0721 24.7018 17.2682 24.6825 17.4465 24.6087C17.6248 24.5348 17.7772 24.4098 17.8844 24.2493C17.9916 24.0889 18.0488 23.9003 18.0488 23.7073C18.0485 23.4487 17.9456 23.2007 17.7627 23.0178C17.5798 22.8349 17.3318 22.732 17.0732 22.7317Z" fill="white"/>
<path d="M22.1951 21.7561C22.581 21.7561 22.9583 21.8705 23.2792 22.0849C23.6 22.2993 23.8501 22.6041 23.9978 22.9606C24.1455 23.3172 24.1841 23.7095 24.1088 24.088C24.0336 24.4665 23.8477 24.8142 23.5748 25.087C23.302 25.3599 22.9543 25.5458 22.5758 25.6211C22.1973 25.6963 21.805 25.6577 21.4484 25.51C21.0919 25.3623 20.7871 25.1122 20.5727 24.7914C20.3583 24.4705 20.2439 24.0932 20.2439 23.7073C20.2445 23.19 20.4502 22.694 20.816 22.3282C21.1818 21.9624 21.6778 21.7567 22.1951 21.7561ZM22.1951 24.6829C22.3881 24.6829 22.5767 24.6257 22.7371 24.5185C22.8976 24.4113 23.0226 24.2589 23.0965 24.0807C23.1703 23.9024 23.1896 23.7062 23.152 23.517C23.1143 23.3277 23.0214 23.1539 22.885 23.0175C22.7485 22.881 22.5747 22.7881 22.3854 22.7505C22.1962 22.7128 22 22.7321 21.8218 22.806C21.6435 22.8798 21.4911 23.0049 21.3839 23.1653C21.2767 23.3257 21.2195 23.5144 21.2195 23.7073C21.2198 23.966 21.3227 24.214 21.5056 24.3969C21.6885 24.5798 21.9365 24.6826 22.1951 24.6829Z" fill="white"/>
<path d="M11.9512 20.7806C11.5653 20.7806 11.1881 20.6662 10.8672 20.4518C10.5463 20.2374 10.2962 19.9326 10.1485 19.5761C10.0008 19.2196 9.96221 18.8272 10.0375 18.4487C10.1128 18.0702 10.2986 17.7226 10.5715 17.4497C10.8444 17.1768 11.1921 16.991 11.5706 16.9157C11.9491 16.8404 12.3414 16.879 12.6979 17.0267C13.0545 17.1744 13.3592 17.4245 13.5736 17.7454C13.788 18.0662 13.9024 18.4435 13.9024 18.8294C13.9019 19.3467 13.6961 19.8427 13.3303 20.2085C12.9645 20.5743 12.4685 20.78 11.9512 20.7806ZM11.9512 17.8538C11.7583 17.8538 11.5696 17.911 11.4092 18.0182C11.2488 18.1254 11.1237 18.2778 11.0499 18.456C10.976 18.6343 10.9567 18.8305 10.9944 19.0197C11.032 19.209 11.1249 19.3828 11.2614 19.5193C11.3978 19.6557 11.5716 19.7486 11.7609 19.7863C11.9501 19.8239 12.1463 19.8046 12.3246 19.7307C12.5028 19.6569 12.6552 19.5319 12.7624 19.3714C12.8696 19.211 12.9268 19.0224 12.9268 18.8294C12.9265 18.5707 12.8237 18.3228 12.6408 18.1399C12.4579 17.957 12.2099 17.8541 11.9512 17.8538Z" fill="white"/>
<path d="M17.0732 20.7806C16.6873 20.7806 16.31 20.6662 15.9891 20.4518C15.6683 20.2374 15.4182 19.9326 15.2705 19.5761C15.1228 19.2196 15.0842 18.8272 15.1594 18.4487C15.2347 18.0702 15.4206 17.7226 15.6934 17.4497C15.9663 17.1768 16.314 16.991 16.6925 16.9157C17.071 16.8404 17.4633 16.879 17.8199 17.0267C18.1764 17.1744 18.4811 17.4245 18.6955 17.7454C18.91 18.0662 19.0244 18.4435 19.0244 18.8294C19.0238 19.3467 18.818 19.8427 18.4522 20.2085C18.0864 20.5743 17.5905 20.78 17.0732 20.7806ZM17.0732 17.8538C16.8802 17.8538 16.6916 17.911 16.5311 18.0182C16.3707 18.1254 16.2457 18.2778 16.1718 18.456C16.098 18.6343 16.0787 18.8305 16.1163 19.0197C16.1539 19.209 16.2469 19.3828 16.3833 19.5193C16.5198 19.6557 16.6936 19.7486 16.8828 19.7863C17.0721 19.8239 17.2682 19.8046 17.4465 19.7307C17.6248 19.6569 17.7772 19.5319 17.8844 19.3714C17.9916 19.211 18.0488 19.0224 18.0488 18.8294C18.0485 18.5707 17.9456 18.3228 17.7627 18.1399C17.5798 17.957 17.3318 17.8541 17.0732 17.8538Z" fill="white"/>
<path d="M11.9512 15.9024C11.5653 15.9024 11.1881 15.788 10.8672 15.5736C10.5463 15.3592 10.2962 15.0545 10.1485 14.6979C10.0008 14.3414 9.96221 13.9491 10.0375 13.5706C10.1128 13.1921 10.2986 12.8444 10.5715 12.5715C10.8444 12.2986 11.1921 12.1128 11.5706 12.0375C11.9491 11.9622 12.3414 12.0008 12.6979 12.1485C13.0545 12.2962 13.3592 12.5463 13.5736 12.8672C13.788 13.1881 13.9024 13.5653 13.9024 13.9512C13.9019 14.4685 13.6961 14.9645 13.3303 15.3303C12.9645 15.6961 12.4685 15.9019 11.9512 15.9024ZM11.9512 12.9756C11.7583 12.9756 11.5696 13.0328 11.4092 13.14C11.2488 13.2472 11.1237 13.3996 11.0499 13.5779C10.976 13.7561 10.9567 13.9523 10.9944 14.1416C11.032 14.3308 11.1249 14.5046 11.2614 14.6411C11.3978 14.7775 11.5716 14.8704 11.7609 14.9081C11.9501 14.9457 12.1463 14.9264 12.3246 14.8526C12.5028 14.7787 12.6552 14.6537 12.7624 14.4932C12.8696 14.3328 12.9268 14.1442 12.9268 13.9512C12.9265 13.6926 12.8237 13.4446 12.6408 13.2617C12.4579 13.0788 12.2099 12.9759 11.9512 12.9756Z" fill="white"/>
<path d="M17.0732 15.9024C16.6873 15.9024 16.31 15.788 15.9891 15.5736C15.6683 15.3592 15.4182 15.0545 15.2705 14.6979C15.1228 14.3414 15.0842 13.9491 15.1594 13.5706C15.2347 13.1921 15.4206 12.8444 15.6934 12.5715C15.9663 12.2986 16.314 12.1128 16.6925 12.0375C17.071 11.9622 17.4633 12.0008 17.8199 12.1485C18.1764 12.2962 18.4811 12.5463 18.6955 12.8672C18.91 13.1881 19.0244 13.5653 19.0244 13.9512C19.0238 14.4685 18.818 14.9645 18.4522 15.3303C18.0864 15.6961 17.5905 15.9019 17.0732 15.9024ZM17.0732 12.9756C16.8802 12.9756 16.6916 13.0328 16.5311 13.14C16.3707 13.2472 16.2457 13.3996 16.1718 13.5779C16.098 13.7561 16.0787 13.9523 16.1163 14.1416C16.1539 14.3308 16.2469 14.5046 16.3833 14.6411C16.5198 14.7775 16.6936 14.8704 16.8828 14.9081C17.0721 14.9457 17.2682 14.9264 17.4465 14.8526C17.6248 14.7787 17.7772 14.6537 17.8844 14.4932C17.9916 14.3328 18.0488 14.1442 18.0488 13.9512C18.0485 13.6926 17.9456 13.4446 17.7627 13.2617C17.5798 13.0788 17.3318 12.9759 17.0732 12.9756Z" fill="white"/>
<path d="M28.1501 15.3904V15.2404H28.0001H24.8246V12.0648V11.9148H24.6746H24.0411H23.8911V12.0648V15.2404H20.7156H20.5656V15.3904V16.0238V16.1738H20.7156H23.8911V19.3494V19.4994H24.0411H24.6746H24.8246V19.3494V16.1738H28.0001H28.1501V16.0238V15.3904Z" fill="white" stroke="white" stroke-width="0.3"/>
</svg>
