<svg width="65" height="39" viewBox="0 0 65 39" fill="none" xmlns="http://www.w3.org/2000/svg">
<rect x="9" width="56" height="39" rx="6" fill="#EFE8FF"/>
<rect y="9" width="19" height="19" rx="3" fill="#8950FC"/>
<g clip-path="url(#clip0)">
<path d="M50.7584 31.1034H47.6205C46.8778 31.1034 46.2756 30.5013 46.2756 29.7586V27.0689C46.2756 26.8214 46.0749 26.6207 45.8274 26.6207H43.1377V25.7241H45.8274C46.57 25.7241 47.1722 26.3263 47.1722 27.0689V29.7586C47.1722 30.0062 47.3729 30.2069 47.6205 30.2069H50.7584V31.1034Z" fill="#5EAC24"/>
<path d="M45.8274 14.0689H43.1377V13.1723H45.8274C46.0749 13.1723 46.2756 12.9716 46.2756 12.724V8.68955C46.2756 7.94688 46.8778 7.34473 47.6205 7.34473H50.7584V8.24128H47.6205C47.3729 8.24128 47.1722 8.442 47.1722 8.68955V12.724C47.1722 13.4667 46.57 14.0689 45.8274 14.0689Z" fill="#5EAC24"/>
<path d="M43.1377 18.5515H50.7584V19.4481H43.1377V18.5515Z" fill="#5EAC24"/>
<path d="M35.069 19C39.5252 19 43.1379 17.5952 43.1379 15.8621V9.13794C43.1379 10.8711 39.5252 12.2759 35.069 12.2759C30.6127 12.2759 27 10.8711 27 9.13794V15.8621C27 17.5952 30.6127 19 35.069 19Z" fill="#9BC9FF"/>
<path d="M35.069 19C30.6127 19 27 17.5952 27 15.8621V22.1379C27 23.8711 30.6127 25.2759 35.069 25.2759C39.5252 25.2759 43.1379 23.8711 43.1379 22.1379V15.8621C43.1379 17.5952 39.5252 19 35.069 19Z" fill="#57A4FF"/>
<path d="M35.069 25.2759C30.6127 25.2759 27 23.8711 27 22.1379V28.8621C27 30.5952 30.6127 32 35.069 32C39.5252 32 43.1379 30.5952 43.1379 28.8621V22.1379C43.1379 23.8711 39.5252 25.2759 35.069 25.2759Z" fill="#2488FF"/>
<path d="M43.1379 9.13793C43.1379 7.4048 39.5252 6 35.069 6C30.6127 6 27 7.4048 27 9.13793C27 10.8711 30.6127 12.2759 35.069 12.2759C39.5252 12.2759 43.1379 10.8711 43.1379 9.13793Z" fill="#BDDBFF"/>
<path d="M43.1379 9.13797C43.1379 10.8729 39.5248 12.2759 35.069 12.2759C30.6131 12.2759 27 10.8729 27 9.13797C26.9996 8.98453 27.0285 8.83241 27.0852 8.6897C27.6365 10.2094 31.0032 11.3794 35.069 11.3794C39.1348 11.3794 42.5014 10.2094 43.0528 8.6897C43.1095 8.83241 43.1384 8.98453 43.1379 9.13797Z" fill="#57A4FF"/>
<path d="M53.0002 19.0001C53.0002 19.7428 52.3981 20.3449 51.6554 20.3449C50.9127 20.3449 50.3105 19.7428 50.3105 19.0001C50.3105 18.2574 50.9127 17.6553 51.6554 17.6553C52.3981 17.6553 53.0002 18.2574 53.0002 19.0001Z" fill="#B2FA09"/>
<path d="M53.0002 30.6551C53.0002 31.3978 52.3981 32 51.6554 32C50.9127 32 50.3105 31.3978 50.3105 30.6551C50.3105 29.9125 50.9127 29.3103 51.6554 29.3103C52.3981 29.3103 53.0002 29.9125 53.0002 30.6551Z" fill="#B2FA09"/>
<path d="M53.0002 7.79307C53.0002 8.53575 52.3981 9.1379 51.6554 9.1379C50.9127 9.1379 50.3105 8.53575 50.3105 7.79307C50.3105 7.05039 50.9127 6.44824 51.6554 6.44824C52.3981 6.44824 53.0002 7.05039 53.0002 7.79307Z" fill="#B2FA09"/>
<path d="M43.1379 14.9656V15.8621C43.1379 17.597 39.5248 19.0001 35.069 19.0001C30.6131 19.0001 27 17.597 27 15.8621V14.9656C27 16.7005 30.6131 18.1035 35.069 18.1035C39.5248 18.1035 43.1379 16.7005 43.1379 14.9656Z" fill="#2488FF"/>
<path d="M43.1379 21.2415V22.138C43.1379 23.8729 39.5248 25.2759 35.069 25.2759C30.6131 25.2759 27 23.8729 27 22.138V21.2415C27 22.9763 30.6131 24.3794 35.069 24.3794C39.5248 24.3794 43.1379 22.9763 43.1379 21.2415Z" fill="#006DF0"/>
<path d="M43.1379 27.9656V28.8621C43.1379 30.597 39.5248 32.0001 35.069 32.0001C30.6131 32.0001 27 30.597 27 28.8621V27.9656C27 29.7005 30.6131 31.1035 35.069 31.1035C39.5248 31.1035 43.1379 29.7005 43.1379 27.9656Z" fill="#006DF0"/>
<path d="M51.207 7.34473H52.1036V8.24128H51.207V7.34473Z" fill="#ED1C24"/>
<path d="M51.207 18.5518H52.1036V19.4483H51.207V18.5518Z" fill="#ED1C24"/>
<path d="M51.207 30.2068H52.1036V31.1033H51.207V30.2068Z" fill="#ED1C24"/>
</g>
<path d="M5.20312 18.5V23.6563H13.7969V18.5C13.7966 18.2266 13.6878 17.9645 13.4945 17.7712C13.3012 17.5778 13.039 17.4691 12.7656 17.4688H10.9047L11.1856 15.1858L11.1871 15.1712C11.2057 14.9383 11.1759 14.7041 11.0996 14.4833C11.0233 14.2625 10.9021 14.0599 10.7436 13.8882C10.5851 13.7165 10.3928 13.5795 10.1788 13.4858C9.96474 13.3921 9.73364 13.3438 9.5 13.3438C9.26636 13.3438 9.03526 13.3921 8.82124 13.4858C8.60721 13.5795 8.41491 13.7165 8.25643 13.8882C8.09795 14.0599 7.97673 14.2625 7.9004 14.4833C7.82407 14.7041 7.79428 14.9383 7.81292 15.1712L7.8135 15.1785L8.09529 17.4688H6.23438C5.96097 17.4691 5.69885 17.5778 5.50552 17.7712C5.31219 17.9645 5.20344 18.2266 5.20312 18.5ZM13.1094 22.9688H5.89062V19.875H13.1094V22.9688ZM8.87266 18.1563L8.49771 15.1096C8.48753 14.9718 8.5059 14.8333 8.55165 14.7029C8.59741 14.5725 8.66957 14.4529 8.76363 14.3516C8.8577 14.2504 8.97163 14.1696 9.09833 14.1144C9.22502 14.0591 9.36175 14.0306 9.49996 14.0306C9.63817 14.0306 9.77489 14.0591 9.90159 14.1144C10.0283 14.1696 10.1422 14.2504 10.2363 14.3516C10.3303 14.4529 10.4025 14.5725 10.4483 14.7029C10.494 14.8333 10.5124 14.9718 10.5022 15.1096L10.1275 18.1563H12.7656C12.8568 18.1564 12.9441 18.1926 13.0086 18.2571C13.073 18.3215 13.1093 18.4089 13.1094 18.5V19.1875H5.89062V18.5C5.89073 18.4089 5.92698 18.3215 5.99143 18.2571C6.05587 18.1926 6.14324 18.1564 6.23438 18.1563H8.87266Z" fill="white"/>
<defs>
<clipPath id="clip0">
<rect width="26" height="26" fill="white" transform="translate(27 6)"/>
</clipPath>
</defs>
</svg>
