<svg width="71" height="64" viewBox="0 0 71 64" fill="none" xmlns="http://www.w3.org/2000/svg">
<rect width="71" height="64" rx="6" fill="#E1F0FF"/>
<path d="M24.5 46C23.7089 46 22.9355 45.7654 22.2777 45.3259C21.6199 44.8864 21.1072 44.2616 20.8045 43.5307C20.5017 42.7998 20.4225 41.9956 20.5769 41.2196C20.7312 40.4437 21.1122 39.731 21.6716 39.1716C22.231 38.6122 22.9437 38.2312 23.7196 38.0769C24.4956 37.9225 25.2998 38.0017 26.0307 38.3045C26.7616 38.6072 27.3864 39.1199 27.8259 39.7777C28.2654 40.4355 28.5 41.2089 28.5 42C28.4988 43.0605 28.077 44.0772 27.3271 44.8271C26.5772 45.577 25.5605 45.9988 24.5 46ZM24.5 40C24.1044 40 23.7178 40.1173 23.3889 40.3371C23.06 40.5568 22.8036 40.8692 22.6522 41.2346C22.5009 41.6001 22.4613 42.0022 22.5384 42.3902C22.6156 42.7781 22.8061 43.1345 23.0858 43.4142C23.3655 43.6939 23.7219 43.8844 24.1098 43.9616C24.4978 44.0387 24.8999 43.9991 25.2654 43.8478C25.6308 43.6964 25.9432 43.44 26.1629 43.1111C26.3827 42.7822 26.5 42.3956 26.5 42C26.4994 41.4697 26.2885 40.9614 25.9136 40.5864C25.5386 40.2115 25.0303 40.0006 24.5 40Z" fill="#3699FF"/>
<path d="M35 46C34.2089 46 33.4355 45.7654 32.7777 45.3259C32.1199 44.8864 31.6072 44.2616 31.3045 43.5307C31.0017 42.7998 30.9225 41.9956 31.0769 41.2196C31.2312 40.4437 31.6122 39.731 32.1716 39.1716C32.731 38.6122 33.4437 38.2312 34.2196 38.0769C34.9956 37.9225 35.7998 38.0017 36.5307 38.3045C37.2616 38.6072 37.8864 39.1199 38.3259 39.7777C38.7654 40.4355 39 41.2089 39 42C38.9988 43.0605 38.577 44.0772 37.8271 44.8271C37.0772 45.577 36.0605 45.9988 35 46ZM35 40C34.6044 40 34.2178 40.1173 33.8889 40.3371C33.56 40.5568 33.3036 40.8692 33.1522 41.2346C33.0009 41.6001 32.9613 42.0022 33.0384 42.3902C33.1156 42.7781 33.3061 43.1345 33.5858 43.4142C33.8655 43.6939 34.2219 43.8844 34.6098 43.9616C34.9978 44.0387 35.3999 43.9991 35.7654 43.8478C36.1308 43.6964 36.4432 43.44 36.6629 43.1111C36.8827 42.7822 37 42.3956 37 42C36.9994 41.4697 36.7885 40.9614 36.4136 40.5864C36.0386 40.2115 35.5303 40.0006 35 40Z" fill="#3699FF"/>
<path d="M45.5 38C46.2911 38 47.0645 38.2346 47.7223 38.6741C48.3801 39.1136 48.8928 39.7384 49.1955 40.4693C49.4983 41.2002 49.5775 42.0044 49.4231 42.7804C49.2688 43.5563 48.8878 44.269 48.3284 44.8284C47.769 45.3878 47.0563 45.7688 46.2804 45.9231C45.5044 46.0775 44.7002 45.9983 43.9693 45.6955C43.2384 45.3928 42.6136 44.8801 42.1741 44.2223C41.7346 43.5645 41.5 42.7911 41.5 42C41.5012 40.9395 41.923 39.9228 42.6729 39.1729C43.4228 38.423 44.4395 38.0012 45.5 38ZM45.5 44C45.8956 44 46.2822 43.8827 46.6111 43.6629C46.94 43.4432 47.1964 43.1308 47.3478 42.7654C47.4991 42.3999 47.5387 41.9978 47.4616 41.6098C47.3844 41.2219 47.1939 40.8655 46.9142 40.5858C46.6345 40.3061 46.2781 40.1156 45.8902 40.0384C45.5022 39.9613 45.1001 40.0009 44.7346 40.1522C44.3692 40.3036 44.0568 40.56 43.8371 40.8889C43.6173 41.2178 43.5 41.6044 43.5 42C43.5006 42.5302 43.7115 43.0386 44.0864 43.4136C44.4614 43.7885 44.9698 43.9994 45.5 44Z" fill="#3699FF"/>
<path d="M24.5 36C23.7089 36 22.9355 35.7654 22.2777 35.3259C21.6199 34.8864 21.1072 34.2616 20.8045 33.5307C20.5017 32.7998 20.4225 31.9956 20.5769 31.2196C20.7312 30.4437 21.1122 29.731 21.6716 29.1716C22.231 28.6122 22.9437 28.2312 23.7196 28.0769C24.4956 27.9225 25.2998 28.0017 26.0307 28.3045C26.7616 28.6072 27.3864 29.1199 27.8259 29.7777C28.2654 30.4355 28.5 31.2089 28.5 32C28.4988 33.0605 28.077 34.0772 27.3271 34.8271C26.5772 35.577 25.5605 35.9988 24.5 36ZM24.5 30C24.1044 30 23.7178 30.1173 23.3889 30.3371C23.06 30.5568 22.8036 30.8692 22.6522 31.2346C22.5009 31.6001 22.4613 32.0022 22.5384 32.3902C22.6156 32.7781 22.8061 33.1345 23.0858 33.4142C23.3655 33.6939 23.7219 33.8844 24.1098 33.9616C24.4978 34.0387 24.8999 33.9991 25.2654 33.8478C25.6308 33.6964 25.9432 33.44 26.1629 33.1111C26.3827 32.7822 26.5 32.3956 26.5 32C26.4994 31.4697 26.2885 30.9614 25.9136 30.5864C25.5386 30.2115 25.0303 30.0006 24.5 30Z" fill="#3699FF"/>
<path d="M35 36C34.2089 36 33.4355 35.7654 32.7777 35.3259C32.1199 34.8864 31.6072 34.2616 31.3045 33.5307C31.0017 32.7998 30.9225 31.9956 31.0769 31.2196C31.2312 30.4437 31.6122 29.731 32.1716 29.1716C32.731 28.6122 33.4437 28.2312 34.2196 28.0769C34.9956 27.9225 35.7998 28.0017 36.5307 28.3045C37.2616 28.6072 37.8864 29.1199 38.3259 29.7777C38.7654 30.4355 39 31.2089 39 32C38.9988 33.0605 38.577 34.0772 37.8271 34.8271C37.0772 35.577 36.0605 35.9988 35 36ZM35 30C34.6044 30 34.2178 30.1173 33.8889 30.3371C33.56 30.5568 33.3036 30.8692 33.1522 31.2346C33.0009 31.6001 32.9613 32.0022 33.0384 32.3902C33.1156 32.7781 33.3061 33.1345 33.5858 33.4142C33.8655 33.6939 34.2219 33.8844 34.6098 33.9616C34.9978 34.0387 35.3999 33.9991 35.7654 33.8478C36.1308 33.6964 36.4432 33.44 36.6629 33.1111C36.8827 32.7822 37 32.3956 37 32C36.9994 31.4697 36.7885 30.9614 36.4136 30.5864C36.0386 30.2115 35.5303 30.0006 35 30Z" fill="#3699FF"/>
<path d="M45.5 36C44.7089 36 43.9355 35.7654 43.2777 35.3259C42.6199 34.8864 42.1072 34.2616 41.8045 33.5307C41.5017 32.7998 41.4225 31.9956 41.5769 31.2196C41.7312 30.4437 42.1122 29.731 42.6716 29.1716C43.231 28.6122 43.9437 28.2312 44.7196 28.0769C45.4956 27.9225 46.2998 28.0017 47.0307 28.3045C47.7616 28.6072 48.3864 29.1199 48.8259 29.7777C49.2654 30.4355 49.5 31.2089 49.5 32C49.4988 33.0605 49.077 34.0772 48.3271 34.8271C47.5772 35.577 46.5605 35.9988 45.5 36ZM45.5 30C45.1044 30 44.7178 30.1173 44.3889 30.3371C44.06 30.5568 43.8036 30.8692 43.6522 31.2346C43.5009 31.6001 43.4613 32.0022 43.5384 32.3902C43.6156 32.7781 43.8061 33.1345 44.0858 33.4142C44.3655 33.6939 44.7219 33.8844 45.1098 33.9616C45.4978 34.0387 45.8999 33.9991 46.2654 33.8478C46.6308 33.6964 46.9432 33.44 47.1629 33.1111C47.3827 32.7822 47.5 32.3956 47.5 32C47.4994 31.4697 47.2885 30.9614 46.9136 30.5864C46.5386 30.2115 46.0303 30.0006 45.5 30Z" fill="#3699FF"/>
<path d="M24.5 26C23.7089 26 22.9355 25.7654 22.2777 25.3259C21.6199 24.8864 21.1072 24.2616 20.8045 23.5307C20.5017 22.7998 20.4225 21.9956 20.5769 21.2196C20.7312 20.4437 21.1122 19.731 21.6716 19.1716C22.231 18.6122 22.9437 18.2312 23.7196 18.0769C24.4956 17.9225 25.2998 18.0017 26.0307 18.3045C26.7616 18.6072 27.3864 19.1199 27.8259 19.7777C28.2654 20.4355 28.5 21.2089 28.5 22C28.4988 23.0605 28.077 24.0772 27.3271 24.8271C26.5772 25.577 25.5605 25.9988 24.5 26ZM24.5 20C24.1044 20 23.7178 20.1173 23.3889 20.3371C23.06 20.5568 22.8036 20.8692 22.6522 21.2346C22.5009 21.6001 22.4613 22.0022 22.5384 22.3902C22.6156 22.7781 22.8061 23.1345 23.0858 23.4142C23.3655 23.6939 23.7219 23.8844 24.1098 23.9616C24.4978 24.0387 24.8999 23.9991 25.2654 23.8478C25.6308 23.6964 25.9432 23.44 26.1629 23.1111C26.3827 22.7822 26.5 22.3956 26.5 22C26.4994 21.4697 26.2885 20.9614 25.9136 20.5864C25.5386 20.2115 25.0303 20.0006 24.5 20Z" fill="#3699FF"/>
<path d="M35 26C34.2089 26 33.4355 25.7654 32.7777 25.3259C32.1199 24.8864 31.6072 24.2616 31.3045 23.5307C31.0017 22.7998 30.9225 21.9956 31.0769 21.2196C31.2312 20.4437 31.6122 19.731 32.1716 19.1716C32.731 18.6122 33.4437 18.2312 34.2196 18.0769C34.9956 17.9225 35.7998 18.0017 36.5307 18.3045C37.2616 18.6072 37.8864 19.1199 38.3259 19.7777C38.7654 20.4355 39 21.2089 39 22C38.9988 23.0605 38.577 24.0772 37.8271 24.8271C37.0772 25.577 36.0605 25.9988 35 26ZM35 20C34.6044 20 34.2178 20.1173 33.8889 20.3371C33.56 20.5568 33.3036 20.8692 33.1522 21.2346C33.0009 21.6001 32.9613 22.0022 33.0384 22.3902C33.1156 22.7781 33.3061 23.1345 33.5858 23.4142C33.8655 23.6939 34.2219 23.8844 34.6098 23.9616C34.9978 24.0387 35.3999 23.9991 35.7654 23.8478C36.1308 23.6964 36.4432 23.44 36.6629 23.1111C36.8827 22.7822 37 22.3956 37 22C36.9994 21.4697 36.7885 20.9614 36.4136 20.5864C36.0386 20.2115 35.5303 20.0006 35 20Z" fill="#3699FF"/>
<path d="M45.5 26C44.7089 26 43.9355 25.7654 43.2777 25.3259C42.6199 24.8864 42.1072 24.2616 41.8045 23.5307C41.5017 22.7998 41.4225 21.9956 41.5769 21.2196C41.7312 20.4437 42.1122 19.731 42.6716 19.1716C43.231 18.6122 43.9437 18.2312 44.7196 18.0769C45.4956 17.9225 46.2998 18.0017 47.0307 18.3045C47.7616 18.6072 48.3864 19.1199 48.8259 19.7777C49.2654 20.4355 49.5 21.2089 49.5 22C49.4988 23.0605 49.077 24.0772 48.3271 24.8271C47.5772 25.577 46.5605 25.9988 45.5 26ZM45.5 20C45.1044 20 44.7178 20.1173 44.3889 20.3371C44.06 20.5568 43.8036 20.8692 43.6522 21.2346C43.5009 21.6001 43.4613 22.0022 43.5384 22.3902C43.6156 22.7781 43.8061 23.1345 44.0858 23.4142C44.3655 23.6939 44.7219 23.8844 45.1098 23.9616C45.4978 24.0387 45.8999 23.9991 46.2654 23.8478C46.6308 23.6964 46.9432 23.44 47.1629 23.1111C47.3827 22.7822 47.5 22.3956 47.5 22C47.4994 21.4697 47.2885 20.9614 46.9136 20.5864C46.5386 20.2115 46.0303 20.0006 45.5 20Z" fill="#3699FF"/>
</svg>
