<svg width="66" height="39" viewBox="0 0 66 39" fill="none" xmlns="http://www.w3.org/2000/svg">
<rect x="10" width="56" height="39" rx="6" fill="#E1F0FF"/>
<path fill-rule="evenodd" clip-rule="evenodd" d="M10.0508 10H1.10156V19.7882C1.13264 21.1244 1.82869 24.1323 4.3643 25.4747C6.89991 26.8171 9.21179 27.9606 10.0508 28.3645C10.8898 27.9606 13.2017 26.8171 15.7373 25.4747C18.2729 24.1323 18.9689 21.1244 19 19.7882V10H10.0508Z" fill="#3699FF"/>
<path d="M1.10156 10V9.25H0.351562V10H1.10156ZM1.10156 19.7882H0.351562V19.7969L0.351765 19.8056L1.10156 19.7882ZM4.3643 25.4747L4.71521 24.8118H4.71521L4.3643 25.4747ZM10.0508 28.3645L9.72542 29.0403L10.0508 29.1969L10.3761 29.0403L10.0508 28.3645ZM15.7373 25.4747L16.0882 26.1375L15.7373 25.4747ZM19 19.7882L19.7498 19.8056L19.75 19.7969V19.7882H19ZM19 10H19.75V9.25H19V10ZM1.10156 10.75H10.0508V9.25H1.10156V10.75ZM1.85156 19.7882V10H0.351562V19.7882H1.85156ZM4.71521 24.8118C3.63376 24.2393 2.92395 23.3015 2.4763 22.3183C2.02607 21.3295 1.86469 20.344 1.85136 19.7708L0.351765 19.8056C0.369507 20.5685 0.571692 21.7551 1.11115 22.9399C1.6532 24.1304 2.55923 25.3677 4.01338 26.1375L4.71521 24.8118ZM10.3761 27.6888C9.54506 27.2886 7.24174 26.1494 4.71521 24.8118L4.01338 26.1375C6.55808 27.4847 8.87852 28.6325 9.72542 29.0403L10.3761 27.6888ZM10.3761 29.0403C11.223 28.6325 13.5435 27.4847 16.0882 26.1375L15.3863 24.8118C12.8598 26.1494 10.5565 27.2886 9.72542 27.6888L10.3761 29.0403ZM16.0882 26.1375C17.5423 25.3677 18.4484 24.1304 18.9904 22.9399C19.5299 21.7551 19.7321 20.5685 19.7498 19.8056L18.2502 19.7708C18.2369 20.344 18.0755 21.3295 17.6253 22.3183C17.1776 23.3015 16.4678 24.2393 15.3863 24.8118L16.0882 26.1375ZM19.75 19.7882V10H18.25V19.7882H19.75ZM19 9.25H10.0508V10.75H19V9.25Z" fill="#3699FF"/>
<path d="M8.54545 19.7726L6.78124 17.9188L6.63636 17.7666L6.49149 17.9188L5.85512 18.5875L5.7239 18.7254L5.85512 18.8633L8.40058 21.5379L8.54545 21.6901L8.69033 21.5379L14.1449 15.8065L14.2761 15.6687L14.1449 15.5308L13.5085 14.8621L13.3636 14.7099L13.2188 14.8621L8.54545 19.7726Z" fill="white" stroke="white" stroke-width="0.4"/>
<path d="M32.2412 12.8515C31.9937 12.8515 31.793 12.6508 31.793 12.4032V10.6101C31.793 10.3626 31.9937 10.1619 32.2412 10.1619C32.4888 10.1619 32.6895 10.3626 32.6895 10.6101V12.4032C32.6895 12.6508 32.4888 12.8515 32.2412 12.8515Z" fill="#29485A"/>
<path d="M45.6895 12.8515C45.4419 12.8515 45.2412 12.6508 45.2412 12.4032V10.6101C45.2412 10.3626 45.4419 10.1619 45.6895 10.1619C45.937 10.1619 46.1378 10.3626 46.1378 10.6101V12.4032C46.1378 12.6508 45.937 12.8515 45.6895 12.8515Z" fill="#29485A"/>
<path d="M53.7588 18.4833C53.5112 18.4833 53.3105 18.2826 53.3105 18.0351V9.26545H47.9312C47.6836 9.26545 47.4829 9.06473 47.4829 8.81717C47.4829 8.56961 47.6836 8.3689 47.9312 8.3689H53.7588C54.0063 8.3689 54.207 8.56961 54.207 8.81717V18.0351C54.207 18.2826 54.0063 18.4833 53.7588 18.4833Z" fill="#29485A"/>
<path d="M32.2412 18.2309C31.9937 18.2309 31.793 18.0302 31.793 17.7826V15.9895C31.793 15.742 31.9937 15.5413 32.2412 15.5413C32.4888 15.5413 32.6895 15.742 32.6895 15.9895V17.7826C32.6895 18.0302 32.4888 18.2309 32.2412 18.2309Z" fill="#29485A"/>
<path d="M32.2412 23.6103C31.9937 23.6103 31.793 23.4096 31.793 23.162V21.3689C31.793 21.1214 31.9937 20.9207 32.2412 20.9207C32.4888 20.9207 32.6895 21.1214 32.6895 21.3689V23.162C32.6895 23.4096 32.4888 23.6103 32.2412 23.6103Z" fill="#29485A"/>
<path d="M43.588 30.3343H32.2412C31.9937 30.3343 31.793 30.1336 31.793 29.886V26.7481C31.793 26.5005 31.9937 26.2998 32.2412 26.2998C32.4888 26.2998 32.6895 26.5005 32.6895 26.7481V29.4377H43.588C43.8356 29.4377 44.0363 29.6384 44.0363 29.886C44.0363 30.1336 43.8356 30.3343 43.588 30.3343Z" fill="#29485A"/>
<path d="M30.8966 7.02417H47.0345C47.5297 7.02417 47.931 7.42554 47.931 7.92072V9.71382C47.931 10.209 47.5297 10.6104 47.0345 10.6104H30.8966C30.4014 10.6104 30 10.209 30 9.71382V7.92072C30 7.42554 30.4014 7.02417 30.8966 7.02417Z" fill="#06AAE9"/>
<path d="M30.8966 17.7827H47.0345C47.5297 17.7827 47.931 18.1841 47.931 18.6793V20.4724C47.931 20.9675 47.5297 21.3689 47.0345 21.3689H30.8966C30.4014 21.3689 30 20.9675 30 20.4724V18.6793C30 18.1841 30.4014 17.7827 30.8966 17.7827Z" fill="#06AAE9"/>
<path d="M45.6895 9.71376C45.1943 9.71376 44.793 9.31238 44.793 8.81721C44.793 8.32203 45.1943 7.92065 45.6895 7.92065C46.1847 7.92065 46.5861 8.32203 46.5861 8.81721C46.5861 9.31238 46.1847 9.71376 45.6895 9.71376Z" fill="#ED1C24"/>
<path d="M40.7585 9.26545H31.793C31.5454 9.26545 31.3447 9.06473 31.3447 8.81717C31.3447 8.56961 31.5454 8.3689 31.793 8.3689H40.7585C41.0061 8.3689 41.2068 8.56961 41.2068 8.81717C41.2068 9.06473 41.0061 9.26545 40.7585 9.26545Z" fill="#E6E6E6"/>
<path d="M43.8966 9.26545H42.5518C42.3042 9.26545 42.1035 9.06473 42.1035 8.81717C42.1035 8.56961 42.3042 8.3689 42.5518 8.3689H43.8966C44.1442 8.3689 44.3449 8.56961 44.3449 8.81717C44.3449 9.06473 44.1442 9.26545 43.8966 9.26545Z" fill="#F8CF26"/>
<path d="M30.8966 12.4036H47.0345C47.5297 12.4036 47.931 12.8049 47.931 13.3001V15.0932C47.931 15.5884 47.5297 15.9898 47.0345 15.9898H30.8966C30.4014 15.9898 30 15.5884 30 15.0932V13.3001C30 12.8049 30.4014 12.4036 30.8966 12.4036Z" fill="#3B6882"/>
<path d="M30.8966 23.1138H47.0345C47.5297 23.1138 47.931 23.5151 47.931 24.0103V25.8034C47.931 26.2986 47.5297 26.7 47.0345 26.7H30.8966C30.4014 26.7 30 26.2986 30 25.8034V24.0103C30 23.5151 30.4014 23.1138 30.8966 23.1138Z" fill="#3B6882"/>
<path d="M45.6895 15.0932C45.1943 15.0932 44.793 14.6918 44.793 14.1966C44.793 13.7014 45.1943 13.3 45.6895 13.3C46.1847 13.3 46.5861 13.7014 46.5861 14.1966C46.5861 14.6918 46.1847 15.0932 45.6895 15.0932Z" fill="#ED1C24"/>
<path d="M40.7585 14.6448H31.793C31.5454 14.6448 31.3447 14.4441 31.3447 14.1966C31.3447 13.949 31.5454 13.7483 31.793 13.7483H40.7585C41.0061 13.7483 41.2068 13.949 41.2068 14.1966C41.2068 14.4441 41.0061 14.6448 40.7585 14.6448Z" fill="#E6E6E6"/>
<path d="M43.8966 14.6448H42.5518C42.3042 14.6448 42.1035 14.4441 42.1035 14.1966C42.1035 13.949 42.3042 13.7483 42.5518 13.7483H43.8966C44.1442 13.7483 44.3449 13.949 44.3449 14.1966C44.3449 14.4441 44.1442 14.6448 43.8966 14.6448Z" fill="#F8CF26"/>
<path d="M43.8966 20.0001H42.5518C42.3042 20.0001 42.1035 19.7994 42.1035 19.5518C42.1035 19.3042 42.3042 19.1035 42.5518 19.1035H43.8966C44.1442 19.1035 44.3449 19.3042 44.3449 19.5518C44.3449 19.7994 44.1442 20.0001 43.8966 20.0001Z" fill="#F8CF26"/>
<path d="M43.8966 25.355H42.5518C42.3042 25.355 42.1035 25.1543 42.1035 24.9068C42.1035 24.6592 42.3042 24.4585 42.5518 24.4585H43.8966C44.1442 24.4585 44.3449 24.6592 44.3449 24.9068C44.3449 25.1543 44.1442 25.355 43.8966 25.355Z" fill="#F8CF26"/>
<path d="M40.7585 20.0242H31.793C31.5454 20.0242 31.3447 19.8235 31.3447 19.576C31.3447 19.3284 31.5454 19.1277 31.793 19.1277H40.7585C41.0061 19.1277 41.2068 19.3284 41.2068 19.576C41.2068 19.8235 41.0061 20.0242 40.7585 20.0242Z" fill="#E6E6E6"/>
<path d="M43 27.1965V30.9907C43 32.0872 45.9102 32.9757 49.5 32.9757C53.0898 32.9757 56 32.0872 56 30.9907V27.1965" fill="#025A7A"/>
<path d="M43 23.1621V26.9563C43 28.0528 45.9102 28.9413 49.5 28.9413C53.0898 28.9413 56 28.0528 56 26.9563V23.1621" fill="#0378A3"/>
<path d="M43 19.1277V22.9219C43 24.0184 45.9102 24.9069 49.5 24.9069C53.0898 24.9069 56 24.0184 56 22.9219V19.1277" fill="#3593B5"/>
<path d="M40.7585 25.4034H31.793C31.5454 25.4034 31.3447 25.2027 31.3447 24.9551C31.3447 24.7076 31.5454 24.5068 31.793 24.5068H40.7585C41.0061 24.5068 41.2068 24.7076 41.2068 24.9551C41.2068 25.2027 41.0061 25.4034 40.7585 25.4034Z" fill="#E6E6E6"/>
<path d="M49.5 20.9207C53.0899 20.9207 56 20.0176 56 18.9035C56 17.7894 53.0899 16.8862 49.5 16.8862C45.9101 16.8862 43 17.7894 43 18.9035C43 20.0176 45.9101 20.9207 49.5 20.9207Z" fill="#68AEC8"/>
</svg>
