<svg width="65" height="39" viewBox="0 0 65 39" fill="none" xmlns="http://www.w3.org/2000/svg">
<rect x="9" width="56" height="39" rx="6" fill="#FFECC6"/>
<g clip-path="url(#clip0)">
<path d="M41.1333 13.8H42.8666V17.2667H41.1333V13.8Z" fill="#606060"/>
<path d="M41.1333 13.8H42V17.2667H41.1333V13.8Z" fill="#808080"/>
<path d="M47.1998 13.8H36.7998C36.3209 13.8 35.9331 13.4122 35.9331 12.9333V6.86667C35.9331 6.38784 36.3209 6 36.7998 6H47.1998C47.6786 6 48.0664 6.38784 48.0664 6.86667V12.9333C48.0664 13.4122 47.6786 13.8 47.1998 13.8Z" fill="#808080"/>
<path d="M46.7664 12.9333V6.86667C46.7664 6.38784 46.3786 6 45.8998 6H36.7998C36.3209 6 35.9331 6.38784 35.9331 6.86667V12.9333C35.9331 13.4122 36.3209 13.8 36.7998 13.8H45.8998C46.3786 13.8 46.7664 13.4122 46.7664 12.9333Z" fill="#999999"/>
<path d="M48.0664 11.2H35.9331V6.86667C35.9331 6.38784 36.3209 6 36.7998 6H47.1998C47.6786 6 48.0664 6.38784 48.0664 6.86667V11.2Z" fill="#54BCE8"/>
<path d="M45.8998 6H36.7998C36.3209 6 35.9331 6.38784 35.9331 6.86667V11.2H46.7664V6.86667C46.7664 6.38784 46.3786 6 45.8998 6Z" fill="#7FCDEE"/>
<path d="M55.0001 25.0665H43.7334V21.5999H55.0001V25.0665Z" fill="#808080"/>
<path d="M43.7334 21.5999H53.7001V25.0665H43.7334V21.5999Z" fill="#999999"/>
<path d="M55.0001 28.5333H43.7334V25.0667H55.0001V28.5333Z" fill="#606060"/>
<path d="M43.7334 25.0667H53.7001V28.5333H43.7334V25.0667Z" fill="#808080"/>
<path d="M55.0001 31.9999H43.7334V28.5332H55.0001V31.9999Z" fill="#808080"/>
<path d="M43.7334 28.5332H53.7001V31.9999H43.7334V28.5332Z" fill="#999999"/>
<path d="M40.2667 31.9999H29V28.5332H40.2667V31.9999Z" fill="#808080"/>
<path d="M29 28.5332H38.9667V31.9999H29V28.5332Z" fill="#999999"/>
<path d="M40.2667 28.5333H29V25.0667H40.2667V28.5333Z" fill="#606060"/>
<path d="M29 25.0667H38.9667V28.5333H29V25.0667Z" fill="#808080"/>
<path d="M40.2667 25.0665H29V21.5999H40.2667V25.0665Z" fill="#808080"/>
<path d="M29 21.5999H38.9667V25.0665H29V21.5999Z" fill="#999999"/>
<path d="M30.2998 29.8333H31.1665V30.6999H30.2998V29.8333Z" fill="#333333"/>
<path d="M32.0332 29.8333H32.8999V30.6999H32.0332V29.8333Z" fill="#333333"/>
<path d="M35.5 29.8333H38.9667V30.6999H35.5V29.8333Z" fill="#333333"/>
<path d="M30.2998 26.3665H31.1665V27.2331H30.2998V26.3665Z" fill="#333333"/>
<path d="M32.0332 26.3665H32.8999V27.2331H32.0332V26.3665Z" fill="#333333"/>
<path d="M35.5 26.3665H38.9667V27.2331H35.5V26.3665Z" fill="#333333"/>
<path d="M30.2998 22.8999H31.1665V23.7666H30.2998V22.8999Z" fill="#333333"/>
<path d="M32.0332 22.8999H32.8999V23.7666H32.0332V22.8999Z" fill="#333333"/>
<path d="M35.5 22.8999H38.9667V23.7666H35.5V22.8999Z" fill="#333333"/>
<path d="M52.833 29.8333H53.6997V30.6999H52.833V29.8333Z" fill="#333333"/>
<path d="M51.0996 29.8333H51.9663V30.6999H51.0996V29.8333Z" fill="#333333"/>
<path d="M45.0332 29.8333H48.4999V30.6999H45.0332V29.8333Z" fill="#333333"/>
<path d="M52.833 26.3665H53.6997V27.2331H52.833V26.3665Z" fill="#333333"/>
<path d="M51.0996 26.3665H51.9663V27.2331H51.0996V26.3665Z" fill="#333333"/>
<path d="M45.0332 26.3665H48.4999V27.2331H45.0332V26.3665Z" fill="#333333"/>
<path d="M52.833 22.8999H53.6997V23.7666H52.833V22.8999Z" fill="#333333"/>
<path d="M51.0996 22.8999H51.9663V23.7666H51.0996V22.8999Z" fill="#333333"/>
<path d="M45.0332 22.8999H48.4999V23.7666H45.0332V22.8999Z" fill="#333333"/>
<path d="M38.9663 16.8333H45.033V17.6999H38.9663V16.8333Z" fill="#333333"/>
<path d="M53.6998 21.6H52.8331V19.4333H31.1665V21.6H30.2998V19C30.2998 18.7603 30.494 18.5667 30.7331 18.5667H53.2665C53.5056 18.5667 53.6998 18.7603 53.6998 19V21.6Z" fill="#333333"/>
<path d="M41.5664 17.2666H42.4331V18.9999H41.5664V17.2666Z" fill="#333333"/>
<path d="M38.2271 9.16009L39.9604 7.42676L40.5734 8.03973L38.8398 9.77306L38.2271 9.16009Z" fill="#999999"/>
<path d="M40.8271 9.1603L42.5605 7.42676L43.1732 8.03973L41.4399 9.77306L40.8271 9.1603Z" fill="#999999"/>
<path d="M43.4268 9.1603L45.1601 7.42676L45.7729 8.03973L44.0395 9.77306L43.4268 9.1603Z" fill="#999999"/>
</g>
<rect y="9" width="19" height="19" rx="3" fill="#FFA800"/>
<path d="M10.4082 16.5063L10.216 16.6891C10.1585 16.5592 10.088 16.4362 10.0063 16.3216C10.1445 16.3791 10.2785 16.4411 10.4082 16.5063ZM4.61741 17.413C5.07429 17.0552 5.68587 16.626 6.41854 16.3212C6.17457 16.6628 6.03052 17.0786 6.03052 17.5316C6.03052 17.9987 6.18371 18.4263 6.44167 18.7737C5.59295 18.4285 4.93518 17.9088 4.54629 17.5468L4.54639 17.5467L4.53733 17.5387C4.52574 17.5284 4.51728 17.5199 4.51118 17.5132C4.51426 17.5092 4.51784 17.5048 4.52195 17.4999C4.55424 17.4621 4.58905 17.4351 4.61198 17.4173C4.61361 17.416 4.61517 17.4148 4.61667 17.4136L4.61741 17.413ZM8.35924 17.5316C8.35924 17.5867 8.31154 17.6594 8.21214 17.6645C8.11369 17.6593 8.06492 17.5855 8.06492 17.5316C8.06492 17.4783 8.11344 17.4041 8.21215 17.3987C8.31192 17.4041 8.35924 17.4769 8.35924 17.5316Z" stroke="white"/>
<path d="M7.97011 22.0286L7.97142 22.0299C8.0062 22.065 8.04756 22.0928 8.09313 22.1118C8.13869 22.1308 8.18756 22.1406 8.23693 22.1406C8.27847 22.1406 8.31972 22.1337 8.35904 22.1204L10.4998 21.3941L14.6079 17.2861C14.859 17.0349 15.0001 16.6943 15.0001 16.3391C15.0001 15.984 14.859 15.6433 14.6078 15.3922C14.3566 15.1411 14.016 15 13.6608 15C13.3057 15 12.965 15.1411 12.7139 15.3923L8.60585 19.5003L7.8797 21.6411C7.85683 21.7076 7.85318 21.7793 7.86917 21.8478C7.88516 21.9164 7.92014 21.9791 7.97011 22.0286ZM13.055 15.7334C13.2159 15.5737 13.4335 15.4843 13.6602 15.4848C13.8868 15.4852 14.1041 15.5754 14.2644 15.7357C14.4246 15.896 14.5149 16.1132 14.5153 16.3399C14.5157 16.5666 14.4263 16.7842 14.2667 16.945L13.7264 17.4853L12.5148 16.2736L13.055 15.7334ZM9.02661 19.7618L12.1737 16.6147L13.3853 17.8264L10.2382 20.9734L8.40457 21.5955L9.02661 19.7618Z" fill="white"/>
<defs>
<clipPath id="clip0">
<rect width="26" height="26" fill="white" transform="translate(29 6)"/>
</clipPath>
</defs>
</svg>
