<svg width="71" height="64" viewBox="0 0 71 64" fill="none" xmlns="http://www.w3.org/2000/svg">
<rect width="71" height="64" rx="6" fill="#C9F7F5"/>
<path d="M49.4964 26.1317L35.4964 18.1317C35.3453 18.0454 35.1743 18 35.0003 18C34.8262 18 34.6552 18.0454 34.5041 18.1317L20.5041 26.1317C20.349 26.2203 20.2204 26.3489 20.1318 26.504C20.0431 26.6591 19.9977 26.8351 20.0001 27.0138C20.0025 27.1924 20.0528 27.3672 20.1456 27.5198C20.2385 27.6724 20.3705 27.7974 20.528 27.8817L34.528 35.3817C34.6733 35.4596 34.8355 35.5003 35.0003 35.5003C35.165 35.5003 35.3273 35.4596 35.4725 35.3817L49.4725 27.8817C49.63 27.7974 49.7621 27.6724 49.8549 27.5198C49.9477 27.3672 49.998 27.1924 50.0004 27.0138C50.0029 26.8351 49.9574 26.6591 49.8687 26.504C49.7801 26.3489 49.6515 26.2203 49.4964 26.1317ZM35.0003 33.3656L23.0652 26.9717L35.0003 20.1517L46.9353 26.9717L35.0003 33.3656Z" fill="#1BC5BD"/>
<path d="M35.4819 40.6263L49 33.1913V30.9087L35 38.6088L21 30.9087V33.1913L34.5181 40.6263C34.6657 40.7074 34.8315 40.75 35 40.75C35.1685 40.75 35.3343 40.7074 35.4819 40.6263Z" fill="#1BC5BD"/>
<path d="M21 38.6666L34.5294 45.8823C34.6743 45.9595 34.8359 45.9999 35 45.9999C35.1641 45.9999 35.3257 45.9595 35.4706 45.8823L49 38.6666V36.3999L35 43.8666L21 36.3999V38.6666Z" fill="#1BC5BD"/>
</svg>
