<svg width="65" height="39" viewBox="0 0 65 39" fill="none" xmlns="http://www.w3.org/2000/svg">
<rect x="9" width="56" height="39" rx="6" fill="#D6F3F2"/>
<rect y="9" width="19" height="19" rx="3" fill="#1BC5BD"/>
<path d="M15 18.0217H9.97826V13H9.02174V18.0217H4V18.9783H9.02174V24H9.97826V18.9783H15V18.0217Z" fill="white"/>
<path d="M40.2363 28.6116H43.7633V31.6585H40.2363V28.6116Z" fill="#DAE1EA"/>
<path d="M42.748 28.6116H43.7637V31.6585H42.748V28.6116Z" fill="#B9CFDF"/>
<path d="M54.2129 16.3983V18.1249C54.2129 18.3494 54.3947 18.5312 54.6191 18.5312C54.8294 18.5312 55 18.7018 55 18.912V28.6508C55 28.8611 54.8294 29.0317 54.6191 29.0317H29.3809C29.1706 29.0317 29 28.8611 29 28.6508V18.912C29 18.8069 29.0427 18.7114 29.1117 18.6429C29.1808 18.5738 29.2757 18.5312 29.3809 18.5312C29.6053 18.5312 29.7871 18.3494 29.7871 18.1249V16.3983C29.7871 16.2861 29.7414 16.1846 29.6683 16.1114C29.5946 16.0378 29.4931 15.9921 29.3809 15.9921C29.1706 15.9921 29 15.822 29 15.6112V10.8784C29 10.6682 29.1706 10.4976 29.3809 10.4976H54.6191C54.8294 10.4976 55 10.6682 55 10.8784V15.6112C55 15.822 54.8294 15.9921 54.6191 15.9921C54.3947 15.9921 54.2129 16.1744 54.2129 16.3983Z" fill="#56788B"/>
<path d="M54.2129 16.3983V18.1249C54.2129 18.3494 54.3947 18.5312 54.6191 18.5312C54.8294 18.5312 55 18.7018 55 18.912V28.6508C55 28.8611 54.8294 29.0317 54.6191 29.0317H29.3809C29.1706 29.0317 29 28.8611 29 28.6508V28.0161H53.6035C53.8137 28.0161 53.9844 27.8454 53.9844 27.6352V18.912C53.9844 18.6992 53.8097 18.5271 53.5959 18.5312C53.3745 18.5357 53.1973 18.3463 53.1973 18.1249V16.3983C53.1973 16.1764 53.376 15.9951 53.5979 15.9921C53.8097 15.989 53.9844 15.8291 53.9844 15.6178V10.8784C53.9844 10.6682 53.8137 10.4976 53.6035 10.4976H54.6191C54.8294 10.4976 55 10.6682 55 10.8784V15.6112C55 15.822 54.8294 15.9921 54.6191 15.9921C54.3947 15.9921 54.2129 16.1744 54.2129 16.3983Z" fill="#415E6F"/>
<path d="M52.2832 12.4019V26.0503C52.2832 26.1514 52.2431 26.2479 52.1715 26.3195L51.0944 27.3965C51.0228 27.4681 50.9263 27.5083 50.8253 27.5083H33.1747C33.0737 27.5083 32.9772 27.4681 32.9056 27.3965L31.8285 26.3195C31.7569 26.2479 31.7168 26.1514 31.7168 26.0503V12.4019C31.7168 12.1911 31.8874 12.021 32.0977 12.021H51.9023C52.1126 12.021 52.2832 12.1911 52.2832 12.4019Z" fill="#99E7FA"/>
<path d="M44.5391 29.7542H39.4609C39.2506 29.7542 39.0801 29.9247 39.0801 30.135C39.0801 30.3453 39.2506 30.5159 39.4609 30.5159H44.5391C44.7494 30.5159 44.9199 30.3453 44.9199 30.135C44.9199 29.9247 44.7494 29.7542 44.5391 29.7542Z" fill="#415E6F"/>
<path d="M48.6016 31.2383H35.3984C35.1881 31.2383 35.0176 31.4088 35.0176 31.6191C35.0176 31.8295 35.1881 32 35.3984 32H48.6016C48.8119 32 48.9824 31.8295 48.9824 31.6191C48.9824 31.4088 48.8119 31.2383 48.6016 31.2383Z" fill="#415E6F"/>
<path d="M50.7598 12.021V25.3805C50.7598 25.8015 50.4185 26.1433 49.997 26.1433H34.003C33.582 26.1433 33.2402 25.8015 33.2402 25.3805V12.021H50.7598Z" fill="#4DD4F7"/>
<path d="M49.373 24.3578H42.3906V22.9204H41.6289V24.3578H34.6465C34.4361 24.3578 34.2656 24.5283 34.2656 24.7387C34.2656 24.949 34.4361 25.1195 34.6465 25.1195H49.373C49.5834 25.1195 49.7539 24.949 49.7539 24.7387C49.7539 24.5283 49.5834 24.3578 49.373 24.3578Z" fill="#56788B"/>
<path d="M48.7285 16.8994V18.4229C48.7285 18.6331 48.5579 18.8037 48.3477 18.8037H35.6523C35.4421 18.8037 35.2715 18.6331 35.2715 18.4229V16.8994C35.2715 16.6892 35.4421 16.5186 35.6523 16.5186H48.3477C48.5579 16.5186 48.7285 16.6892 48.7285 16.8994Z" fill="#B9CFDF"/>
<path d="M48.7285 16.8994V18.4229C48.7285 18.6331 48.5579 18.8037 48.3477 18.8037H47.332C47.5423 18.8037 47.7129 18.6331 47.7129 18.4229V16.8994C47.7129 16.6892 47.5423 16.5186 47.332 16.5186H48.3477C48.5579 16.5186 48.7285 16.6892 48.7285 16.8994Z" fill="#90ABBD"/>
<path d="M49.7441 18.4226V22.9203C49.7441 23.1305 49.5735 23.3012 49.3633 23.3012H34.6367C34.4265 23.3012 34.2559 23.1305 34.2559 22.9203V18.4226C34.2559 18.2124 34.4265 18.0417 34.6367 18.0417H49.3633C49.5735 18.0417 49.7441 18.2124 49.7441 18.4226Z" fill="#EEF0F5"/>
<path d="M49.7441 18.4226V22.9203C49.7441 23.1305 49.5735 23.3012 49.3633 23.3012H34.6367C34.4265 23.3012 34.2559 23.1305 34.2559 22.9203V22.2855H48.3477C48.5579 22.2855 48.7285 22.1149 48.7285 21.9047V18.4226C48.7285 18.2124 48.5579 18.0417 48.3477 18.0417H49.3633C49.5735 18.0417 49.7441 18.2124 49.7441 18.4226Z" fill="#DAE1EA"/>
<path d="M37.6899 19.6558H36.1665C36.0263 19.6558 35.9126 19.7695 35.9126 19.9097V21.4331C35.9126 21.5733 36.0263 21.687 36.1665 21.687H37.6899C37.8301 21.687 37.9438 21.5733 37.9438 21.4331V19.9097C37.9438 19.7695 37.8301 19.6558 37.6899 19.6558Z" fill="#00CEC8"/>
<path d="M40.7368 19.6558H39.2134C39.0732 19.6558 38.9595 19.7695 38.9595 19.9097V21.4331C38.9595 21.5733 39.0732 21.687 39.2134 21.687H40.7368C40.877 21.687 40.9907 21.5733 40.9907 21.4331V19.9097C40.9907 19.7695 40.877 19.6558 40.7368 19.6558Z" fill="#FF4656"/>
<path d="M42.793 21.0522C43.0033 21.0522 43.1738 20.8817 43.1738 20.6714C43.1738 20.461 43.0033 20.2905 42.793 20.2905C42.5826 20.2905 42.4121 20.461 42.4121 20.6714C42.4121 20.8817 42.5826 21.0522 42.793 21.0522Z" fill="#FF4656"/>
<path d="M45.002 21.0522C45.2123 21.0522 45.3828 20.8817 45.3828 20.6714C45.3828 20.461 45.2123 20.2905 45.002 20.2905C44.7916 20.2905 44.6211 20.461 44.6211 20.6714C44.6211 20.8817 44.7916 21.0522 45.002 21.0522Z" fill="#90ABBD"/>
<path d="M47.2109 21.0522C47.4213 21.0522 47.5918 20.8817 47.5918 20.6714C47.5918 20.461 47.4213 20.2905 47.2109 20.2905C47.0006 20.2905 46.8301 20.461 46.8301 20.6714C46.8301 20.8817 47.0006 21.0522 47.2109 21.0522Z" fill="#00CEC8"/>
<path d="M47.2109 21.0532C47.4213 21.0532 47.5918 20.8827 47.5918 20.6724C47.5918 20.462 47.4213 20.2915 47.2109 20.2915C47.0006 20.2915 46.8301 20.462 46.8301 20.6724C46.8301 20.8827 47.0006 21.0532 47.2109 21.0532Z" fill="#00CEC8"/>
<path d="M48.7285 10.8784V12.4019C48.7285 12.6121 48.5579 12.7827 48.3477 12.7827H35.6523C35.4421 12.7827 35.2715 12.6121 35.2715 12.4019V10.8784C35.2715 10.6682 35.4421 10.4976 35.6523 10.4976H48.3477C48.5579 10.4976 48.7285 10.6682 48.7285 10.8784Z" fill="#B9CFDF"/>
<path d="M48.7285 10.8784V12.4019C48.7285 12.6121 48.5579 12.7827 48.3477 12.7827H47.332C47.5423 12.7827 47.7129 12.6121 47.7129 12.4019V10.8784C47.7129 10.6682 47.5423 10.4976 47.332 10.4976H48.3477C48.5579 10.4976 48.7285 10.6682 48.7285 10.8784Z" fill="#90ABBD"/>
<path d="M49.7441 12.4016V16.8993C49.7441 17.1095 49.5735 17.2802 49.3633 17.2802H34.6367C34.4265 17.2802 34.2559 17.1095 34.2559 16.8993V12.4016C34.2559 12.1914 34.4265 12.0208 34.6367 12.0208H49.3633C49.5735 12.0208 49.7441 12.1914 49.7441 12.4016Z" fill="#EEF0F5"/>
<path d="M49.7441 12.4016V16.8993C49.7441 17.1095 49.5735 17.2802 49.3633 17.2802H34.6367C34.4265 17.2802 34.2559 17.1095 34.2559 16.8993V16.2645H48.3477C48.5579 16.2645 48.7285 16.0939 48.7285 15.8837V12.4016C48.7285 12.1914 48.5579 12.0208 48.3477 12.0208H49.3633C49.5735 12.0208 49.7441 12.1914 49.7441 12.4016Z" fill="#DAE1EA"/>
<path d="M37.6899 13.6348H36.1665C36.0263 13.6348 35.9126 13.7485 35.9126 13.8887V15.4121C35.9126 15.5523 36.0263 15.666 36.1665 15.666H37.6899C37.8301 15.666 37.9438 15.5523 37.9438 15.4121V13.8887C37.9438 13.7485 37.8301 13.6348 37.6899 13.6348Z" fill="#00CEC8"/>
<path d="M40.7368 13.6348H39.2134C39.0732 13.6348 38.9595 13.7485 38.9595 13.8887V15.4121C38.9595 15.5523 39.0732 15.666 39.2134 15.666H40.7368C40.877 15.666 40.9907 15.5523 40.9907 15.4121V13.8887C40.9907 13.7485 40.877 13.6348 40.7368 13.6348Z" fill="#FF4656"/>
<path d="M42.793 15.0312C43.0033 15.0312 43.1738 14.8607 43.1738 14.6504C43.1738 14.44 43.0033 14.2695 42.793 14.2695C42.5826 14.2695 42.4121 14.44 42.4121 14.6504C42.4121 14.8607 42.5826 15.0312 42.793 15.0312Z" fill="#FF4656"/>
<path d="M45.002 15.0312C45.2123 15.0312 45.3828 14.8607 45.3828 14.6504C45.3828 14.44 45.2123 14.2695 45.002 14.2695C44.7916 14.2695 44.6211 14.44 44.6211 14.6504C44.6211 14.8607 44.7916 15.0312 45.002 15.0312Z" fill="#90ABBD"/>
<path d="M47.2109 15.0312C47.4213 15.0312 47.5918 14.8607 47.5918 14.6504C47.5918 14.44 47.4213 14.2695 47.2109 14.2695C47.0006 14.2695 46.8301 14.44 46.8301 14.6504C46.8301 14.8607 47.0006 15.0312 47.2109 15.0312Z" fill="#00CEC8"/>
<path d="M47.2109 15.0322C47.4213 15.0322 47.5918 14.8617 47.5918 14.6514C47.5918 14.441 47.4213 14.2705 47.2109 14.2705C47.0006 14.2705 46.8301 14.441 46.8301 14.6514C46.8301 14.8617 47.0006 15.0322 47.2109 15.0322Z" fill="#00CEC8"/>
<path d="M49.7441 6.38086V10.8786C49.7441 11.0888 49.5735 11.2594 49.3633 11.2594H34.6367C34.4265 11.2594 34.2559 11.0888 34.2559 10.8786V6.38086C34.2559 6.17063 34.4265 6 34.6367 6H49.3633C49.5735 6 49.7441 6.17063 49.7441 6.38086Z" fill="#EEF0F5"/>
<path d="M49.7441 6.38086V10.8786C49.7441 11.0888 49.5735 11.2594 49.3633 11.2594H34.6367C34.4265 11.2594 34.2559 11.0888 34.2559 10.8786V10.2438H48.3477C48.5579 10.2438 48.7285 10.0732 48.7285 9.86293V6.38086C48.7285 6.17063 48.5579 6 48.3477 6H49.3633C49.5735 6 49.7441 6.17063 49.7441 6.38086Z" fill="#DAE1EA"/>
<path d="M37.6899 7.61401H36.1665C36.0263 7.61401 35.9126 7.72771 35.9126 7.86792V9.39131C35.9126 9.53151 36.0263 9.64521 36.1665 9.64521H37.6899C37.8301 9.64521 37.9438 9.53151 37.9438 9.39131V7.86792C37.9438 7.72766 37.8301 7.61401 37.6899 7.61401Z" fill="#00CEC8"/>
<path d="M40.7368 7.61401H39.2134C39.0732 7.61401 38.9595 7.72771 38.9595 7.86792V9.39131C38.9595 9.53151 39.0732 9.64521 39.2134 9.64521H40.7368C40.877 9.64521 40.9907 9.53151 40.9907 9.39131V7.86792C40.9907 7.72766 40.877 7.61401 40.7368 7.61401Z" fill="#FF4656"/>
<path d="M42.793 9.0105C43.0033 9.0105 43.1738 8.83998 43.1738 8.62964C43.1738 8.4193 43.0033 8.24878 42.793 8.24878C42.5826 8.24878 42.4121 8.4193 42.4121 8.62964C42.4121 8.83998 42.5826 9.0105 42.793 9.0105Z" fill="#FF4656"/>
<path d="M45.002 9.0105C45.2123 9.0105 45.3828 8.83998 45.3828 8.62964C45.3828 8.4193 45.2123 8.24878 45.002 8.24878C44.7916 8.24878 44.6211 8.4193 44.6211 8.62964C44.6211 8.83998 44.7916 9.0105 45.002 9.0105Z" fill="#90ABBD"/>
<path d="M47.2109 9.0105C47.4213 9.0105 47.5918 8.83998 47.5918 8.62964C47.5918 8.4193 47.4213 8.24878 47.2109 8.24878C47.0006 8.24878 46.8301 8.4193 46.8301 8.62964C46.8301 8.83998 47.0006 9.0105 47.2109 9.0105Z" fill="#00CEC8"/>
<path d="M47.2109 9.01147C47.4213 9.01147 47.5918 8.84096 47.5918 8.63062C47.5918 8.42027 47.4213 8.24976 47.2109 8.24976C47.0006 8.24976 46.8301 8.42027 46.8301 8.63062C46.8301 8.84096 47.0006 9.01147 47.2109 9.01147Z" fill="#00CEC8"/>
</svg>
