<svg width="38" height="38" viewBox="0 0 38 38" fill="none" xmlns="http://www.w3.org/2000/svg">
<path d="M33 0H5C2.23858 0 0 2.23858 0 5V33C0 35.7614 2.23858 38 5 38H33C35.7614 38 38 35.7614 38 33V5C38 2.23858 35.7614 0 33 0Z" fill="#00BCD4"/>
<path d="M13.0938 26.875C12.6487 26.875 12.2137 26.743 11.8437 26.4958C11.4737 26.2486 11.1853 25.8972 11.015 25.486C10.8447 25.0749 10.8002 24.6225 10.887 24.186C10.9738 23.7496 11.1881 23.3487 11.5028 23.034C11.8174 22.7193 12.2183 22.505 12.6548 22.4182C13.0913 22.3314 13.5437 22.376 13.9548 22.5463C14.3659 22.7166 14.7173 23.005 14.9646 23.375C15.2118 23.745 15.3438 24.18 15.3438 24.625C15.3431 25.2215 15.1058 25.7934 14.684 26.2153C14.2622 26.6371 13.6903 26.8743 13.0938 26.875ZM13.0938 23.5C12.8712 23.5 12.6537 23.566 12.4687 23.6896C12.2837 23.8132 12.1395 23.9889 12.0544 24.1945C11.9692 24.4 11.947 24.6262 11.9904 24.8445C12.0338 25.0627 12.1409 25.2632 12.2983 25.4205C12.4556 25.5778 12.656 25.685 12.8743 25.7284C13.0925 25.7718 13.3187 25.7495 13.5243 25.6644C13.7298 25.5792 13.9055 25.435 14.0292 25.25C14.1528 25.065 14.2188 24.8475 14.2188 24.625C14.2184 24.3267 14.0998 24.0408 13.8889 23.8299C13.678 23.619 13.392 23.5003 13.0938 23.5Z" fill="white"/>
<path d="M19 26.875C18.555 26.875 18.12 26.743 17.75 26.4958C17.38 26.2486 17.0916 25.8972 16.9213 25.486C16.751 25.0749 16.7064 24.6225 16.7932 24.186C16.8801 23.7496 17.0943 23.3487 17.409 23.034C17.7237 22.7193 18.1246 22.505 18.561 22.4182C18.9975 22.3314 19.4499 22.376 19.861 22.5463C20.2722 22.7166 20.6236 23.005 20.8708 23.375C21.118 23.745 21.25 24.18 21.25 24.625C21.2493 25.2215 21.0121 25.7934 20.5903 26.2153C20.1684 26.6371 19.5965 26.8743 19 26.875ZM19 23.5C18.7775 23.5 18.56 23.566 18.375 23.6896C18.19 23.8132 18.0458 23.9889 17.9606 24.1945C17.8755 24.4 17.8532 24.6262 17.8966 24.8445C17.94 25.0627 18.0472 25.2632 18.2045 25.4205C18.3618 25.5778 18.5623 25.685 18.7805 25.7284C18.9988 25.7718 19.225 25.7495 19.4305 25.6644C19.6361 25.5792 19.8118 25.435 19.9354 25.25C20.059 25.065 20.125 24.8475 20.125 24.625C20.1247 24.3267 20.006 24.0408 19.7951 23.8299C19.5842 23.619 19.2983 23.5003 19 23.5Z" fill="white"/>
<path d="M24.9063 22.375C25.3513 22.375 25.7863 22.507 26.1563 22.7542C26.5263 23.0014 26.8148 23.3528 26.9851 23.764C27.1554 24.1751 27.1999 24.6275 27.1131 25.064C27.0263 25.5004 26.8119 25.9013 26.4972 26.216C26.1826 26.5307 25.7817 26.7449 25.3452 26.8318C24.9087 26.9186 24.4563 26.874 24.0452 26.7037C23.6341 26.5334 23.2827 26.245 23.0354 25.875C22.7882 25.505 22.6562 25.07 22.6562 24.625C22.6569 24.0285 22.8942 23.4566 23.316 23.0347C23.7378 22.6129 24.3097 22.3757 24.9063 22.375ZM24.9063 25.75C25.1288 25.75 25.3463 25.684 25.5313 25.5604C25.7163 25.4368 25.8606 25.2611 25.9457 25.0555C26.0309 24.85 26.053 24.6238 26.0096 24.4055C25.9662 24.1873 25.8591 23.9868 25.7017 23.8295C25.5444 23.6722 25.344 23.565 25.1257 23.5216C24.9075 23.4782 24.6813 23.5005 24.4757 23.5856C24.2702 23.6708 24.0945 23.815 23.9708 24C23.8472 24.185 23.7813 24.4025 23.7813 24.625C23.7816 24.9233 23.9002 25.2092 24.1111 25.4201C24.322 25.631 24.608 25.7497 24.9063 25.75Z" fill="white"/>
<path d="M13.0938 21.25C12.6487 21.25 12.2137 21.118 11.8437 20.8708C11.4737 20.6236 11.1853 20.2722 11.015 19.861C10.8447 19.4499 10.8002 18.9975 10.887 18.561C10.9738 18.1246 11.1881 17.7237 11.5028 17.409C11.8174 17.0943 12.2183 16.88 12.6548 16.7932C13.0913 16.7064 13.5437 16.751 13.9548 16.9213C14.3659 17.0916 14.7173 17.38 14.9646 17.75C15.2118 18.12 15.3438 18.555 15.3438 19C15.3431 19.5965 15.1058 20.1684 14.684 20.5903C14.2622 21.0121 13.6903 21.2493 13.0938 21.25ZM13.0938 17.875C12.8712 17.875 12.6537 17.941 12.4687 18.0646C12.2837 18.1882 12.1395 18.3639 12.0544 18.5695C11.9692 18.775 11.947 19.0012 11.9904 19.2195C12.0338 19.4377 12.1409 19.6382 12.2983 19.7955C12.4556 19.9528 12.656 20.06 12.8743 20.1034C13.0925 20.1468 13.3187 20.1245 13.5243 20.0394C13.7298 19.9542 13.9055 19.81 14.0292 19.625C14.1528 19.44 14.2188 19.2225 14.2188 19C14.2184 18.7017 14.0998 18.4158 13.8889 18.2049C13.678 17.994 13.392 17.8753 13.0938 17.875Z" fill="white"/>
<path d="M19 21.25C18.555 21.25 18.12 21.118 17.75 20.8708C17.38 20.6236 17.0916 20.2722 16.9213 19.861C16.751 19.4499 16.7064 18.9975 16.7932 18.561C16.8801 18.1246 17.0943 17.7237 17.409 17.409C17.7237 17.0943 18.1246 16.88 18.561 16.7932C18.9975 16.7064 19.4499 16.751 19.861 16.9213C20.2722 17.0916 20.6236 17.38 20.8708 17.75C21.118 18.12 21.25 18.555 21.25 19C21.2493 19.5965 21.0121 20.1684 20.5903 20.5903C20.1684 21.0121 19.5965 21.2493 19 21.25ZM19 17.875C18.7775 17.875 18.56 17.941 18.375 18.0646C18.19 18.1882 18.0458 18.3639 17.9606 18.5695C17.8755 18.775 17.8532 19.0012 17.8966 19.2195C17.94 19.4377 18.0472 19.6382 18.2045 19.7955C18.3618 19.9528 18.5623 20.06 18.7805 20.1034C18.9988 20.1468 19.225 20.1245 19.4305 20.0394C19.6361 19.9542 19.8118 19.81 19.9354 19.625C20.059 19.44 20.125 19.2225 20.125 19C20.1247 18.7017 20.006 18.4158 19.7951 18.2049C19.5842 17.994 19.2983 17.8753 19 17.875Z" fill="white"/>
<path d="M24.9063 21.25C24.4612 21.25 24.0262 21.118 23.6562 20.8708C23.2862 20.6236 22.9978 20.2722 22.8275 19.861C22.6572 19.4499 22.6127 18.9975 22.6995 18.561C22.7863 18.1246 23.0006 17.7237 23.3153 17.409C23.6299 17.0943 24.0308 16.88 24.4673 16.7932C24.9038 16.7064 25.3562 16.751 25.7673 16.9213C26.1784 17.0916 26.5298 17.38 26.7771 17.75C27.0243 18.12 27.1563 18.555 27.1563 19C27.1556 19.5965 26.9183 20.1684 26.4965 20.5903C26.0747 21.0121 25.5028 21.2493 24.9063 21.25ZM24.9063 17.875C24.6837 17.875 24.4662 17.941 24.2812 18.0646C24.0962 18.1882 23.952 18.3639 23.8669 18.5695C23.7817 18.775 23.7595 19.0012 23.8029 19.2195C23.8463 19.4377 23.9534 19.6382 24.1108 19.7955C24.2681 19.9528 24.4685 20.06 24.6868 20.1034C24.905 20.1468 25.1312 20.1245 25.3368 20.0394C25.5423 19.9542 25.718 19.81 25.8417 19.625C25.9653 19.44 26.0313 19.2225 26.0313 19C26.0309 18.7017 25.9123 18.4158 25.7014 18.2049C25.4905 17.994 25.2045 17.8753 24.9063 17.875Z" fill="white"/>
<path d="M13.0938 15.625C12.6487 15.625 12.2137 15.493 11.8437 15.2458C11.4737 14.9986 11.1853 14.6472 11.015 14.236C10.8447 13.8249 10.8002 13.3725 10.887 12.936C10.9738 12.4996 11.1881 12.0987 11.5028 11.784C11.8174 11.4693 12.2183 11.255 12.6548 11.1682C13.0913 11.0814 13.5437 11.126 13.9548 11.2963C14.3659 11.4666 14.7173 11.755 14.9646 12.125C15.2118 12.495 15.3438 12.93 15.3438 13.375C15.3431 13.9715 15.1058 14.5434 14.684 14.9653C14.2622 15.3871 13.6903 15.6243 13.0938 15.625ZM13.0938 12.25C12.8712 12.25 12.6537 12.316 12.4687 12.4396C12.2837 12.5632 12.1395 12.7389 12.0544 12.9445C11.9692 13.15 11.947 13.3762 11.9904 13.5945C12.0338 13.8127 12.1409 14.0132 12.2983 14.1705C12.4556 14.3278 12.656 14.435 12.8743 14.4784C13.0925 14.5218 13.3187 14.4995 13.5243 14.4144C13.7298 14.3292 13.9055 14.185 14.0292 14C14.1528 13.815 14.2188 13.5975 14.2188 13.375C14.2184 13.0767 14.0998 12.7908 13.8889 12.5799C13.678 12.369 13.392 12.2503 13.0938 12.25Z" fill="white"/>
<path d="M19 15.625C18.555 15.625 18.12 15.493 17.75 15.2458C17.38 14.9986 17.0916 14.6472 16.9213 14.236C16.751 13.8249 16.7064 13.3725 16.7932 12.936C16.8801 12.4996 17.0943 12.0987 17.409 11.784C17.7237 11.4693 18.1246 11.255 18.561 11.1682C18.9975 11.0814 19.4499 11.126 19.861 11.2963C20.2722 11.4666 20.6236 11.755 20.8708 12.125C21.118 12.495 21.25 12.93 21.25 13.375C21.2493 13.9715 21.0121 14.5434 20.5903 14.9653C20.1684 15.3871 19.5965 15.6243 19 15.625ZM19 12.25C18.7775 12.25 18.56 12.316 18.375 12.4396C18.19 12.5632 18.0458 12.7389 17.9606 12.9445C17.8755 13.15 17.8532 13.3762 17.8966 13.5945C17.94 13.8127 18.0472 14.0132 18.2045 14.1705C18.3618 14.3278 18.5623 14.435 18.7805 14.4784C18.9988 14.5218 19.225 14.4995 19.4305 14.4144C19.6361 14.3292 19.8118 14.185 19.9354 14C20.059 13.815 20.125 13.5975 20.125 13.375C20.1247 13.0767 20.006 12.7908 19.7951 12.5799C19.5842 12.369 19.2983 12.2503 19 12.25Z" fill="white"/>
<path d="M24.9063 15.625C24.4612 15.625 24.0262 15.493 23.6562 15.2458C23.2862 14.9986 22.9978 14.6472 22.8275 14.236C22.6572 13.8249 22.6127 13.3725 22.6995 12.936C22.7863 12.4996 23.0006 12.0987 23.3153 11.784C23.6299 11.4693 24.0308 11.255 24.4673 11.1682C24.9038 11.0814 25.3562 11.126 25.7673 11.2963C26.1784 11.4666 26.5298 11.755 26.7771 12.125C27.0243 12.495 27.1563 12.93 27.1563 13.375C27.1556 13.9715 26.9183 14.5434 26.4965 14.9653C26.0747 15.3871 25.5028 15.6243 24.9063 15.625ZM24.9063 12.25C24.6837 12.25 24.4662 12.316 24.2812 12.4396C24.0962 12.5632 23.952 12.7389 23.8669 12.9445C23.7817 13.15 23.7595 13.3762 23.8029 13.5945C23.8463 13.8127 23.9534 14.0132 24.1108 14.1705C24.2681 14.3278 24.4685 14.435 24.6868 14.4784C24.905 14.5218 25.1312 14.4995 25.3368 14.4144C25.5423 14.3292 25.718 14.185 25.8417 14C25.9653 13.815 26.0313 13.5975 26.0313 13.375C26.0309 13.0767 25.9123 12.7908 25.7014 12.5799C25.4905 12.369 25.2045 12.2503 24.9063 12.25Z" fill="white"/>
</svg>
