<svg width="38" height="38" viewBox="0 0 38 38" fill="none" xmlns="http://www.w3.org/2000/svg">
<rect width="38" height="38" rx="5" fill="#4DBD74"/>
<mask id="path-2-outside-1" maskUnits="userSpaceOnUse" x="5.62779" y="5.62762" width="27.4441" height="27.4441" fill="black">
<rect fill="white" x="5.62779" y="5.62762" width="27.4441" height="27.4441"/>
<path d="M25.4555 26.1807C25.7788 25.987 26.0475 25.7144 26.236 25.389C26.4246 25.0636 26.5266 24.6962 26.5324 24.3219L26.5623 22.3316C26.5637 22.2457 26.5469 22.1605 26.5129 22.0817C26.479 22.003 26.4287 21.9324 26.3653 21.8745C26.3019 21.8166 26.2269 21.7728 26.1451 21.746C26.0633 21.7191 25.9766 21.7097 25.8906 21.7185C25.3602 21.7747 24.8307 21.6196 24.418 21.2872C24.0052 20.9549 23.7427 20.4723 23.6878 19.9449C23.6329 19.4175 23.7901 18.8882 24.125 18.4727C24.46 18.0572 24.9455 17.7893 25.4753 17.7275C25.6307 17.7116 25.7873 17.7134 25.942 17.733C26.028 17.7442 26.1157 17.7372 26.1991 17.7122C26.2824 17.6872 26.3597 17.645 26.4257 17.5882C26.4917 17.5314 26.545 17.4614 26.582 17.3829C26.619 17.3043 26.6389 17.2189 26.6403 17.1324L26.6767 14.7109C26.6855 14.1251 26.4604 13.5616 26.0508 13.1443C25.6412 12.727 25.0806 12.49 24.4923 12.4855L22.1209 12.4728C22.1827 11.7267 21.9507 10.9884 21.474 10.414C20.9973 9.83969 20.3133 9.4744 19.5668 9.39549C19.1687 9.35219 18.7651 9.39375 18.3829 9.51741C18.0007 9.64107 17.6486 9.844 17.35 10.1128C17.0506 10.3811 16.8106 10.7085 16.6452 11.0737C16.4799 11.439 16.393 11.8341 16.3901 12.2336C16.3896 12.3032 16.3917 12.3729 16.3965 12.4426L14.4513 12.4322C14.1618 12.4307 13.8744 12.4864 13.6057 12.5959C13.337 12.7054 13.0923 12.8666 12.8857 13.0703C12.6791 13.2739 12.5148 13.516 12.4021 13.7824C12.2894 14.0489 12.2307 14.3345 12.2293 14.6228L12.1589 24.2339C12.1553 24.8166 12.3827 25.3753 12.7917 25.7888C13.2007 26.2023 13.7583 26.4371 14.3434 26.4424L16.0245 26.4513C16.1059 26.4516 16.1866 26.435 16.2614 26.4025C16.3362 26.3699 16.4035 26.3222 16.4588 26.2623C16.5142 26.2025 16.5564 26.1318 16.5828 26.055C16.6092 25.9781 16.6192 25.8967 16.6121 25.816C16.5905 25.5704 16.6208 25.3226 16.7012 25.0885C16.7816 24.8545 16.9102 24.6394 17.0788 24.4572C17.2474 24.2749 17.4522 24.1296 17.68 24.0306C17.9078 23.9316 18.1535 23.881 18.4013 23.8822C18.6492 23.8834 18.8935 23.9363 19.1187 24.0375C19.3439 24.1387 19.5449 24.286 19.7087 24.4698C19.8725 24.6536 19.9956 24.8699 20.0698 25.1047C20.1441 25.3395 20.168 25.5876 20.14 25.833C20.1305 25.9137 20.1381 25.9954 20.1623 26.0727C20.1865 26.15 20.2268 26.2213 20.2806 26.2819C20.3343 26.3425 20.4003 26.3911 20.4744 26.4245C20.5484 26.4579 20.6288 26.4755 20.7103 26.4759L24.3103 26.495C24.713 26.4977 25.1095 26.3889 25.4555 26.1807ZM20.5601 24.1378C20.2444 23.6831 19.7919 23.3404 19.2671 23.1585C18.7422 22.9765 18.1716 22.9646 17.6368 23.1244C17.1019 23.2842 16.6299 23.6076 16.2881 24.0485C15.9463 24.4894 15.752 25.0253 15.733 25.5799L14.3553 25.5724C14.0007 25.569 13.663 25.4264 13.4154 25.1757C13.1677 24.925 13.0303 24.5863 13.0327 24.2332L13.1027 14.6222C13.1033 14.4486 13.1384 14.2766 13.2061 14.1161C13.2737 13.9556 13.3725 13.8098 13.4968 13.6871C13.6211 13.5644 13.7683 13.4672 13.9301 13.4012C14.0918 13.3351 14.2648 13.3016 14.4391 13.3024L16.6857 13.314C16.7752 13.3147 16.864 13.2956 16.9455 13.2581C17.0271 13.2207 17.0994 13.1658 17.1574 13.0973C17.2161 13.0282 17.2589 12.9472 17.2826 12.86C17.3064 12.7728 17.3105 12.6816 17.2947 12.5929C17.2357 12.2597 17.2632 11.9163 17.3746 11.5952C17.4859 11.2742 17.6775 10.986 17.9312 10.7581C18.1388 10.5715 18.3836 10.4307 18.6492 10.345C18.9148 10.2593 19.1952 10.2306 19.4719 10.261C19.7477 10.2906 20.0139 10.3767 20.2539 10.5138C20.494 10.6508 20.7026 10.836 20.8668 11.0576C21.031 11.2792 21.1472 11.5326 21.2082 11.8018C21.2692 12.071 21.2736 12.3503 21.2212 12.6222C21.2044 12.7095 21.2069 12.7993 21.2288 12.8851C21.2506 12.971 21.2912 13.0509 21.3476 13.1191C21.4045 13.1883 21.476 13.244 21.5571 13.2824C21.6382 13.3208 21.7269 13.3409 21.817 13.3412L24.4809 13.3554C24.8373 13.3586 25.1768 13.5024 25.4247 13.7554C25.6726 14.0084 25.8088 14.3499 25.8034 14.7048L25.771 16.8477C25.6451 16.8444 25.5191 16.8491 25.3936 16.8619C24.7428 16.9311 24.1334 17.2194 23.6662 17.6788C23.199 18.1383 22.9021 18.7416 22.8244 19.3888C22.7763 19.791 22.8134 20.1981 22.9334 20.5837C23.0534 20.9694 23.2535 21.325 23.5209 21.6276C23.7883 21.9302 24.1169 22.173 24.4856 22.3404C24.8542 22.5078 25.2547 22.5959 25.661 22.5992C25.6688 22.5993 25.6764 22.5992 25.6841 22.5992L25.6583 24.3155C25.6533 24.6639 25.5098 24.9972 25.2594 25.2426C25.0089 25.488 24.6719 25.6253 24.322 25.6247L21.025 25.6073C21.0209 25.0811 20.859 24.5694 20.5601 24.1378Z"/>
</mask>
<path d="M25.4555 26.1807C25.7788 25.987 26.0475 25.7144 26.236 25.389C26.4246 25.0636 26.5266 24.6962 26.5324 24.3219L26.5623 22.3316C26.5637 22.2457 26.5469 22.1605 26.5129 22.0817C26.479 22.003 26.4287 21.9324 26.3653 21.8745C26.3019 21.8166 26.2269 21.7728 26.1451 21.746C26.0633 21.7191 25.9766 21.7097 25.8906 21.7185C25.3602 21.7747 24.8307 21.6196 24.418 21.2872C24.0052 20.9549 23.7427 20.4723 23.6878 19.9449C23.6329 19.4175 23.7901 18.8882 24.125 18.4727C24.46 18.0572 24.9455 17.7893 25.4753 17.7275C25.6307 17.7116 25.7873 17.7134 25.942 17.733C26.028 17.7442 26.1157 17.7372 26.1991 17.7122C26.2824 17.6872 26.3597 17.645 26.4257 17.5882C26.4917 17.5314 26.545 17.4614 26.582 17.3829C26.619 17.3043 26.6389 17.2189 26.6403 17.1324L26.6767 14.7109C26.6855 14.1251 26.4604 13.5616 26.0508 13.1443C25.6412 12.727 25.0806 12.49 24.4923 12.4855L22.1209 12.4728C22.1827 11.7267 21.9507 10.9884 21.474 10.414C20.9973 9.83969 20.3133 9.4744 19.5668 9.39549C19.1687 9.35219 18.7651 9.39375 18.3829 9.51741C18.0007 9.64107 17.6486 9.844 17.35 10.1128C17.0506 10.3811 16.8106 10.7085 16.6452 11.0737C16.4799 11.439 16.393 11.8341 16.3901 12.2336C16.3896 12.3032 16.3917 12.3729 16.3965 12.4426L14.4513 12.4322C14.1618 12.4307 13.8744 12.4864 13.6057 12.5959C13.337 12.7054 13.0923 12.8666 12.8857 13.0703C12.6791 13.2739 12.5148 13.516 12.4021 13.7824C12.2894 14.0489 12.2307 14.3345 12.2293 14.6228L12.1589 24.2339C12.1553 24.8166 12.3827 25.3753 12.7917 25.7888C13.2007 26.2023 13.7583 26.4371 14.3434 26.4424L16.0245 26.4513C16.1059 26.4516 16.1866 26.435 16.2614 26.4025C16.3362 26.3699 16.4035 26.3222 16.4588 26.2623C16.5142 26.2025 16.5564 26.1318 16.5828 26.055C16.6092 25.9781 16.6192 25.8967 16.6121 25.816C16.5905 25.5704 16.6208 25.3226 16.7012 25.0885C16.7816 24.8545 16.9102 24.6394 17.0788 24.4572C17.2474 24.2749 17.4522 24.1296 17.68 24.0306C17.9078 23.9316 18.1535 23.881 18.4013 23.8822C18.6492 23.8834 18.8935 23.9363 19.1187 24.0375C19.3439 24.1387 19.5449 24.286 19.7087 24.4698C19.8725 24.6536 19.9956 24.8699 20.0698 25.1047C20.1441 25.3395 20.168 25.5876 20.14 25.833C20.1305 25.9137 20.1381 25.9954 20.1623 26.0727C20.1865 26.15 20.2268 26.2213 20.2806 26.2819C20.3343 26.3425 20.4003 26.3911 20.4744 26.4245C20.5484 26.4579 20.6288 26.4755 20.7103 26.4759L24.3103 26.495C24.713 26.4977 25.1095 26.3889 25.4555 26.1807ZM20.5601 24.1378C20.2444 23.6831 19.7919 23.3404 19.2671 23.1585C18.7422 22.9765 18.1716 22.9646 17.6368 23.1244C17.1019 23.2842 16.6299 23.6076 16.2881 24.0485C15.9463 24.4894 15.752 25.0253 15.733 25.5799L14.3553 25.5724C14.0007 25.569 13.663 25.4264 13.4154 25.1757C13.1677 24.925 13.0303 24.5863 13.0327 24.2332L13.1027 14.6222C13.1033 14.4486 13.1384 14.2766 13.2061 14.1161C13.2737 13.9556 13.3725 13.8098 13.4968 13.6871C13.6211 13.5644 13.7683 13.4672 13.9301 13.4012C14.0918 13.3351 14.2648 13.3016 14.4391 13.3024L16.6857 13.314C16.7752 13.3147 16.864 13.2956 16.9455 13.2581C17.0271 13.2207 17.0994 13.1658 17.1574 13.0973C17.2161 13.0282 17.2589 12.9472 17.2826 12.86C17.3064 12.7728 17.3105 12.6816 17.2947 12.5929C17.2357 12.2597 17.2632 11.9163 17.3746 11.5952C17.4859 11.2742 17.6775 10.986 17.9312 10.7581C18.1388 10.5715 18.3836 10.4307 18.6492 10.345C18.9148 10.2593 19.1952 10.2306 19.4719 10.261C19.7477 10.2906 20.0139 10.3767 20.2539 10.5138C20.494 10.6508 20.7026 10.836 20.8668 11.0576C21.031 11.2792 21.1472 11.5326 21.2082 11.8018C21.2692 12.071 21.2736 12.3503 21.2212 12.6222C21.2044 12.7095 21.2069 12.7993 21.2288 12.8851C21.2506 12.971 21.2912 13.0509 21.3476 13.1191C21.4045 13.1883 21.476 13.244 21.5571 13.2824C21.6382 13.3208 21.7269 13.3409 21.817 13.3412L24.4809 13.3554C24.8373 13.3586 25.1768 13.5024 25.4247 13.7554C25.6726 14.0084 25.8088 14.3499 25.8034 14.7048L25.771 16.8477C25.6451 16.8444 25.5191 16.8491 25.3936 16.8619C24.7428 16.9311 24.1334 17.2194 23.6662 17.6788C23.199 18.1383 22.9021 18.7416 22.8244 19.3888C22.7763 19.791 22.8134 20.1981 22.9334 20.5837C23.0534 20.9694 23.2535 21.325 23.5209 21.6276C23.7883 21.9302 24.1169 22.173 24.4856 22.3404C24.8542 22.5078 25.2547 22.5959 25.661 22.5992C25.6688 22.5993 25.6764 22.5992 25.6841 22.5992L25.6583 24.3155C25.6533 24.6639 25.5098 24.9972 25.2594 25.2426C25.0089 25.488 24.6719 25.6253 24.322 25.6247L21.025 25.6073C21.0209 25.0811 20.859 24.5694 20.5601 24.1378Z" fill="white"/>
<path d="M25.4555 26.1807C25.7788 25.987 26.0475 25.7144 26.236 25.389C26.4246 25.0636 26.5266 24.6962 26.5324 24.3219L26.5623 22.3316C26.5637 22.2457 26.5469 22.1605 26.5129 22.0817C26.479 22.003 26.4287 21.9324 26.3653 21.8745C26.3019 21.8166 26.2269 21.7728 26.1451 21.746C26.0633 21.7191 25.9766 21.7097 25.8906 21.7185C25.3602 21.7747 24.8307 21.6196 24.418 21.2872C24.0052 20.9549 23.7427 20.4723 23.6878 19.9449C23.6329 19.4175 23.7901 18.8882 24.125 18.4727C24.46 18.0572 24.9455 17.7893 25.4753 17.7275C25.6307 17.7116 25.7873 17.7134 25.942 17.733C26.028 17.7442 26.1157 17.7372 26.1991 17.7122C26.2824 17.6872 26.3597 17.645 26.4257 17.5882C26.4917 17.5314 26.545 17.4614 26.582 17.3829C26.619 17.3043 26.6389 17.2189 26.6403 17.1324L26.6767 14.7109C26.6855 14.1251 26.4604 13.5616 26.0508 13.1443C25.6412 12.727 25.0806 12.49 24.4923 12.4855L22.1209 12.4728C22.1827 11.7267 21.9507 10.9884 21.474 10.414C20.9973 9.83969 20.3133 9.4744 19.5668 9.39549C19.1687 9.35219 18.7651 9.39375 18.3829 9.51741C18.0007 9.64107 17.6486 9.844 17.35 10.1128C17.0506 10.3811 16.8106 10.7085 16.6452 11.0737C16.4799 11.439 16.393 11.8341 16.3901 12.2336C16.3896 12.3032 16.3917 12.3729 16.3965 12.4426L14.4513 12.4322C14.1618 12.4307 13.8744 12.4864 13.6057 12.5959C13.337 12.7054 13.0923 12.8666 12.8857 13.0703C12.6791 13.2739 12.5148 13.516 12.4021 13.7824C12.2894 14.0489 12.2307 14.3345 12.2293 14.6228L12.1589 24.2339C12.1553 24.8166 12.3827 25.3753 12.7917 25.7888C13.2007 26.2023 13.7583 26.4371 14.3434 26.4424L16.0245 26.4513C16.1059 26.4516 16.1866 26.435 16.2614 26.4025C16.3362 26.3699 16.4035 26.3222 16.4588 26.2623C16.5142 26.2025 16.5564 26.1318 16.5828 26.055C16.6092 25.9781 16.6192 25.8967 16.6121 25.816C16.5905 25.5704 16.6208 25.3226 16.7012 25.0885C16.7816 24.8545 16.9102 24.6394 17.0788 24.4572C17.2474 24.2749 17.4522 24.1296 17.68 24.0306C17.9078 23.9316 18.1535 23.881 18.4013 23.8822C18.6492 23.8834 18.8935 23.9363 19.1187 24.0375C19.3439 24.1387 19.5449 24.286 19.7087 24.4698C19.8725 24.6536 19.9956 24.8699 20.0698 25.1047C20.1441 25.3395 20.168 25.5876 20.14 25.833C20.1305 25.9137 20.1381 25.9954 20.1623 26.0727C20.1865 26.15 20.2268 26.2213 20.2806 26.2819C20.3343 26.3425 20.4003 26.3911 20.4744 26.4245C20.5484 26.4579 20.6288 26.4755 20.7103 26.4759L24.3103 26.495C24.713 26.4977 25.1095 26.3889 25.4555 26.1807ZM20.5601 24.1378C20.2444 23.6831 19.7919 23.3404 19.2671 23.1585C18.7422 22.9765 18.1716 22.9646 17.6368 23.1244C17.1019 23.2842 16.6299 23.6076 16.2881 24.0485C15.9463 24.4894 15.752 25.0253 15.733 25.5799L14.3553 25.5724C14.0007 25.569 13.663 25.4264 13.4154 25.1757C13.1677 24.925 13.0303 24.5863 13.0327 24.2332L13.1027 14.6222C13.1033 14.4486 13.1384 14.2766 13.2061 14.1161C13.2737 13.9556 13.3725 13.8098 13.4968 13.6871C13.6211 13.5644 13.7683 13.4672 13.9301 13.4012C14.0918 13.3351 14.2648 13.3016 14.4391 13.3024L16.6857 13.314C16.7752 13.3147 16.864 13.2956 16.9455 13.2581C17.0271 13.2207 17.0994 13.1658 17.1574 13.0973C17.2161 13.0282 17.2589 12.9472 17.2826 12.86C17.3064 12.7728 17.3105 12.6816 17.2947 12.5929C17.2357 12.2597 17.2632 11.9163 17.3746 11.5952C17.4859 11.2742 17.6775 10.986 17.9312 10.7581C18.1388 10.5715 18.3836 10.4307 18.6492 10.345C18.9148 10.2593 19.1952 10.2306 19.4719 10.261C19.7477 10.2906 20.0139 10.3767 20.2539 10.5138C20.494 10.6508 20.7026 10.836 20.8668 11.0576C21.031 11.2792 21.1472 11.5326 21.2082 11.8018C21.2692 12.071 21.2736 12.3503 21.2212 12.6222C21.2044 12.7095 21.2069 12.7993 21.2288 12.8851C21.2506 12.971 21.2912 13.0509 21.3476 13.1191C21.4045 13.1883 21.476 13.244 21.5571 13.2824C21.6382 13.3208 21.7269 13.3409 21.817 13.3412L24.4809 13.3554C24.8373 13.3586 25.1768 13.5024 25.4247 13.7554C25.6726 14.0084 25.8088 14.3499 25.8034 14.7048L25.771 16.8477C25.6451 16.8444 25.5191 16.8491 25.3936 16.8619C24.7428 16.9311 24.1334 17.2194 23.6662 17.6788C23.199 18.1383 22.9021 18.7416 22.8244 19.3888C22.7763 19.791 22.8134 20.1981 22.9334 20.5837C23.0534 20.9694 23.2535 21.325 23.5209 21.6276C23.7883 21.9302 24.1169 22.173 24.4856 22.3404C24.8542 22.5078 25.2547 22.5959 25.661 22.5992C25.6688 22.5993 25.6764 22.5992 25.6841 22.5992L25.6583 24.3155C25.6533 24.6639 25.5098 24.9972 25.2594 25.2426C25.0089 25.488 24.6719 25.6253 24.322 25.6247L21.025 25.6073C21.0209 25.0811 20.859 24.5694 20.5601 24.1378Z" stroke="white" stroke-width="0.1" mask="url(#path-2-outside-1)"/>
</svg>
