<svg width="52" height="52" viewBox="0 0 52 52" fill="none" xmlns="http://www.w3.org/2000/svg">
<path d="M46 0H6C2.68629 0 0 2.68629 0 6V46C0 49.3137 2.68629 52 6 52H46C49.3137 52 52 49.3137 52 46V6C52 2.68629 49.3137 0 46 0Z" fill="#E0F7FA"/>
<path d="M16.8125 38.25C16.1203 38.25 15.4436 38.0447 14.868 37.6601C14.2924 37.2756 13.8438 36.7289 13.5789 36.0894C13.314 35.4499 13.2447 34.7461 13.3798 34.0672C13.5148 33.3883 13.8481 32.7646 14.3376 32.2751C14.8271 31.7856 15.4508 31.4523 16.1297 31.3173C16.8086 31.1822 17.5124 31.2515 18.1519 31.5164C18.7914 31.7813 19.3381 32.2299 19.7226 32.8055C20.1072 33.3811 20.3125 34.0578 20.3125 34.75C20.3115 35.6779 19.9424 36.5676 19.2862 37.2237C18.6301 37.8799 17.7404 38.249 16.8125 38.25ZM16.8125 33C16.4664 33 16.128 33.1026 15.8403 33.2949C15.5525 33.4872 15.3282 33.7605 15.1957 34.0803C15.0633 34.4001 15.0286 34.7519 15.0961 35.0914C15.1637 35.4309 15.3303 35.7427 15.5751 35.9874C15.8198 36.2322 16.1316 36.3989 16.4711 36.4664C16.8106 36.5339 17.1624 36.4992 17.4822 36.3668C17.802 36.2343 18.0753 36.01 18.2676 35.7222C18.4599 35.4345 18.5625 35.0961 18.5625 34.75C18.562 34.286 18.3774 33.8412 18.0494 33.5131C17.7213 33.1851 17.2765 33.0005 16.8125 33Z" fill="#00BCD4"/>
<path d="M26 38.25C25.3078 38.25 24.6311 38.0447 24.0555 37.6601C23.4799 37.2756 23.0313 36.7289 22.7664 36.0894C22.5015 35.4499 22.4322 34.7461 22.5673 34.0672C22.7023 33.3883 23.0356 32.7646 23.5251 32.2751C24.0146 31.7856 24.6383 31.4523 25.3172 31.3173C25.9961 31.1822 26.6999 31.2515 27.3394 31.5164C27.9789 31.7813 28.5256 32.2299 28.9101 32.8055C29.2947 33.3811 29.5 34.0578 29.5 34.75C29.499 35.6779 29.1299 36.5676 28.4737 37.2237C27.8176 37.8799 26.9279 38.249 26 38.25ZM26 33C25.6539 33 25.3155 33.1026 25.0278 33.2949C24.74 33.4872 24.5157 33.7605 24.3832 34.0803C24.2508 34.4001 24.2161 34.7519 24.2836 35.0914C24.3512 35.4309 24.5178 35.7427 24.7626 35.9874C25.0073 36.2322 25.3191 36.3989 25.6586 36.4664C25.9981 36.5339 26.3499 36.4992 26.6697 36.3668C26.9895 36.2343 27.2628 36.01 27.4551 35.7222C27.6474 35.4345 27.75 35.0961 27.75 34.75C27.7495 34.286 27.5649 33.8412 27.2369 33.5131C26.9088 33.1851 26.464 33.0005 26 33Z" fill="#00BCD4"/>
<path d="M35.1875 31.25C35.8797 31.25 36.5564 31.4553 37.132 31.8399C37.7076 32.2244 38.1562 32.7711 38.4211 33.4106C38.686 34.0501 38.7553 34.7539 38.6202 35.4328C38.4852 36.1117 38.1519 36.7354 37.6624 37.2249C37.1729 37.7144 36.5492 38.0477 35.8703 38.1827C35.1914 38.3178 34.4876 38.2485 33.8481 37.9836C33.2086 37.7187 32.6619 37.2701 32.2774 36.6945C31.8928 36.1189 31.6875 35.4422 31.6875 34.75C31.6885 33.8221 32.0576 32.9324 32.7138 32.2763C33.3699 31.6201 34.2596 31.251 35.1875 31.25ZM35.1875 36.5C35.5336 36.5 35.872 36.3974 36.1597 36.2051C36.4475 36.0128 36.6718 35.7395 36.8043 35.4197C36.9367 35.0999 36.9714 34.7481 36.9039 34.4086C36.8364 34.0691 36.6697 33.7573 36.4249 33.5126C36.1802 33.2678 35.8684 33.1011 35.5289 33.0336C35.1894 32.9661 34.8376 33.0008 34.5178 33.1332C34.198 33.2657 33.9247 33.49 33.7324 33.7778C33.5401 34.0655 33.4375 34.4039 33.4375 34.75C33.438 35.214 33.6226 35.6588 33.9506 35.9869C34.2787 36.3149 34.7235 36.4995 35.1875 36.5Z" fill="#00BCD4"/>
<path d="M16.8125 29.5C16.1203 29.5 15.4436 29.2947 14.868 28.9101C14.2924 28.5256 13.8438 27.9789 13.5789 27.3394C13.314 26.6999 13.2447 25.9961 13.3798 25.3172C13.5148 24.6383 13.8481 24.0146 14.3376 23.5251C14.8271 23.0356 15.4508 22.7023 16.1297 22.5673C16.8086 22.4322 17.5124 22.5015 18.1519 22.7664C18.7914 23.0313 19.3381 23.4799 19.7226 24.0555C20.1072 24.6311 20.3125 25.3078 20.3125 26C20.3115 26.9279 19.9424 27.8176 19.2862 28.4737C18.6301 29.1299 17.7404 29.499 16.8125 29.5ZM16.8125 24.25C16.4664 24.25 16.128 24.3526 15.8403 24.5449C15.5525 24.7372 15.3282 25.0105 15.1957 25.3303C15.0633 25.6501 15.0286 26.0019 15.0961 26.3414C15.1637 26.6809 15.3303 26.9927 15.5751 27.2374C15.8198 27.4822 16.1316 27.6489 16.4711 27.7164C16.8106 27.7839 17.1624 27.7492 17.4822 27.6168C17.802 27.4843 18.0753 27.26 18.2676 26.9722C18.4599 26.6845 18.5625 26.3461 18.5625 26C18.562 25.536 18.3774 25.0912 18.0494 24.7631C17.7213 24.4351 17.2765 24.2505 16.8125 24.25Z" fill="#00BCD4"/>
<path d="M26 29.5C25.3078 29.5 24.6311 29.2947 24.0555 28.9101C23.4799 28.5256 23.0313 27.9789 22.7664 27.3394C22.5015 26.6999 22.4322 25.9961 22.5673 25.3172C22.7023 24.6383 23.0356 24.0146 23.5251 23.5251C24.0146 23.0356 24.6383 22.7023 25.3172 22.5673C25.9961 22.4322 26.6999 22.5015 27.3394 22.7664C27.9789 23.0313 28.5256 23.4799 28.9101 24.0555C29.2947 24.6311 29.5 25.3078 29.5 26C29.499 26.9279 29.1299 27.8176 28.4737 28.4737C27.8176 29.1299 26.9279 29.499 26 29.5ZM26 24.25C25.6539 24.25 25.3155 24.3526 25.0278 24.5449C24.74 24.7372 24.5157 25.0105 24.3832 25.3303C24.2508 25.6501 24.2161 26.0019 24.2836 26.3414C24.3512 26.6809 24.5178 26.9927 24.7626 27.2374C25.0073 27.4822 25.3191 27.6489 25.6586 27.7164C25.9981 27.7839 26.3499 27.7492 26.6697 27.6168C26.9895 27.4843 27.2628 27.26 27.4551 26.9722C27.6474 26.6845 27.75 26.3461 27.75 26C27.7495 25.536 27.5649 25.0912 27.2369 24.7631C26.9088 24.4351 26.464 24.2505 26 24.25Z" fill="#00BCD4"/>
<path d="M35.1875 29.5C34.4953 29.5 33.8186 29.2947 33.243 28.9101C32.6674 28.5256 32.2188 27.9789 31.9539 27.3394C31.689 26.6999 31.6197 25.9961 31.7548 25.3172C31.8898 24.6383 32.2231 24.0146 32.7126 23.5251C33.2021 23.0356 33.8258 22.7023 34.5047 22.5673C35.1836 22.4322 35.8874 22.5015 36.5269 22.7664C37.1664 23.0313 37.7131 23.4799 38.0976 24.0555C38.4822 24.6311 38.6875 25.3078 38.6875 26C38.6865 26.9279 38.3174 27.8176 37.6612 28.4737C37.0051 29.1299 36.1154 29.499 35.1875 29.5ZM35.1875 24.25C34.8414 24.25 34.503 24.3526 34.2153 24.5449C33.9275 24.7372 33.7032 25.0105 33.5707 25.3303C33.4383 25.6501 33.4036 26.0019 33.4711 26.3414C33.5387 26.6809 33.7053 26.9927 33.9501 27.2374C34.1948 27.4822 34.5066 27.6489 34.8461 27.7164C35.1856 27.7839 35.5374 27.7492 35.8572 27.6168C36.177 27.4843 36.4503 27.26 36.6426 26.9722C36.8349 26.6845 36.9375 26.3461 36.9375 26C36.937 25.536 36.7524 25.0912 36.4244 24.7631C36.0963 24.4351 35.6515 24.2505 35.1875 24.25Z" fill="#00BCD4"/>
<path d="M16.8125 20.75C16.1203 20.75 15.4436 20.5447 14.868 20.1601C14.2924 19.7756 13.8438 19.2289 13.5789 18.5894C13.314 17.9499 13.2447 17.2461 13.3798 16.5672C13.5148 15.8883 13.8481 15.2646 14.3376 14.7751C14.8271 14.2856 15.4508 13.9523 16.1297 13.8173C16.8086 13.6822 17.5124 13.7515 18.1519 14.0164C18.7914 14.2813 19.3381 14.7299 19.7226 15.3055C20.1072 15.8811 20.3125 16.5578 20.3125 17.25C20.3115 18.1779 19.9424 19.0676 19.2862 19.7237C18.6301 20.3799 17.7404 20.749 16.8125 20.75ZM16.8125 15.5C16.4664 15.5 16.128 15.6026 15.8403 15.7949C15.5525 15.9872 15.3282 16.2605 15.1957 16.5803C15.0633 16.9001 15.0286 17.2519 15.0961 17.5914C15.1637 17.9309 15.3303 18.2427 15.5751 18.4874C15.8198 18.7322 16.1316 18.8989 16.4711 18.9664C16.8106 19.0339 17.1624 18.9992 17.4822 18.8668C17.802 18.7343 18.0753 18.51 18.2676 18.2222C18.4599 17.9345 18.5625 17.5961 18.5625 17.25C18.562 16.786 18.3774 16.3412 18.0494 16.0131C17.7213 15.6851 17.2765 15.5005 16.8125 15.5Z" fill="#00BCD4"/>
<path d="M26 20.75C25.3078 20.75 24.6311 20.5447 24.0555 20.1601C23.4799 19.7756 23.0313 19.2289 22.7664 18.5894C22.5015 17.9499 22.4322 17.2461 22.5673 16.5672C22.7023 15.8883 23.0356 15.2646 23.5251 14.7751C24.0146 14.2856 24.6383 13.9523 25.3172 13.8173C25.9961 13.6822 26.6999 13.7515 27.3394 14.0164C27.9789 14.2813 28.5256 14.7299 28.9101 15.3055C29.2947 15.8811 29.5 16.5578 29.5 17.25C29.499 18.1779 29.1299 19.0676 28.4737 19.7237C27.8176 20.3799 26.9279 20.749 26 20.75ZM26 15.5C25.6539 15.5 25.3155 15.6026 25.0278 15.7949C24.74 15.9872 24.5157 16.2605 24.3832 16.5803C24.2508 16.9001 24.2161 17.2519 24.2836 17.5914C24.3512 17.9309 24.5178 18.2427 24.7626 18.4874C25.0073 18.7322 25.3191 18.8989 25.6586 18.9664C25.9981 19.0339 26.3499 18.9992 26.6697 18.8668C26.9895 18.7343 27.2628 18.51 27.4551 18.2222C27.6474 17.9345 27.75 17.5961 27.75 17.25C27.7495 16.786 27.5649 16.3412 27.2369 16.0131C26.9088 15.6851 26.464 15.5005 26 15.5Z" fill="#00BCD4"/>
<path d="M35.1875 20.75C34.4953 20.75 33.8186 20.5447 33.243 20.1601C32.6674 19.7756 32.2188 19.2289 31.9539 18.5894C31.689 17.9499 31.6197 17.2461 31.7548 16.5672C31.8898 15.8883 32.2231 15.2646 32.7126 14.7751C33.2021 14.2856 33.8258 13.9523 34.5047 13.8173C35.1836 13.6822 35.8874 13.7515 36.5269 14.0164C37.1664 14.2813 37.7131 14.7299 38.0976 15.3055C38.4822 15.8811 38.6875 16.5578 38.6875 17.25C38.6865 18.1779 38.3174 19.0676 37.6612 19.7237C37.0051 20.3799 36.1154 20.749 35.1875 20.75ZM35.1875 15.5C34.8414 15.5 34.503 15.6026 34.2153 15.7949C33.9275 15.9872 33.7032 16.2605 33.5707 16.5803C33.4383 16.9001 33.4036 17.2519 33.4711 17.5914C33.5387 17.9309 33.7053 18.2427 33.9501 18.4874C34.1948 18.7322 34.5066 18.8989 34.8461 18.9664C35.1856 19.0339 35.5374 18.9992 35.8572 18.8668C36.177 18.7343 36.4503 18.51 36.6426 18.2222C36.8349 17.9345 36.9375 17.5961 36.9375 17.25C36.937 16.786 36.7524 16.3412 36.4244 16.0131C36.0963 15.6851 35.6515 15.5005 35.1875 15.5Z" fill="#00BCD4"/>
</svg>
