<svg width="45" height="51" viewBox="0 0 45 51" fill="none" xmlns="http://www.w3.org/2000/svg">
<rect width="45" height="51" rx="6" fill="#C9F7F5"/>
<mask id="path-2-outside-1" maskUnits="userSpaceOnUse" x="4.62779" y="8.62821" width="35.6773" height="35.6773" fill="black">
<rect fill="white" x="4.62779" y="8.62821" width="35.6773" height="35.6773"/>
<path d="M30.6074 35.5749C31.0384 35.3166 31.3967 34.9532 31.648 34.5193C31.8994 34.0855 32.0354 33.5956 32.0432 33.0965L32.083 30.4428C32.0849 30.3282 32.0625 30.2147 32.0172 30.1096C31.972 30.0046 31.9049 29.9105 31.8204 29.8333C31.7359 29.7562 31.6358 29.6978 31.5268 29.6619C31.4177 29.6261 31.3021 29.6136 31.1875 29.6254C30.4803 29.7002 29.7743 29.4934 29.2239 29.0503C28.6736 28.6071 28.3235 27.9637 28.2504 27.2605C28.1772 26.5573 28.3868 25.8515 28.8334 25.2976C29.28 24.7436 29.9273 24.3864 30.6337 24.304C30.8409 24.2828 31.0497 24.2852 31.256 24.3113C31.3707 24.3263 31.4875 24.3169 31.5987 24.2836C31.7099 24.2503 31.8129 24.1939 31.9009 24.1182C31.989 24.0425 32.06 23.9492 32.1093 23.8445C32.1586 23.7397 32.1851 23.6259 32.1871 23.5105L32.2355 20.2819C32.2474 19.5007 31.9472 18.7494 31.4011 18.193C30.855 17.6366 30.1075 17.3207 29.3231 17.3147L26.1612 17.2977C26.2436 16.303 25.9342 15.3185 25.2986 14.5527C24.663 13.7869 23.7511 13.2998 22.7558 13.1946C22.2249 13.1369 21.6868 13.1923 21.1772 13.3572C20.6676 13.5221 20.1982 13.7927 19.8 14.151C19.4008 14.5088 19.0807 14.9453 18.8603 15.4323C18.6399 15.9193 18.524 16.4461 18.5202 16.9787C18.5195 17.0716 18.5223 17.1646 18.5287 17.2575L15.935 17.2436C15.549 17.2416 15.1658 17.3158 14.8076 17.4618C14.4493 17.6078 14.123 17.8228 13.8476 18.0944C13.5721 18.3659 13.353 18.6886 13.2028 19.0439C13.0526 19.3992 12.9743 19.78 12.9724 20.1644L12.8786 32.9791C12.8738 33.7561 13.1769 34.5011 13.7223 35.0524C14.2676 35.6037 15.011 35.9168 15.7913 35.9238L18.0327 35.9357C18.1412 35.9362 18.2488 35.914 18.3485 35.8706C18.4483 35.8272 18.5379 35.7636 18.6118 35.6838C18.6856 35.604 18.7419 35.5098 18.7771 35.4073C18.8123 35.3048 18.8256 35.1963 18.8162 35.0887C18.7873 34.7612 18.8278 34.4307 18.935 34.1187C19.0421 33.8066 19.2137 33.5198 19.4385 33.2769C19.6632 33.0339 19.9363 32.8401 20.24 32.7081C20.5438 32.5761 20.8714 32.5087 21.2018 32.5103C21.5322 32.5118 21.858 32.5824 22.1583 32.7173C22.4585 32.8523 22.7265 33.0487 22.945 33.2937C23.1634 33.5388 23.3274 33.8272 23.4265 34.1403C23.5255 34.4534 23.5573 34.7842 23.52 35.1114C23.5073 35.219 23.5174 35.3278 23.5497 35.4309C23.582 35.534 23.6357 35.629 23.7074 35.7098C23.7791 35.7906 23.8671 35.8554 23.9658 35.9C24.0645 35.9446 24.1717 35.9679 24.2804 35.9686L29.0804 35.9939C29.6174 35.9975 30.146 35.8525 30.6074 35.5749ZM24.0801 32.851C23.6592 32.2448 23.0559 31.7879 22.3561 31.5453C21.6562 31.3027 20.8955 31.2868 20.1824 31.4999C19.4692 31.7129 18.8399 32.1441 18.3841 32.732C17.9283 33.3198 17.6693 34.0344 17.644 34.7739L15.807 34.7639C15.3343 34.7593 14.884 34.5692 14.5538 34.2349C14.2237 33.9006 14.0403 33.449 14.0437 32.9783L14.137 20.1636C14.1377 19.9322 14.1846 19.7028 14.2748 19.4888C14.365 19.2748 14.4967 19.0804 14.6624 18.9168C14.8281 18.7531 15.0244 18.6236 15.2401 18.5355C15.4557 18.4475 15.6864 18.4027 15.9188 18.4039L18.9143 18.4193C19.0336 18.4202 19.1519 18.3948 19.2607 18.3448C19.3694 18.2949 19.4659 18.2217 19.5432 18.1304C19.6215 18.0383 19.6785 17.9302 19.7102 17.814C19.7418 17.6977 19.7473 17.5761 19.7263 17.4579C19.6476 17.0136 19.6842 16.5557 19.8327 16.1276C19.9813 15.6995 20.2367 15.3154 20.575 15.0115C20.8518 14.7627 21.1781 14.5749 21.5323 14.4606C21.8864 14.3463 22.2603 14.3082 22.6292 14.3486C22.9969 14.3882 23.3519 14.5029 23.6719 14.6857C23.9919 14.8684 24.2701 15.1153 24.489 15.4108C24.708 15.7063 24.8629 16.0441 24.9442 16.403C25.0256 16.762 25.0315 17.1344 24.9617 17.497C24.9392 17.6133 24.9426 17.733 24.9717 17.8475C25.0008 17.962 25.0549 18.0685 25.1302 18.1595C25.2059 18.2517 25.3013 18.326 25.4094 18.3772C25.5176 18.4283 25.6359 18.4551 25.756 18.4556L29.3079 18.4745C29.7831 18.4787 30.2357 18.6706 30.5663 19.0079C30.8969 19.3452 31.0784 19.8005 31.0711 20.2737L31.028 23.1309C30.8602 23.1265 30.6921 23.1328 30.5248 23.1498C29.657 23.2422 28.8445 23.6265 28.2216 24.2391C27.5987 24.8517 27.2027 25.6561 27.0993 26.519C27.0351 27.0553 27.0846 27.5981 27.2445 28.1123C27.4045 28.6265 27.6714 29.1007 28.0278 29.5041C28.3843 29.9076 28.8225 30.2314 29.3141 30.4545C29.8056 30.6777 30.3396 30.7952 30.8814 30.7995C30.8917 30.7997 30.9019 30.7996 30.9121 30.7996L30.8778 33.0879C30.871 33.5525 30.6798 33.997 30.3459 34.3241C30.0119 34.6513 29.5625 34.8344 29.096 34.8336L24.7001 34.8104C24.6945 34.1088 24.4787 33.4265 24.0801 32.851Z"/>
</mask>
<path d="M30.6074 35.5749C31.0384 35.3166 31.3967 34.9532 31.648 34.5193C31.8994 34.0855 32.0354 33.5956 32.0432 33.0965L32.083 30.4428C32.0849 30.3282 32.0625 30.2147 32.0172 30.1096C31.972 30.0046 31.9049 29.9105 31.8204 29.8333C31.7359 29.7562 31.6358 29.6978 31.5268 29.6619C31.4177 29.6261 31.3021 29.6136 31.1875 29.6254C30.4803 29.7002 29.7743 29.4934 29.2239 29.0503C28.6736 28.6071 28.3235 27.9637 28.2504 27.2605C28.1772 26.5573 28.3868 25.8515 28.8334 25.2976C29.28 24.7436 29.9273 24.3864 30.6337 24.304C30.8409 24.2828 31.0497 24.2852 31.256 24.3113C31.3707 24.3263 31.4875 24.3169 31.5987 24.2836C31.7099 24.2503 31.8129 24.1939 31.9009 24.1182C31.989 24.0425 32.06 23.9492 32.1093 23.8445C32.1586 23.7397 32.1851 23.6259 32.1871 23.5105L32.2355 20.2819C32.2474 19.5007 31.9472 18.7494 31.4011 18.193C30.855 17.6366 30.1075 17.3207 29.3231 17.3147L26.1612 17.2977C26.2436 16.303 25.9342 15.3185 25.2986 14.5527C24.663 13.7869 23.7511 13.2998 22.7558 13.1946C22.2249 13.1369 21.6868 13.1923 21.1772 13.3572C20.6676 13.5221 20.1982 13.7927 19.8 14.151C19.4008 14.5088 19.0807 14.9453 18.8603 15.4323C18.6399 15.9193 18.524 16.4461 18.5202 16.9787C18.5195 17.0716 18.5223 17.1646 18.5287 17.2575L15.935 17.2436C15.549 17.2416 15.1658 17.3158 14.8076 17.4618C14.4493 17.6078 14.123 17.8228 13.8476 18.0944C13.5721 18.3659 13.353 18.6886 13.2028 19.0439C13.0526 19.3992 12.9743 19.78 12.9724 20.1644L12.8786 32.9791C12.8738 33.7561 13.1769 34.5011 13.7223 35.0524C14.2676 35.6037 15.011 35.9168 15.7913 35.9238L18.0327 35.9357C18.1412 35.9362 18.2488 35.914 18.3485 35.8706C18.4483 35.8272 18.5379 35.7636 18.6118 35.6838C18.6856 35.604 18.7419 35.5098 18.7771 35.4073C18.8123 35.3048 18.8256 35.1963 18.8162 35.0887C18.7873 34.7612 18.8278 34.4307 18.935 34.1187C19.0421 33.8066 19.2137 33.5198 19.4385 33.2769C19.6632 33.0339 19.9363 32.8401 20.24 32.7081C20.5438 32.5761 20.8714 32.5087 21.2018 32.5103C21.5322 32.5118 21.858 32.5824 22.1583 32.7173C22.4585 32.8523 22.7265 33.0487 22.945 33.2937C23.1634 33.5388 23.3274 33.8272 23.4265 34.1403C23.5255 34.4534 23.5573 34.7842 23.52 35.1114C23.5073 35.219 23.5174 35.3278 23.5497 35.4309C23.582 35.534 23.6357 35.629 23.7074 35.7098C23.7791 35.7906 23.8671 35.8554 23.9658 35.9C24.0645 35.9446 24.1717 35.9679 24.2804 35.9686L29.0804 35.9939C29.6174 35.9975 30.146 35.8525 30.6074 35.5749ZM24.0801 32.851C23.6592 32.2448 23.0559 31.7879 22.3561 31.5453C21.6562 31.3027 20.8955 31.2868 20.1824 31.4999C19.4692 31.7129 18.8399 32.1441 18.3841 32.732C17.9283 33.3198 17.6693 34.0344 17.644 34.7739L15.807 34.7639C15.3343 34.7593 14.884 34.5692 14.5538 34.2349C14.2237 33.9006 14.0403 33.449 14.0437 32.9783L14.137 20.1636C14.1377 19.9322 14.1846 19.7028 14.2748 19.4888C14.365 19.2748 14.4967 19.0804 14.6624 18.9168C14.8281 18.7531 15.0244 18.6236 15.2401 18.5355C15.4557 18.4475 15.6864 18.4027 15.9188 18.4039L18.9143 18.4193C19.0336 18.4202 19.1519 18.3948 19.2607 18.3448C19.3694 18.2949 19.4659 18.2217 19.5432 18.1304C19.6215 18.0383 19.6785 17.9302 19.7102 17.814C19.7418 17.6977 19.7473 17.5761 19.7263 17.4579C19.6476 17.0136 19.6842 16.5557 19.8327 16.1276C19.9813 15.6995 20.2367 15.3154 20.575 15.0115C20.8518 14.7627 21.1781 14.5749 21.5323 14.4606C21.8864 14.3463 22.2603 14.3082 22.6292 14.3486C22.9969 14.3882 23.3519 14.5029 23.6719 14.6857C23.9919 14.8684 24.2701 15.1153 24.489 15.4108C24.708 15.7063 24.8629 16.0441 24.9442 16.403C25.0256 16.762 25.0315 17.1344 24.9617 17.497C24.9392 17.6133 24.9426 17.733 24.9717 17.8475C25.0008 17.962 25.0549 18.0685 25.1302 18.1595C25.2059 18.2517 25.3013 18.326 25.4094 18.3772C25.5176 18.4283 25.6359 18.4551 25.756 18.4556L29.3079 18.4745C29.7831 18.4787 30.2357 18.6706 30.5663 19.0079C30.8969 19.3452 31.0784 19.8005 31.0711 20.2737L31.028 23.1309C30.8602 23.1265 30.6921 23.1328 30.5248 23.1498C29.657 23.2422 28.8445 23.6265 28.2216 24.2391C27.5987 24.8517 27.2027 25.6561 27.0993 26.519C27.0351 27.0553 27.0846 27.5981 27.2445 28.1123C27.4045 28.6265 27.6714 29.1007 28.0278 29.5041C28.3843 29.9076 28.8225 30.2314 29.3141 30.4545C29.8056 30.6777 30.3396 30.7952 30.8814 30.7995C30.8917 30.7997 30.9019 30.7996 30.9121 30.7996L30.8778 33.0879C30.871 33.5525 30.6798 33.997 30.3459 34.3241C30.0119 34.6513 29.5625 34.8344 29.096 34.8336L24.7001 34.8104C24.6945 34.1088 24.4787 33.4265 24.0801 32.851Z" fill="#1BC5BD"/>
<path d="M30.6074 35.5749C31.0384 35.3166 31.3967 34.9532 31.648 34.5193C31.8994 34.0855 32.0354 33.5956 32.0432 33.0965L32.083 30.4428C32.0849 30.3282 32.0625 30.2147 32.0172 30.1096C31.972 30.0046 31.9049 29.9105 31.8204 29.8333C31.7359 29.7562 31.6358 29.6978 31.5268 29.6619C31.4177 29.6261 31.3021 29.6136 31.1875 29.6254C30.4803 29.7002 29.7743 29.4934 29.2239 29.0503C28.6736 28.6071 28.3235 27.9637 28.2504 27.2605C28.1772 26.5573 28.3868 25.8515 28.8334 25.2976C29.28 24.7436 29.9273 24.3864 30.6337 24.304C30.8409 24.2828 31.0497 24.2852 31.256 24.3113C31.3707 24.3263 31.4875 24.3169 31.5987 24.2836C31.7099 24.2503 31.8129 24.1939 31.9009 24.1182C31.989 24.0425 32.06 23.9492 32.1093 23.8445C32.1586 23.7397 32.1851 23.6259 32.1871 23.5105L32.2355 20.2819C32.2474 19.5007 31.9472 18.7494 31.4011 18.193C30.855 17.6366 30.1075 17.3207 29.3231 17.3147L26.1612 17.2977C26.2436 16.303 25.9342 15.3185 25.2986 14.5527C24.663 13.7869 23.7511 13.2998 22.7558 13.1946C22.2249 13.1369 21.6868 13.1923 21.1772 13.3572C20.6676 13.5221 20.1982 13.7927 19.8 14.151C19.4008 14.5088 19.0807 14.9453 18.8603 15.4323C18.6399 15.9193 18.524 16.4461 18.5202 16.9787C18.5195 17.0716 18.5223 17.1646 18.5287 17.2575L15.935 17.2436C15.549 17.2416 15.1658 17.3158 14.8076 17.4618C14.4493 17.6078 14.123 17.8228 13.8476 18.0944C13.5721 18.3659 13.353 18.6886 13.2028 19.0439C13.0526 19.3992 12.9743 19.78 12.9724 20.1644L12.8786 32.9791C12.8738 33.7561 13.1769 34.5011 13.7223 35.0524C14.2676 35.6037 15.011 35.9168 15.7913 35.9238L18.0327 35.9357C18.1412 35.9362 18.2488 35.914 18.3485 35.8706C18.4483 35.8272 18.5379 35.7636 18.6118 35.6838C18.6856 35.604 18.7419 35.5098 18.7771 35.4073C18.8123 35.3048 18.8256 35.1963 18.8162 35.0887C18.7873 34.7612 18.8278 34.4307 18.935 34.1187C19.0421 33.8066 19.2137 33.5198 19.4385 33.2769C19.6632 33.0339 19.9363 32.8401 20.24 32.7081C20.5438 32.5761 20.8714 32.5087 21.2018 32.5103C21.5322 32.5118 21.858 32.5824 22.1583 32.7173C22.4585 32.8523 22.7265 33.0487 22.945 33.2937C23.1634 33.5388 23.3274 33.8272 23.4265 34.1403C23.5255 34.4534 23.5573 34.7842 23.52 35.1114C23.5073 35.219 23.5174 35.3278 23.5497 35.4309C23.582 35.534 23.6357 35.629 23.7074 35.7098C23.7791 35.7906 23.8671 35.8554 23.9658 35.9C24.0645 35.9446 24.1717 35.9679 24.2804 35.9686L29.0804 35.9939C29.6174 35.9975 30.146 35.8525 30.6074 35.5749ZM24.0801 32.851C23.6592 32.2448 23.0559 31.7879 22.3561 31.5453C21.6562 31.3027 20.8955 31.2868 20.1824 31.4999C19.4692 31.7129 18.8399 32.1441 18.3841 32.732C17.9283 33.3198 17.6693 34.0344 17.644 34.7739L15.807 34.7639C15.3343 34.7593 14.884 34.5692 14.5538 34.2349C14.2237 33.9006 14.0403 33.449 14.0437 32.9783L14.137 20.1636C14.1377 19.9322 14.1846 19.7028 14.2748 19.4888C14.365 19.2748 14.4967 19.0804 14.6624 18.9168C14.8281 18.7531 15.0244 18.6236 15.2401 18.5355C15.4557 18.4475 15.6864 18.4027 15.9188 18.4039L18.9143 18.4193C19.0336 18.4202 19.1519 18.3948 19.2607 18.3448C19.3694 18.2949 19.4659 18.2217 19.5432 18.1304C19.6215 18.0383 19.6785 17.9302 19.7102 17.814C19.7418 17.6977 19.7473 17.5761 19.7263 17.4579C19.6476 17.0136 19.6842 16.5557 19.8327 16.1276C19.9813 15.6995 20.2367 15.3154 20.575 15.0115C20.8518 14.7627 21.1781 14.5749 21.5323 14.4606C21.8864 14.3463 22.2603 14.3082 22.6292 14.3486C22.9969 14.3882 23.3519 14.5029 23.6719 14.6857C23.9919 14.8684 24.2701 15.1153 24.489 15.4108C24.708 15.7063 24.8629 16.0441 24.9442 16.403C25.0256 16.762 25.0315 17.1344 24.9617 17.497C24.9392 17.6133 24.9426 17.733 24.9717 17.8475C25.0008 17.962 25.0549 18.0685 25.1302 18.1595C25.2059 18.2517 25.3013 18.326 25.4094 18.3772C25.5176 18.4283 25.6359 18.4551 25.756 18.4556L29.3079 18.4745C29.7831 18.4787 30.2357 18.6706 30.5663 19.0079C30.8969 19.3452 31.0784 19.8005 31.0711 20.2737L31.028 23.1309C30.8602 23.1265 30.6921 23.1328 30.5248 23.1498C29.657 23.2422 28.8445 23.6265 28.2216 24.2391C27.5987 24.8517 27.2027 25.6561 27.0993 26.519C27.0351 27.0553 27.0846 27.5981 27.2445 28.1123C27.4045 28.6265 27.6714 29.1007 28.0278 29.5041C28.3843 29.9076 28.8225 30.2314 29.3141 30.4545C29.8056 30.6777 30.3396 30.7952 30.8814 30.7995C30.8917 30.7997 30.9019 30.7996 30.9121 30.7996L30.8778 33.0879C30.871 33.5525 30.6798 33.997 30.3459 34.3241C30.0119 34.6513 29.5625 34.8344 29.096 34.8336L24.7001 34.8104C24.6945 34.1088 24.4787 33.4265 24.0801 32.851Z" stroke="#1BC5BD" stroke-width="0.6" mask="url(#path-2-outside-1)"/>
</svg>
