<svg width="18" height="17" viewBox="0 0 18 17" fill="none" xmlns="http://www.w3.org/2000/svg">
<path d="M17.385 13.6094L14.3443 10.7335L12.0055 9.81966C12.7843 8.77225 13.2015 7.52269 13.2 6.24225C13.2 2.80025 10.2392 0 6.59999 0C2.96073 0 0 2.80025 0 6.24225C0 9.68424 2.96073 12.4845 6.59999 12.4845C7.96559 12.486 9.29768 12.0846 10.4107 11.3362L11.3744 13.5422L14.415 16.4182C14.61 16.6027 14.8415 16.749 15.0963 16.8488C15.351 16.9486 15.6241 17 15.8999 17C16.1757 17 16.4488 16.9486 16.7036 16.8488C16.9583 16.749 17.1899 16.6027 17.3849 16.4183C17.5799 16.2339 17.7346 16.0149 17.8401 15.7739C17.9457 15.533 18 15.2747 18 15.0139C18 14.753 17.9457 14.4947 17.8402 14.2538C17.7346 14.0128 17.58 13.7938 17.385 13.6094ZM1.2 6.24225C1.2 3.42614 3.62249 1.13495 6.59999 1.13495C9.57748 1.13495 12 3.42614 12 6.24225C12 9.05835 9.57748 11.3495 6.59999 11.3495C3.62249 11.3495 1.2 9.05835 1.2 6.24225ZM16.5364 15.6157C16.3675 15.7751 16.1386 15.8646 15.9 15.8646C15.6613 15.8646 15.4325 15.7751 15.2636 15.6157L12.3921 12.8999L11.4961 10.8486L13.665 11.6961L16.5364 14.4119C16.705 14.5717 16.7996 14.7881 16.7996 15.0138C16.7996 15.2395 16.7049 15.4559 16.5364 15.6157Z" fill="#999999"/>
</svg>
