<svg width="11" height="6" viewBox="0 0 11 6" fill="none" xmlns="http://www.w3.org/2000/svg">
<path d="M10.6119 1.03896L10.6119 1.03899L10.615 1.03594C10.7998 0.852735 10.7939 0.556719 10.6034 0.380474L10.6034 0.380442C10.4233 0.213896 10.1419 0.213868 9.96182 0.380462L9.96179 0.380435L9.95867 0.383423L5.50248 4.6514L1.04797 0.384245C0.869097 0.208793 0.58038 0.204951 0.396613 0.374909L0.396568 0.37495C0.206053 0.551234 0.200307 0.847197 0.384951 1.03037L0.385026 1.03045L0.393453 1.03852L0.393428 1.03854L5.17605 5.61958L5.17607 5.6196C5.35765 5.79348 5.64769 5.79345 5.82926 5.61962L5.8293 5.61958L10.6119 1.03896Z" fill="white" stroke="white" stroke-width="0.5"/>
</svg>
