<svg width="13" height="13" viewBox="0 0 13 13" fill="none" xmlns="http://www.w3.org/2000/svg">
<path d="M12.7954 6.4983L12.7964 6.49726L11.0678 4.76862L10.9099 4.61183L10.7798 4.48272L8.01136 1.71428L5.99377 3.73189L8.76189 6.50001L5.99377 9.26812L8.01136 11.2857L10.7795 8.51762L10.7805 8.51866L10.7822 8.51696L12.5108 6.78832L12.7971 6.50001L12.7954 6.4983ZM8.01136 10.1368L7.14283 9.26822L9.91094 6.50001L7.14283 3.73189L8.01136 2.86333L10.4922 5.34417L10.7805 5.6304L11.6501 6.50001L10.7805 7.36961L10.7795 7.36857L10.7778 7.37027L8.01136 10.1368Z" fill="#3C4B64"/>
<path d="M7.18029 6.50001L7.17859 6.4983L7.17964 6.49726L5.45099 4.76862L5.16448 4.48399L2.39457 1.71428L0.376953 3.73189L3.14506 6.50001L0.376953 9.26812L2.39457 11.2857L5.16448 8.51602L5.16552 8.51706L6.89417 6.78842L7.18029 6.50001ZM5.16194 7.37131L5.1609 7.37027L2.39457 10.1367L1.52601 9.26812L4.29412 6.50001L1.52601 3.73189L2.39457 2.86333L4.87541 5.34417L5.16179 5.62855L6.03332 6.50001L5.16194 7.37131Z" fill="#3C4B64"/>
</svg>
