<svg width="38" height="38" viewBox="0 0 38 38" fill="none" xmlns="http://www.w3.org/2000/svg">
<rect width="38" height="38" rx="6" fill="#1A3D67"/>
<g clip-path="url(#clip0)">
<path d="M13.0688 24.027L18.0956 19.0001L13.0688 13.9733L16.4849 10.5571L21.5107 15.5829L21.9115 15.9798L24.9316 19.0001L24.7371 19.1928L24.532 19.3999L21.5118 22.42L21.5099 22.4181L16.4849 27.4431L13.0688 24.027ZM16.4849 12.1482L14.6598 13.9733L19.6867 19.0001L14.6598 24.027L16.4849 25.8521L21.5136 20.8234L21.5154 20.8253L23.337 19.0038L23.3352 19.002L23.3389 18.9985L21.5154 17.1751L21.114 16.7774L16.4849 12.1482Z" fill="white"/>
</g>
<defs>
<clipPath id="clip0">
<rect width="18" height="18" fill="white" transform="translate(28 10) rotate(90)"/>
</clipPath>
</defs>
</svg>
