<svg width="20" height="20" viewBox="0 0 20 20" fill="none" xmlns="http://www.w3.org/2000/svg">
<path d="M11.3642 3.75H10V5.11422H11.3642V3.75Z" fill="#333333"/>
<path d="M0.625 19.375H19.375V0.625H0.625V19.375ZM1.875 1.875H18.125V18.125H1.875V1.875Z" fill="#333333"/>
<path d="M11.145 14.0248C11.0827 14.1312 10.9937 14.2194 10.8869 14.2809C10.78 14.3423 10.6589 14.3747 10.5356 14.375C10.426 14.375 10.3178 14.3495 10.2198 14.3004C10.1217 14.2513 10.0365 14.18 9.97076 14.0922C9.90506 14.0044 9.86074 13.9025 9.8413 13.7945C9.82187 13.6866 9.82786 13.5757 9.8588 13.4704L11.2522 8.73307C11.3923 8.25748 11.3447 7.74623 11.1192 7.30468C10.8936 6.86313 10.5073 6.5249 10.0398 6.35969C9.57234 6.19448 9.05929 6.21487 8.60639 6.41666C8.15349 6.61845 7.79523 6.98627 7.60544 7.44433L7.14771 8.54721L8.30228 9.02635L8.76001 7.92343C8.82715 7.76079 8.95416 7.63013 9.11484 7.55842C9.27552 7.48671 9.45759 7.47942 9.62348 7.53806C9.78938 7.5967 9.92643 7.71679 10.0063 7.87355C10.0863 8.0303 10.103 8.21175 10.053 8.38046L8.65962 13.1178C8.57386 13.4094 8.55725 13.717 8.61111 14.0161C8.66497 14.3152 8.78781 14.5977 8.96989 14.8411C9.15197 15.0844 9.38827 15.282 9.66003 15.4181C9.93179 15.5542 10.2315 15.6251 10.5355 15.6251C10.8772 15.6244 11.2129 15.5345 11.5092 15.3642C11.8056 15.194 12.0523 14.9492 12.2249 14.6543L12.8148 13.642L11.7349 13.0126L11.145 14.0248Z" fill="#333333"/>
</svg>

