<svg width="38" height="38" viewBox="0 0 38 38" fill="none" xmlns="http://www.w3.org/2000/svg">
<rect width="38" height="38" rx="5" fill="#1A3D67"/>
<g clip-path="url(#clip0)">
<path d="M20.9828 17.0159C20.7696 16.8014 20.5331 16.6113 20.2779 16.449C19.6019 16.0162 18.816 15.7861 18.0133 15.7861C16.8992 15.7841 15.8303 16.2267 15.0439 17.0159L11.2285 20.8342C10.4434 21.6209 10.0022 22.6866 10.0015 23.798C9.99999 26.1172 11.8788 27.9985 14.198 28C15.3104 28.0038 16.3783 27.5633 17.1645 26.7762L20.3139 23.6267C20.3711 23.57 20.4031 23.4926 20.4026 23.412C20.4017 23.2464 20.2666 23.1129 20.1009 23.1138H19.981C19.323 23.1161 18.6708 22.9898 18.0613 22.7419C17.949 22.6957 17.82 22.7218 17.7344 22.8079L15.4698 25.0755C14.7666 25.7787 13.6265 25.7787 12.9233 25.0755C12.2201 24.3723 12.2201 23.2321 12.9233 22.5289L16.7536 18.7016C17.4562 17.9999 18.5945 17.9999 19.2971 18.7016C19.7707 19.1473 20.5093 19.1473 20.9828 18.7016C21.1866 18.4977 21.3101 18.2273 21.3308 17.9397C21.3527 17.5962 21.226 17.2597 20.9828 17.0159Z" fill="white"/>
<path d="M26.7686 11.23C25.1286 9.59 22.4696 9.59 20.8297 11.23L17.6832 14.3734C17.5968 14.4602 17.5719 14.5908 17.6202 14.7034C17.668 14.8162 17.7796 14.8887 17.9022 14.8863H18.0131C18.6704 14.8851 19.3214 15.0125 19.9298 15.2613C20.0421 15.3075 20.1712 15.2814 20.2567 15.1953L22.5153 12.9397C23.2185 12.2365 24.3586 12.2365 25.0618 12.9397C25.7651 13.6429 25.7651 14.783 25.0618 15.4862L22.2483 18.2967L22.2243 18.3237L21.2405 19.3015C20.5379 20.0033 19.3996 20.0033 18.697 19.3015C18.2234 18.8559 17.4848 18.8559 17.0113 19.3015C16.8062 19.507 16.6826 19.7798 16.6633 20.0694C16.6414 20.413 16.7681 20.7495 17.0113 20.9932C17.3585 21.3419 17.7646 21.6262 18.2111 21.8331C18.274 21.8631 18.337 21.8871 18.4 21.9141C18.463 21.9411 18.529 21.962 18.592 21.986C18.655 22.0101 18.7209 22.031 18.7839 22.049L18.9609 22.097C19.0809 22.127 19.2009 22.151 19.3238 22.172C19.4719 22.194 19.6211 22.208 19.7708 22.214H19.9807H19.9987L20.1787 22.193C20.2446 22.19 20.3137 22.175 20.3916 22.175H20.4936L20.7006 22.145L20.7966 22.127L20.9705 22.091H21.0035C21.7403 21.906 22.4131 21.5245 22.9502 20.9872L26.7685 17.1689C28.4086 15.5289 28.4086 12.87 26.7686 11.23Z" fill="white"/>
</g>
<defs>
<clipPath id="clip0">
<rect width="18" height="18" fill="white" transform="translate(10 10)"/>
</clipPath>
</defs>
</svg>
