<svg width="29" height="29" viewBox="0 0 29 29" fill="none" xmlns="http://www.w3.org/2000/svg">
<path d="M27.6373 9.1819L14.9498 1.9319C14.8129 1.85366 14.6579 1.8125 14.5002 1.8125C14.3425 1.8125 14.1875 1.85366 14.0506 1.9319L1.36312 9.1819C1.22252 9.26218 1.10599 9.37867 1.02566 9.51925C0.945329 9.65982 0.904126 9.81935 0.906334 9.98125C0.908543 10.1431 0.954084 10.3015 1.03822 10.4398C1.12236 10.5781 1.24202 10.6914 1.38476 10.7678L14.0723 17.5647C14.2039 17.6352 14.3509 17.6721 14.5002 17.6721C14.6496 17.6721 14.7966 17.6352 14.9282 17.5647L27.6157 10.7678C27.7584 10.6914 27.8781 10.5781 27.9622 10.4398C28.0464 10.3015 28.0919 10.1431 28.0941 9.98125C28.0963 9.81935 28.0551 9.65982 27.9748 9.51925C27.8945 9.37867 27.7779 9.26218 27.6373 9.1819ZM14.5002 15.7375L3.68408 9.94315L14.5002 3.76252L25.3164 9.94315L14.5002 15.7375Z" fill="white" fill-opacity="0.98"/>
<path d="M14.9368 22.3175L27.1875 15.5796V13.511L14.5 20.4892L1.8125 13.511V15.5796L14.0632 22.3175C14.1971 22.3911 14.3473 22.4297 14.5 22.4297C14.6527 22.4297 14.8029 22.3911 14.9368 22.3175Z" fill="white" fill-opacity="0.98"/>
<path d="M1.8125 20.5416L14.0736 27.0808C14.2048 27.1508 14.3513 27.1874 14.5 27.1874C14.6487 27.1874 14.7952 27.1508 14.9264 27.0808L27.1875 20.5416V18.4874L14.5 25.2541L1.8125 18.4874V20.5416Z" fill="white" fill-opacity="0.98"/>
</svg>
