<svg width="38" height="38" viewBox="0 0 38 38" fill="none" xmlns="http://www.w3.org/2000/svg">
<rect width="38" height="38" rx="5" fill="#4DBD74"/>
<path d="M27.1542 15.6991L19.2792 11.1991C19.1942 11.1505 19.098 11.125 19.0001 11.125C18.9023 11.125 18.8061 11.1505 18.7211 11.1991L10.8461 15.6991C10.7588 15.7489 10.6865 15.8212 10.6366 15.9085C10.5868 15.9958 10.5612 16.0948 10.5626 16.1953C10.5639 16.2957 10.5922 16.394 10.6444 16.4799C10.6966 16.5657 10.7709 16.6361 10.8595 16.6835L18.7345 20.9022C18.8162 20.946 18.9075 20.9689 19.0001 20.9689C19.0928 20.9689 19.1841 20.946 19.2658 20.9022L27.1408 16.6835C27.2294 16.6361 27.3037 16.5657 27.3559 16.4799C27.4081 16.394 27.4364 16.2957 27.4377 16.1953C27.4391 16.0948 27.4135 15.9958 27.3637 15.9085C27.3138 15.8212 27.2415 15.7489 27.1542 15.6991ZM19.0001 19.7681L12.2867 16.1716L19.0001 12.3354L25.7136 16.1716L19.0001 19.7681Z" fill="white" fill-opacity="0.98"/>
<path d="M19.2711 23.8522L26.875 19.6701V18.3861L19 22.7174L11.125 18.3861V19.6701L18.7289 23.8522C18.812 23.8979 18.9052 23.9218 19 23.9218C19.0948 23.9218 19.188 23.8979 19.2711 23.8522Z" fill="white" fill-opacity="0.98"/>
<path d="M11.125 22.75L18.7353 26.8088C18.8168 26.8523 18.9077 26.875 19 26.875C19.0923 26.875 19.1832 26.8523 19.2647 26.8088L26.875 22.75V21.475L19 25.675L11.125 21.475V22.75Z" fill="white" fill-opacity="0.98"/>
</svg>
