<svg width="52" height="52" viewBox="0 0 52 52" fill="none" xmlns="http://www.w3.org/2000/svg">
<path d="M46 0H6C2.68629 0 0 2.68629 0 6V46C0 49.3137 2.68629 52 6 52H46C49.3137 52 52 49.3137 52 46V6C52 2.68629 49.3137 0 46 0Z" fill="#EFE8FF"/>
<path d="M34.7119 31.6164C36.7054 29.623 37.7693 26.9554 37.7076 24.1049C37.6468 21.2954 36.5065 18.6412 34.4966 16.6313L33.2592 17.8688C34.9373 19.5318 35.9048 21.7809 35.9581 24.1428C36.0093 26.5115 35.1273 28.7261 33.4718 30.3817L30.8131 33.0642L30.8155 28.188L29.0655 28.1871L29.0615 36.0625H36.9404V34.3125H32.0396L34.7119 31.6164Z" fill="#8950FC"/>
<path d="M14.6213 18.125H19.5221L16.8498 20.8211C14.8563 22.8145 13.7925 25.4822 13.8541 28.3325C13.9163 31.1455 15.0674 33.8247 17.0651 35.8061L18.3025 34.5687C16.6245 32.9057 15.657 30.6567 15.6037 28.2948C15.5524 25.9261 16.4344 23.7114 18.0899 22.0559L20.7487 19.3734L20.7463 24.2496L22.4963 24.2504L22.5002 16.375H14.6213V18.125Z" fill="#8950FC"/>
</svg>
