<svg width="75" height="71" style="z-index:2" viewBox="0 0 59 65" fill="none" xmlns="http://www.w3.org/2000/svg">
<path d="M9.92773 45.8672L22.8393 62.3406L33.2892 55.6958L22.1126 38.1191L9.92773 45.8672ZM27.6986 55.3335C26.9245 55.8257 25.9201 55.6022 25.4364 54.8415C24.9442 54.0675 25.1678 53.0631 25.9419 52.5709C26.7026 52.0872 27.7068 52.3108 28.199 53.0848C28.6828 53.8455 28.4593 54.8498 27.6986 55.3335Z" fill="#B4EBE8"/>
<path d="M18.4533 46.4716C14.0674 49.0355 15.5847 52.9249 15.7096 53.2391C15.7181 53.2525 15.7181 53.2524 15.7181 53.2524L22.8486 62.344L33.2984 55.6991L24.7018 42.1797C23.0286 43.4686 20.7596 45.1174 18.4533 46.4716ZM27.7079 55.3369C26.9338 55.8291 25.9294 55.6056 25.4458 54.8449C24.9535 54.0708 25.1771 53.0665 25.9512 52.5743C26.7118 52.0906 27.7161 52.3141 28.2084 53.0882C28.692 53.8489 28.4685 54.8532 27.7079 55.3369Z" fill="#68DCD6"/>
<mask id="path-3-outside-1" maskUnits="userSpaceOnUse" x="10.2632" y="4.18798" width="48.4665" height="50.9246" fill="black">
<rect fill="white" x="10.2632" y="4.18798" width="48.4665" height="50.9246"/>
<path d="M30.8281 51.6128C31.287 51.321 31.7401 51.0209 32.1932 50.7198C32.5105 50.509 32.8516 50.579 33.2171 50.5898C33.6714 50.6031 34.1258 50.6149 34.5803 50.6074C34.8856 50.6024 35.2566 50.6306 35.5509 50.543L44.8012 44.676L51.1474 40.6429C52.3753 39.8622 53.0465 38.3827 52.2658 37.1549C51.4765 35.9137 50.7746 34.5802 49.5468 35.361L49.6904 35.2697C50.9316 34.4805 50.9529 32.9969 50.1637 31.7557C49.383 30.5279 48.4138 29.7653 47.1727 30.5545L48.085 29.9744C49.3128 29.1936 49.2848 27.7055 48.4956 26.4643C47.7148 25.2365 46.7797 24.507 45.5518 25.2878L45.981 25.0149C47.2088 24.2342 47.1587 22.6866 46.3779 21.4588C45.5887 20.2176 44.3489 19.7366 43.1211 20.5173L31.5177 27.9223C31.5516 27.3792 29.6816 21.4066 28.9578 20.492C28.4522 19.8531 27.8194 19.298 27.2307 18.7385C26.4061 17.9549 25.5658 17.1884 24.7265 16.4207C24.3812 16.1049 24.0341 16.1726 23.5948 16.1517C23.3031 16.1378 23.0098 16.1436 22.7199 16.1808C22.2332 16.2432 21.7534 16.3955 21.3509 16.6822C20.8467 17.0414 20.5279 17.5788 20.3461 18.1621C20.1829 18.6857 19.9721 19.362 20.2848 19.8518C20.8761 20.7748 21.4636 21.7004 22.0521 22.6253C22.3508 23.0946 22.6493 23.564 22.9479 24.0334C23.215 24.4534 23.538 24.8131 23.5519 25.3266C23.633 26.1131 23.5956 26.9311 23.6171 27.7218C23.6347 28.3673 23.6544 29.0128 23.673 29.6582C23.7088 30.9035 23.745 32.1488 23.7828 33.3941C23.8078 34.2181 23.747 35.1025 23.869 35.9199C23.898 36.1147 22.5781 38.8619 22.5781 38.8619"/>
</mask>
<path d="M30.8281 51.6128C31.287 51.321 31.7401 51.0209 32.1932 50.7198C32.5105 50.509 32.8516 50.579 33.2171 50.5898C33.6714 50.6031 34.1258 50.6149 34.5803 50.6074C34.8856 50.6024 35.2566 50.6306 35.5509 50.543L44.8012 44.676L51.1474 40.6429C52.3753 39.8622 53.0465 38.3827 52.2658 37.1549C51.4765 35.9137 50.7746 34.5802 49.5468 35.361L49.6904 35.2697C50.9316 34.4805 50.9529 32.9969 50.1637 31.7557C49.383 30.5279 48.4138 29.7653 47.1727 30.5545L48.085 29.9744C49.3128 29.1936 49.2848 27.7055 48.4956 26.4643C47.7148 25.2365 46.7797 24.507 45.5518 25.2878L45.981 25.0149C47.2088 24.2342 47.1587 22.6866 46.3779 21.4588C45.5887 20.2176 44.3489 19.7366 43.1211 20.5173L31.5177 27.9223C31.5516 27.3792 29.6816 21.4066 28.9578 20.492C28.4522 19.8531 27.8194 19.298 27.2307 18.7385C26.4061 17.9549 25.5658 17.1884 24.7265 16.4207C24.3812 16.1049 24.0341 16.1726 23.5948 16.1517C23.3031 16.1378 23.0098 16.1436 22.7199 16.1808C22.2332 16.2432 21.7534 16.3955 21.3509 16.6822C20.8467 17.0414 20.5279 17.5788 20.3461 18.1621C20.1829 18.6857 19.9721 19.362 20.2848 19.8518C20.8761 20.7748 21.4636 21.7004 22.0521 22.6253C22.3508 23.0946 22.6493 23.564 22.9479 24.0334C23.215 24.4534 23.538 24.8131 23.5519 25.3266C23.633 26.1131 23.5956 26.9311 23.6171 27.7218C23.6347 28.3673 23.6544 29.0128 23.673 29.6582C23.7088 30.9035 23.745 32.1488 23.7828 33.3941C23.8078 34.2181 23.747 35.1025 23.869 35.9199C23.898 36.1147 22.5781 38.8619 22.5781 38.8619" fill="white"/>
<path d="M32.1932 50.7198L32.9128 51.8025L32.9128 51.8025L32.1932 50.7198ZM33.2171 50.5898L33.2554 49.2903L33.2554 49.2903L33.2171 50.5898ZM34.5803 50.6074L34.6017 51.9072L34.6017 51.9072L34.5803 50.6074ZM35.5509 50.543L35.9221 51.7888L36.0949 51.7373L36.2472 51.6408L35.5509 50.543ZM44.8012 44.676L45.4975 45.7738L45.4984 45.7732L44.8012 44.676ZM51.1474 40.6429L51.8447 41.7401L51.845 41.7399L51.1474 40.6429ZM43.1211 20.5173L42.4235 19.4203L42.4217 19.4215L43.1211 20.5173ZM31.5177 27.9223L30.2202 27.8412L30.0607 30.3942L32.2171 29.0181L31.5177 27.9223ZM28.9578 20.492L29.9772 19.6852L29.9772 19.6852L28.9578 20.492ZM27.2307 18.7385L26.3351 19.6808L26.3351 19.6808L27.2307 18.7385ZM24.7265 16.4207L23.8491 17.38L23.8491 17.38L24.7265 16.4207ZM23.5948 16.1517L23.6567 14.8532L23.6567 14.8532L23.5948 16.1517ZM22.7199 16.1808L22.5545 14.8913L22.5545 14.8913L22.7199 16.1808ZM21.3509 16.6822L22.1052 17.741L22.1052 17.741L21.3509 16.6822ZM20.3461 18.1621L21.5872 18.5489L21.5872 18.5489L20.3461 18.1621ZM20.2848 19.8518L19.189 20.5513L19.1901 20.5531L20.2848 19.8518ZM22.0521 22.6253L23.1489 21.9273L23.1489 21.9273L22.0521 22.6253ZM22.9479 24.0334L21.8509 24.731L21.8509 24.731L22.9479 24.0334ZM23.5519 25.3266L22.2524 25.362L22.2538 25.4111L22.2588 25.46L23.5519 25.3266ZM23.6171 27.7218L24.9166 27.6864L24.9166 27.6864L23.6171 27.7218ZM23.673 29.6582L22.3735 29.6957L22.3735 29.6957L23.673 29.6582ZM23.7828 33.3941L25.0822 33.3546L25.0822 33.3546L23.7828 33.3941ZM23.869 35.9199L22.5832 36.1118L22.5832 36.1118L23.869 35.9199ZM31.5257 52.7098C31.9969 52.4102 32.4598 52.1036 32.9128 51.8025L31.4737 49.6371C31.0205 49.9383 30.5772 50.2318 30.1306 50.5158L31.5257 52.7098ZM32.9128 51.8025C32.8711 51.8302 32.8253 51.85 32.7843 51.8614C32.7473 51.8717 32.7287 51.8711 32.7442 51.8704C32.7636 51.8696 32.7987 51.8697 32.8772 51.874C32.9248 51.8766 32.9467 51.8781 33.008 51.8815C33.0576 51.8843 33.1162 51.8873 33.1788 51.8892L33.2554 49.2903C33.236 49.2897 32.8498 49.2633 32.63 49.2729C32.3077 49.2871 31.8897 49.3606 31.4737 49.6371L32.9128 51.8025ZM33.1788 51.8892C33.6326 51.9026 34.1141 51.9153 34.6017 51.9072L34.5589 49.3076C34.1376 49.3145 33.7101 49.3037 33.2554 49.2903L33.1788 51.8892ZM34.6017 51.9072C34.6589 51.9063 34.7202 51.9069 34.8103 51.9075C34.893 51.9081 34.9967 51.9086 35.1048 51.9057C35.3099 51.9002 35.6109 51.8815 35.9221 51.7888L35.1797 49.2971C35.1966 49.2921 35.165 49.3031 35.0346 49.3067C34.975 49.3083 34.9103 49.3082 34.8284 49.3076C34.7538 49.3071 34.6543 49.306 34.5588 49.3076L34.6017 51.9072ZM36.2472 51.6408L45.4975 45.7738L44.1049 43.5782L34.8546 49.4451L36.2472 51.6408ZM45.4984 45.7732L51.8447 41.7401L50.4502 39.5457L44.1039 43.5788L45.4984 45.7732ZM51.845 41.7399C53.4006 40.7508 54.6845 38.5359 53.3628 36.4573L51.1688 37.8524C51.3181 38.0873 51.3409 38.337 51.2368 38.6259C51.1229 38.9419 50.8532 39.2895 50.4499 39.5459L51.845 41.7399ZM53.3628 36.4573C53.0353 35.9423 52.5402 35.0817 51.9479 34.5402C51.6191 34.2397 51.1577 33.9326 50.5564 33.8496C49.9329 33.7635 49.3521 33.9442 48.8492 34.264L50.2443 36.458C50.3554 36.3874 50.3228 36.442 50.2009 36.4252C50.1012 36.4114 50.0947 36.3688 50.1936 36.4592C50.2962 36.553 50.4294 36.7139 50.6066 36.9737C50.7871 37.2383 50.9509 37.5098 51.1688 37.8524L53.3628 36.4573ZM50.2443 36.458L50.3879 36.3667L48.9928 34.1727L48.8492 34.264L50.2443 36.458ZM50.3879 36.3667C51.3524 35.7534 51.8818 34.8242 51.9821 33.8102C52.0785 32.8365 51.7759 31.8684 51.2607 31.0582L49.0667 32.4533C49.3407 32.8842 49.4221 33.2785 49.3948 33.5541C49.3715 33.7896 49.2696 33.9967 48.9928 34.1727L50.3879 36.3667ZM51.2607 31.0582C50.8302 30.3811 50.2352 29.6391 49.4184 29.2341C48.4807 28.7691 47.4454 28.8405 46.4751 29.4575L47.8702 31.6515C48.0345 31.5471 48.1236 31.535 48.1487 31.5331C48.1686 31.5317 48.1997 31.5319 48.2633 31.5634C48.4365 31.6493 48.7165 31.9026 49.0667 32.4533L51.2607 31.0582ZM47.8702 31.6515L48.7826 31.0714L47.3875 28.8774L46.4751 29.4575L47.8702 31.6515ZM48.7826 31.0714C49.7577 30.4513 50.2653 29.5055 50.3429 28.4912C50.417 27.5231 50.1 26.5647 49.5926 25.7668L47.3986 27.1619C47.6804 27.6051 47.772 28.0114 47.7505 28.2928C47.7325 28.5281 47.6402 28.7167 47.3875 28.8774L48.7826 31.0714ZM49.5926 25.7668C49.165 25.0944 48.5771 24.3553 47.7647 23.9561C46.8268 23.4952 45.8052 23.5862 44.8543 24.1908L46.2494 26.3848C46.4154 26.2792 46.5037 26.2671 46.5256 26.2653C46.5407 26.2641 46.5638 26.263 46.618 26.2896C46.7753 26.3669 47.0454 26.6065 47.3986 27.1619L49.5926 25.7668ZM46.2494 26.3848L46.6785 26.1119L45.2834 23.9179L44.8543 24.1908L46.2494 26.3848ZM46.6785 26.1119C47.6723 25.48 48.1609 24.5049 48.2297 23.4926C48.2956 22.5229 47.9812 21.5575 47.4749 20.7612L45.2809 22.1563C45.5553 22.5879 45.6564 23.0102 45.6356 23.3164C45.6177 23.58 45.5174 23.7691 45.2834 23.9179L46.6785 26.1119ZM47.4749 20.7612C46.9629 19.956 46.2327 19.2835 45.306 18.9904C44.3431 18.6858 43.33 18.844 42.4235 19.4203L43.8186 21.6143C44.14 21.41 44.3606 21.4183 44.5219 21.4693C44.7194 21.5318 45.0037 21.7204 45.2809 22.1563L47.4749 20.7612ZM42.4217 19.4215L30.8184 26.8264L32.2171 29.0181L43.8204 21.6132L42.4217 19.4215ZM32.8152 28.0033C32.8272 27.8105 32.7983 27.6287 32.7856 27.5506C32.7676 27.44 32.7426 27.3189 32.7149 27.1967C32.6589 26.9504 32.5796 26.6462 32.4858 26.3108C32.2975 25.6371 32.0382 24.7914 31.7562 23.9385C31.4747 23.0866 31.1654 22.2116 30.8763 21.483C30.732 21.1194 30.5877 20.7794 30.45 20.4912C30.3243 20.2281 30.1642 19.9216 29.9772 19.6852L27.9384 21.2987C27.9323 21.291 27.9889 21.3711 28.104 21.6119C28.2069 21.8275 28.3272 22.1084 28.4595 22.4419C28.7236 23.1073 29.0154 23.9309 29.2876 24.7544C29.5594 25.5768 29.8064 26.3832 29.9818 27.0107C30.0699 27.3259 30.1368 27.5846 30.1794 27.7725C30.201 27.8674 30.2134 27.9311 30.2194 27.9682C30.2307 28.0377 30.2124 27.9661 30.2202 27.8412L32.8152 28.0033ZM29.9772 19.6852C29.397 18.9522 28.6604 18.3039 28.1262 17.7962L26.3351 19.6808C26.9783 20.2921 27.5074 20.7541 27.9384 21.2987L29.9772 19.6852ZM28.1262 17.7962C27.2908 17.0022 26.4403 16.2265 25.6039 15.4615L23.8491 17.38C24.6913 18.1503 25.5215 18.9076 26.3351 19.6808L28.1262 17.7962ZM25.6039 15.4615C25.2021 15.0939 24.7683 14.9415 24.3712 14.8875C24.1975 14.8639 24.0373 14.86 23.9283 14.8583C23.7985 14.8563 23.7386 14.8571 23.6567 14.8532L23.5328 17.4502C23.6079 17.4538 23.6772 17.4553 23.7362 17.4562C23.7655 17.4566 23.7941 17.4569 23.8191 17.4572C23.845 17.4574 23.8671 17.4577 23.8884 17.458C23.9788 17.4594 24.0094 17.4622 24.0206 17.4637C24.0237 17.4642 23.992 17.46 23.9458 17.4399C23.897 17.4186 23.8637 17.3933 23.8491 17.38L25.6039 15.4615ZM23.6567 14.8532C23.3078 14.8365 22.9362 14.8424 22.5545 14.8913L22.8854 17.4702C23.0833 17.4448 23.2985 17.439 23.5329 17.4502L23.6567 14.8532ZM22.5545 14.8913C21.9187 14.9729 21.2189 15.1802 20.5967 15.6234L22.1052 17.741C22.288 17.6108 22.5478 17.5135 22.8854 17.4702L22.5545 14.8913ZM20.5967 15.6234C19.7968 16.1931 19.3444 17.0072 19.105 17.7753L21.5872 18.5489C21.7114 18.1504 21.8965 17.8897 22.1052 17.741L20.5967 15.6234ZM19.105 17.7753C19.0299 18.0161 18.8959 18.4332 18.8455 18.871C18.7945 19.3147 18.8065 19.9521 19.189 20.5513L21.3805 19.1523C21.4503 19.2617 21.4115 19.316 21.4285 19.1682C21.4361 19.1016 21.4528 19.0165 21.4814 18.907C21.5104 18.7961 21.5452 18.6838 21.5872 18.5489L19.105 17.7753ZM19.1901 20.5531C19.7801 21.4739 20.3657 22.3966 20.9553 23.3232L23.1489 21.9273C22.5615 21.0043 21.9722 20.0758 21.3794 19.1505L19.1901 20.5531ZM20.9553 23.3232C21.2539 23.7924 21.5524 24.2617 21.8509 24.731L24.0448 23.3358C23.7463 22.8663 23.4476 22.3968 23.1489 21.9273L20.9553 23.3232ZM21.8509 24.731C21.9304 24.8561 22.0199 24.9855 22.0755 25.0679C22.1399 25.1631 22.1806 25.2268 22.211 25.2809C22.2655 25.3782 22.2531 25.3873 22.2524 25.362L24.8515 25.2913C24.8368 24.7525 24.6559 24.325 24.4787 24.009C24.3509 23.7811 24.0891 23.4054 24.0448 23.3358L21.8509 24.731ZM22.2588 25.46C22.334 26.1891 22.2923 26.8288 22.3176 27.7572L24.9166 27.6864C24.8989 27.0335 24.9321 26.037 24.8451 25.1933L22.2588 25.46ZM22.3176 27.7572C22.3352 28.4038 22.355 29.0534 22.3735 29.6957L24.9724 29.6208C24.9537 28.9721 24.9342 28.3308 24.9166 27.6864L22.3176 27.7572ZM22.3735 29.6957C22.4094 30.9411 22.4456 32.1872 22.4834 33.4335L25.0822 33.3546C25.0445 32.1104 25.0083 30.8659 24.9724 29.6208L22.3735 29.6957ZM22.4834 33.4335C22.5027 34.0683 22.4473 35.201 22.5832 36.1118L25.1547 35.728C25.0467 35.0041 25.1129 34.3678 25.0822 33.3546L22.4834 33.4335ZM22.5832 36.1118C22.5552 35.9241 22.5781 35.7796 22.5823 35.7517C22.59 35.7007 22.5991 35.6656 22.6016 35.6558C22.6071 35.6351 22.6081 35.6353 22.5968 35.6671C22.5757 35.7265 22.5375 35.8236 22.4809 35.9585C22.3696 36.2235 22.2144 36.5698 22.0529 36.9218C21.8926 37.2712 21.7308 37.6157 21.6088 37.8737C21.5479 38.0025 21.4971 38.1092 21.4616 38.1835C21.4438 38.2207 21.4299 38.2498 21.4205 38.2695C21.4158 38.2793 21.4122 38.2868 21.4098 38.2917C21.4086 38.2942 21.4077 38.2961 21.4072 38.2973C21.4069 38.2979 21.4067 38.2983 21.4065 38.2986C21.4065 38.2988 21.4064 38.2988 21.4064 38.2989C21.4064 38.2989 21.4064 38.2989 21.4064 38.299C21.4064 38.299 21.4064 38.2989 22.5781 38.8619C23.7499 39.4249 23.7499 39.4249 23.75 39.4248C23.75 39.4248 23.75 39.4248 23.75 39.4247C23.7501 39.4246 23.7502 39.4244 23.7502 39.4242C23.7504 39.4238 23.7507 39.4233 23.751 39.4226C23.7517 39.4211 23.7527 39.4191 23.754 39.4163C23.7566 39.4109 23.7605 39.4029 23.7654 39.3926C23.7753 39.3719 23.7897 39.3418 23.808 39.3035C23.8446 39.2268 23.8967 39.1174 23.9591 38.9856C24.0836 38.7223 24.25 38.3679 24.416 38.0062C24.5808 37.6469 24.7502 37.2699 24.8782 36.9651C24.9412 36.815 25.0014 36.6654 25.0469 36.5374C25.0689 36.4754 25.0953 36.3966 25.1169 36.3143C25.1275 36.2736 25.1423 36.212 25.1533 36.1392C25.1608 36.0895 25.1845 35.9278 25.1547 35.728L22.5832 36.1118Z" fill="#006B66" mask="url(#path-3-outside-1)"/>
<path d="M46.4039 25.0663L45.9364 25.6168C47.1642 24.8361 48.2132 25.9708 48.9535 27.1351C49.7019 28.3119 49.6916 29.7401 48.4638 30.5208L47.543 31.1064C48.7841 30.3171 49.7266 31.0329 50.4668 32.1971C51.2152 33.374 51.1622 34.7938 49.921 35.583L49.7742 35.6764C51.002 34.8956 51.6597 36.1657 52.408 37.3425C53.1483 38.5067 52.4512 39.9452 51.2234 40.7259L44.8841 44.7569L35.6273 50.6253C35.3469 50.7148 34.9806 50.6989 34.6732 50.7167C34.2322 50.7305 33.7832 50.7317 33.3342 50.733C32.976 50.7297 32.6337 50.663 32.3214 50.8793C31.8677 51.1678 31.4086 51.4775 30.9549 51.7661L24.0475 41.1525C24.2419 40.8689 26.4399 37.153 26.477 35.7966C26.5247 34.3978 25.9983 25.2876 25.7047 24.2659C25.3897 23.24 22.6193 19.1828 22.7804 18.3162C22.9017 17.5637 22.9021 16.8194 25.3447 16.5636C25.8669 17.0311 27.6688 19.7175 28.1777 20.1936C28.7536 20.716 29.3642 21.2341 29.8413 21.8371C30.5434 22.7056 31.6615 27.4857 31.5985 28.006C31.5457 28.4482 34.9168 27.9246 35.2471 27.7973C38.0108 26.7323 38.6353 26.3957 40.6383 25.0615C44.1667 22.7113 46.0946 22.7864 46.1831 25.3425C46.1831 25.3425 45.9329 24.7531 46.6234 23.9232C46.6463 24.6372 47.0979 24.6249 46.4039 25.0663Z" fill="#B4EBE8"/>
<path d="M22.5747 38.8662C22.5747 38.8662 22.5747 38.8662 22.5881 38.8577L23.5131 40.3124L22.5747 38.8662Z" fill="#B4EBE8"/>
<path d="M33.2886 55.7045L22.8463 62.3445L9.92969 45.8584L22.1048 38.1165L33.2886 55.7045Z" stroke="#006B66" stroke-width="1.8" stroke-miterlimit="10" stroke-linecap="round" stroke-linejoin="round"/>
<path d="M27.6934 55.3394C28.4567 54.854 28.682 53.8418 28.1966 53.0785C27.7113 52.3152 26.699 52.0899 25.9358 52.5753C25.1725 53.0606 24.9472 54.0729 25.4325 54.8362C25.9179 55.5994 26.9301 55.8247 27.6934 55.3394Z" stroke="#006B66" stroke-width="0.7" stroke-miterlimit="10" stroke-linecap="round" stroke-linejoin="round"/>
<path d="M30.8281 51.6127C30.9596 51.5292 31.0905 51.4449 31.221 51.3602C31.868 50.9404 33.0223 50.5895 33.7934 50.6045C33.9307 50.6072 34.4063 50.5902 34.8281 50.5734C35.3002 50.5545 35.7579 50.4117 36.1569 50.1586L44.8012 44.676L51.2759 40.5613C52.5117 39.7759 52.8743 38.126 52.0961 36.8857C51.3726 35.7324 50.6861 34.6365 49.5468 35.361L49.5811 35.3392C50.6866 34.6362 51.0025 33.1867 50.3446 32.0538C49.5339 30.6576 48.5115 29.7032 47.1727 30.5545L48.085 29.9744C49.3128 29.1936 49.2848 27.7055 48.4956 26.4643C47.7148 25.2365 46.7797 24.507 45.5518 25.2878L45.7033 25.1915C46.7942 24.4978 47.1947 23.0896 46.6353 21.9241C45.8785 20.3472 44.4923 19.6454 43.1211 20.5174L31.5177 27.9223C31.5517 27.3792 29.6816 21.4066 28.9578 20.492C28.4522 19.8531 27.8194 19.298 27.2307 18.7385C26.4061 17.9549 25.5658 17.1884 24.7265 16.4207C24.3812 16.1049 24.0341 16.1726 23.5948 16.1517C23.3031 16.1378 23.0098 16.1436 22.7199 16.1808C22.2332 16.2432 21.7535 16.3955 21.3509 16.6822C20.8467 17.0414 20.5279 17.5788 20.3461 18.1621C20.1829 18.6857 19.9721 19.362 20.2848 19.8518C20.8761 20.7748 21.4636 21.7004 22.0521 22.6253C22.3508 23.0946 22.6493 23.564 22.9479 24.0334C23.215 24.4534 23.538 24.8131 23.5519 25.3266C23.633 26.1131 23.5956 26.9311 23.6171 27.7218C23.6347 28.3673 23.6544 29.0128 23.673 29.6582C23.7088 30.9035 23.745 32.1488 23.7828 33.3941C23.8078 34.2181 23.747 35.1025 23.869 35.9199C23.898 36.1147 22.5782 38.8619 22.5782 38.8619" stroke="#006B66" stroke-miterlimit="10" stroke-linecap="round" stroke-linejoin="round"/>
<path d="M13.7441 46.2969L17.3144 44.0267" stroke="#006B66" stroke-width="0.7" stroke-miterlimit="10" stroke-linecap="round" stroke-linejoin="round"/>
<path d="M18.8789 43.0332L19.9791 42.3336" stroke="#006B66" stroke-width="0.7" stroke-miterlimit="10" stroke-linecap="round" stroke-linejoin="round"/>
<rect x="46.7026" y="6.46777" width="4.3195" height="4.3195" transform="rotate(21.1808 46.7026 6.46777)" fill="#00847E"/>
<rect x="56.4604" y="2.48535" width="2.65883" height="2.65883" transform="rotate(58.7151 56.4604 2.48535)" fill="#00847E"/>
<rect x="48.6724" width="2.02112" height="2.02112" transform="rotate(58.7151 48.6724 0)" fill="#00847E"/>
</svg>
