<svg width="38" height="38" viewBox="0 0 38 38" fill="none" xmlns="http://www.w3.org/2000/svg">
<rect width="38" height="38" rx="5" fill="#1BC5BD"/>
<path d="M22.3214 17.082H12.6786V18.1535H22.3214V17.082Z" fill="white"/>
<path d="M22.3214 20.0283H12.6786V21.0997H22.3214V20.0283Z" fill="white"/>
<path d="M17.7679 22.9746H12.6786V24.046H17.7679V22.9746Z" fill="white"/>
<path d="M25 13.5996H10V27.5282H25V13.5996ZM23.9286 26.4568H11.0714V14.671H23.9286V26.4568Z" fill="white"/>
<rect x="18" y="10" width="13" height="10" fill="#1BC5BD"/>
<path d="M28.4346 13.9252V13.7752H28.2846H25.109V10.5996V10.4496H24.959H24.3256H24.1756V10.5996V13.7752H21H20.85V13.9252V14.5586V14.7086H21H24.1756V17.8842V18.0342H24.3256H24.959H25.109V17.8842V14.7086H28.2846H28.4346V14.5586V13.9252Z" fill="white" stroke="white" stroke-width="0.3"/>
</svg>
